Eczar-Regular.ufo
<glyph name="percent" format="1">
  <advance width="823"/>
  <unicode hex="0025"/>
  <outline>
    <contour>
      <point x="201" y="-28" type="line"/>
      <point x="649" y="541" type="line"/>
      <point x="600" y="582" type="line"/>
      <point x="151" y="13" type="line"/>
    </contour>
    <contour>
      <point x="161" y="330"/>
      <point x="128" y="382"/>
      <point x="128" y="437" type="curve" smooth="yes"/>
      <point x="128" y="470"/>
      <point x="140" y="503"/>
      <point x="164" y="525" type="curve"/>
      <point x="237" y="543"/>
      <point x="274" y="488"/>
      <point x="274" y="431" type="curve" smooth="yes"/>
      <point x="274" y="396"/>
      <point x="261" y="361"/>
      <point x="233" y="341" type="curve"/>
    </contour>
    <contour>
      <point x="60" y="350"/>
      <point x="126" y="284"/>
      <point x="206" y="284" type="curve" smooth="yes"/>
      <point x="285" y="284"/>
      <point x="343" y="349"/>
      <point x="343" y="431" type="curve" smooth="yes"/>
      <point x="343" y="516"/>
      <point x="280" y="587"/>
      <point x="201" y="587" type="curve" smooth="yes"/>
      <point x="122" y="587"/>
      <point x="60" y="515"/>
      <point x="60" y="434" type="curve" smooth="yes"/>
    </contour>
    <contour>
      <point x="581" y="26"/>
      <point x="548" y="78"/>
      <point x="548" y="133" type="curve" smooth="yes"/>
      <point x="548" y="166"/>
      <point x="560" y="199"/>
      <point x="584" y="221" type="curve"/>
      <point x="657" y="239"/>
      <point x="694" y="184"/>
      <point x="694" y="127" type="curve" smooth="yes"/>
      <point x="694" y="92"/>
      <point x="681" y="57"/>
      <point x="653" y="37" type="curve"/>
    </contour>
    <contour>
      <point x="480" y="46"/>
      <point x="546" y="-20"/>
      <point x="626" y="-20" type="curve" smooth="yes"/>
      <point x="705" y="-20"/>
      <point x="763" y="45"/>
      <point x="763" y="127" type="curve" smooth="yes"/>
      <point x="763" y="212"/>
      <point x="700" y="283"/>
      <point x="621" y="283" type="curve" smooth="yes"/>
      <point x="542" y="283"/>
      <point x="480" y="211"/>
      <point x="480" y="130" type="curve" smooth="yes"/>
    </contour>
  </outline>
</glyph>
<glyph name="ampersand" format="1">
  <advance width="666"/>
  <unicode hex="0026"/>
  <outline>
    <contour>
      <point x="216" y="371" type="line"/>
      <point x="165" y="392"/>
      <point x="138" y="441"/>
      <point x="138" y="490" type="curve" smooth="yes"/>
      <point x="138" y="536"/>
      <point x="161" y="582"/>
      <point x="211" y="606" type="curve"/>
      <point x="405" y="543" type="line"/>
      <point x="434" y="630" type="line"/>
      <point x="363" y="657"/>
      <point x="302" y="668"/>
      <point x="251" y="668" type="curve" smooth="yes"/>
      <point x="112" y="668"/>
      <point x="44" y="586"/>
      <point x="44" y="504" type="curve" smooth="yes"/>
      <point x="44" y="428"/>
      <point x="103" y="351"/>
      <point x="219" y="339" type="curve"/>
    </contour>
    <contour>
      <point x="406" y="382" type="line"/>
      <point x="445" y="332"/>
      <point x="468" y="268"/>
      <point x="468" y="208" type="curve" smooth="yes"/>
      <point x="468" y="148"/>
      <point x="445" y="91"/>
      <point x="391" y="55" type="curve"/>
      <point x="352" y="39"/>
      <point x="314" y="35"/>
      <point x="288" y="35" type="curve" smooth="yes"/>
      <point x="198" y="35"/>
      <point x="118" y="81"/>
      <point x="118" y="170" type="curve" smooth="yes"/>
      <point x="118" y="244"/>
      <point x="173" y="314"/>
      <point x="282" y="313" type="curve"/>
      <point x="291" y="363" type="line"/>
      <point x="162" y="395" type="line"/>
      <point x="162" y="374" type="line"/>
      <point x="77" y="352"/>
      <point x="23" y="281"/>
      <point x="23" y="193" type="curve" smooth="yes"/>
      <point x="23" y="61"/>
      <point x="144" y="-25"/>
      <point x="292" y="-25" type="curve" smooth="yes"/>
      <point x="460" y="-25"/>
      <point x="558" y="85"/>
      <point x="558" y="220" type="curve" smooth="yes"/>
      <point x="558" y="284"/>
      <point x="536" y="354"/>
      <point x="489" y="420" type="curve"/>
    </contour>
    <contour>
      <point x="357" y="306" type="line"/>
      <point x="530" y="415"/>
      <point x="594" y="368"/>
      <point x="663" y="332" type="curve"/>
      <point x="686" y="425" type="line"/>
      <point x="606" y="479"/>
      <point x="533" y="471"/>
      <point x="330" y="355" type="curve"/>
    </contour>
  </outline>
</glyph>
<glyph name="parenright" format="1">
  <advance width="274"/>
  <unicode hex="0029"/>
  <outline>
    <contour>
      <point x="187" y="-15"/>
      <point x="251" y="135"/>
      <point x="251" y="294" type="curve" smooth="yes"/>
      <point x="251" y="427"/>
      <point x="200" y="579"/>
      <point x="74" y="732" type="curve"/>
      <point x="22" y="706" type="line"/>
      <point x="116" y="566"/>
      <point x="157" y="424"/>
      <point x="157" y="299" type="curve" smooth="yes"/>
      <point x="157" y="152"/>
      <point x="109" y="4"/>
      <point x="31" y="-128" type="curve"/>
      <point x="85" y="-155" type="line"/>
    </contour>
  </outline>
</glyph>
<glyph name="asterisk" format="1">
  <advance width="369"/>
  <unicode hex="002A"/>
  <outline>
    <contour>
      <point x="122" y="736" type="line"/>
      <point x="147" y="604" type="line"/>
      <point x="187" y="607" type="line"/>
      <point x="200" y="755" type="line"/>
    </contour>
    <contour>
      <point x="315" y="681" type="line"/>
      <point x="198" y="616" type="line"/>
      <point x="213" y="579" type="line"/>
      <point x="357" y="612" type="line"/>
    </contour>
    <contour>
      <point x="329" y="480" type="line"/>
      <point x="230" y="572" type="line"/>
      <point x="199" y="546" type="line"/>
      <point x="275" y="419" type="line"/>
    </contour>
    <contour>
      <point x="139" y="407" type="line"/>
      <point x="195" y="530" type="line"/>
      <point x="161" y="551" type="line"/>
      <point x="64" y="439" type="line"/>
    </contour>
    <contour>
      <point x="13" y="566" type="line"/>
      <point x="147" y="550" type="line"/>
      <point x="156" y="589" type="line"/>
      <point x="20" y="647" type="line"/>
    </contour>
  </outline>
</glyph>
<glyph name="plus" format="1">
  <advance width="571"/>
  <unicode hex="002B"/>
  <outline>
    <contour>
      <point x="324" y="265" type="line"/>
      <point x="324" y="465" type="line"/>
      <point x="247" y="465" type="line"/>
      <point x="247" y="265" type="line"/>
      <point x="60" y="265" type="line"/>
      <point x="60" y="199" type="line"/>
      <point x="247" y="199" type="line"/>
      <point x="247" y="0" type="line"/>
      <point x="324" y="0" type="line"/>
      <point x="324" y="199" type="line"/>
      <point x="511" y="199" type="line"/>
      <point x="511" y="265" type="line"/>
    </contour>
  </outline>
</glyph>
<glyph name="slash" format="1">
  <advance width="403"/>
  <unicode hex="002F"/>
  <outline>
    <contour>
      <point x="97" y="-125" type="line"/>
      <point x="403" y="680" type="line"/>
      <point x="340" y="707" type="line"/>
      <point x="33" y="-100" type="line"/>
    </contour>
  </outline>
</glyph>
<glyph name="one" format="1">
  <advance width="407"/>
  <unicode hex="0031"/>
  <outline>
    <contour>
      <point x="200" y="569" type="line"/>
      <point x="230" y="645" type="line"/>
      <point x="217" y="670" type="line"/>
      <point x="25" y="544" type="line"/>
      <point x="53" y="499" type="line"/>
    </contour>
    <contour>
      <point x="264" y="645" type="line"/>
      <point x="217" y="670" type="line"/>
      <point x="184" y="610" type="line"/>
    </contour>
    <contour>
      <point x="175" y="0" type="line"/>
      <point x="264" y="0" type="line"/>
      <point x="264" y="645" type="line"/>
      <point x="175" y="633" type="line"/>
    </contour>
    <contour>
      <point x="185" y="0" type="line"/>
      <point x="199" y="82" type="line"/>
      <point x="143" y="69"/>
      <point x="90" y="54"/>
      <point x="38" y="34" type="curve"/>
      <point x="44" y="0" type="line"/>
    </contour>
    <contour>
      <point x="381" y="0" type="line"/>
      <point x="387" y="48" type="line"/>
      <point x="247" y="67" type="line"/>
      <point x="246" y="0" type="line"/>
    </contour>
  </outline>
</glyph>
<glyph name="two" format="1">
  <advance width="545"/>
  <unicode hex="0032"/>
  <outline>
    <contour>
      <point x="126" y="455" type="line"/>
      <point x="146" y="595" type="line"/>
      <point x="61" y="607" type="line"/>
      <point x="58" y="557"/>
      <point x="60" y="506"/>
      <point x="69" y="456" type="curve"/>
    </contour>
    <contour>
      <point x="62" y="0" type="line"/>
      <point x="461" y="0" type="line"/>
      <point x="461" y="88" type="line"/>
      <point x="158" y="70" type="line"/>
      <point x="155" y="79" type="line"/>
      <point x="328" y="264" type="line"/>
      <point x="410" y="358"/>
      <point x="458" y="416"/>
      <point x="458" y="493" type="curve" smooth="yes"/>
      <point x="458" y="593"/>
      <point x="377" y="665"/>
      <point x="280" y="670" type="curve" smooth="yes"/>
      <point x="214" y="674"/>
      <point x="126" y="647"/>
      <point x="61" y="607" type="curve"/>
      <point x="99" y="564" type="line"/>
      <point x="153" y="587"/>
      <point x="220" y="599"/>
      <point x="256" y="599" type="curve" smooth="yes"/>
      <point x="334" y="599"/>
      <point x="361" y="541"/>
      <point x="361" y="495" type="curve" smooth="yes"/>
      <point x="361" y="444"/>
      <point x="328" y="383"/>
      <point x="252" y="298" type="curve" smooth="yes"/>
      <point x="44" y="64" type="line"/>
    </contour>
    <contour>
      <point x="434" y="173" type="line"/>
      <point x="386" y="40" type="line"/>
      <point x="461" y="0" type="line"/>
      <point x="472" y="39"/>
      <point x="483" y="107"/>
      <point x="488" y="165" type="curve"/>
    </contour>
  </outline>
</glyph>
<glyph name="three" format="1">
  <advance width="531"/>
  <unicode hex="0033"/>
  <outline>
    <contour>
      <point x="152" y="604" type="line"/>
      <point x="67" y="616" type="line"/>
      <point x="64" y="566"/>
      <point x="66" y="537"/>
      <point x="75" y="487" type="curve"/>
      <point x="133" y="486" type="line"/>
    </contour>
    <contour>
      <point x="347" y="429"/>
      <point x="299" y="355"/>
      <point x="151" y="355" type="curve"/>
      <point x="159" y="290" type="line"/>
      <point x="303" y="330" type="line"/>
      <point x="303" y="346" type="line"/>
      <point x="398" y="373"/>
      <point x="442" y="441"/>
      <point x="442" y="508" type="curve" smooth="yes"/>
      <point x="442" y="590"/>
      <point x="375" y="670"/>
      <point x="250" y="670" type="curve" smooth="yes"/>
      <point x="187" y="670"/>
      <point x="116" y="650"/>
      <point x="67" y="616" type="curve"/>
      <point x="104" y="576" type="line"/>
      <point x="139" y="596"/>
      <point x="181" y="607"/>
      <point x="220" y="607" type="curve" smooth="yes"/>
      <point x="303" y="607"/>
      <point x="347" y="556"/>
      <point x="347" y="494" type="curve" smooth="yes"/>
    </contour>
    <contour>
      <point x="60" y="28" type="line"/>
      <point x="115" y="0"/>
      <point x="186" y="-19"/>
      <point x="253" y="-19" type="curve" smooth="yes"/>
      <point x="411" y="-19"/>
      <point x="476" y="85"/>
      <point x="476" y="170" type="curve" smooth="yes"/>
      <point x="476" y="264"/>
      <point x="397" y="350"/>
      <point x="302" y="357" type="curve"/>
      <point x="288" y="357" type="line"/>
      <point x="151" y="355" type="line"/>
      <point x="147" y="355" type="line"/>
      <point x="149" y="287" type="line"/>
      <point x="220" y="290" type="line"/>
      <point x="332" y="290"/>
      <point x="386" y="228"/>
      <point x="386" y="161" type="curve" smooth="yes"/>
      <point x="386" y="129"/>
      <point x="374" y="96"/>
      <point x="349" y="69" type="curve"/>
      <point x="269" y="51"/>
      <point x="156" y="78"/>
      <point x="78" y="118" type="curve"/>
    </contour>
  </outline>
</glyph>
<glyph name="six" format="1">
  <advance width="529"/>
  <unicode hex="0036"/>
  <outline>
    <contour>
      <point x="194" y="284" type="line"/>
      <point x="230" y="310"/>
      <point x="266" y="323"/>
      <point x="295" y="323" type="curve" smooth="yes"/>
      <point x="362" y="323"/>
      <point x="399" y="254"/>
      <point x="399" y="181" type="curve" smooth="yes"/>
      <point x="399" y="119"/>
      <point x="372" y="72"/>
      <point x="323" y="47" type="curve"/>
      <point x="197" y="37"/>
      <point x="135" y="139"/>
      <point x="135" y="268" type="curve" smooth="yes"/>
      <point x="135" y="387"/>
      <point x="187" y="517"/>
      <point x="288" y="563" type="curve"/>
      <point x="436" y="563" type="line"/>
      <point x="435" y="664" type="line"/>
      <point x="146" y="651"/>
      <point x="40" y="428"/>
      <point x="40" y="261" type="curve" smooth="yes"/>
      <point x="40" y="98"/>
      <point x="141" y="-20"/>
      <point x="282" y="-20" type="curve" smooth="yes"/>
      <point x="411" y="-20"/>
      <point x="494" y="80"/>
      <point x="494" y="196" type="curve" smooth="yes"/>
      <point x="494" y="296"/>
      <point x="432" y="393"/>
      <point x="332" y="393" type="curve" smooth="yes"/>
      <point x="298" y="393"/>
      <point x="237" y="382"/>
      <point x="171" y="325" type="curve"/>
    </contour>
  </outline>
</glyph>
<glyph name="question" format="1">
  <advance width="582"/>
  <unicode hex="003F"/>
  <outline>
    <contour>
      <point x="173" y="465" type="line"/>
      <point x="186" y="594" type="line"/>
      <point x="101" y="606" type="line"/>
      <point x="101" y="606"/>
      <point x="104" y="540"/>
      <point x="116" y="465" type="curve"/>
    </contour>
    <contour>
      <point x="297" y="337"/>
      <point x="469" y="350"/>
      <point x="469" y="493" type="curve" smooth="yes"/>
      <point x="469" y="590"/>
      <point x="391" y="670"/>
      <point x="279" y="670" type="curve" smooth="yes"/>
      <point x="224" y="670"/>
      <point x="160" y="651"/>
      <point x="101" y="606" type="curve"/>
      <point x="152" y="546" type="line"/>
      <point x="221" y="596"/>
      <point x="295" y="611"/>
      <point x="339" y="609" type="curve"/>
      <point x="368" y="587"/>
      <point x="389" y="556"/>
      <point x="389" y="512" type="curve" smooth="yes"/>
      <point x="389" y="386"/>
      <point x="215" y="388"/>
      <point x="216" y="232" type="curve"/>
      <point x="297" y="232" type="line"/>
    </contour>
    <contour>
      <point x="234" y="106"/>
      <point x="212" y="79"/>
      <point x="206" y="41" type="curve"/>
      <point x="220" y="8"/>
      <point x="246" y="-13"/>
      <point x="282" y="-20" type="curve"/>
      <point x="312" y="-6"/>
      <point x="333" y="18"/>
      <point x="343" y="52" type="curve"/>
      <point x="337" y="84"/>
      <point x="310" y="109"/>
      <point x="270" y="124" type="curve"/>
    </contour>
  </outline>
</glyph>
<glyph name="at" format="1">
  <advance width="1036"/>
  <unicode hex="0040"/>
  <outline>
    <contour>
      <point x="428" y="409" type="line"/>
      <point x="455" y="417"/>
      <point x="503" y="425"/>
      <point x="541" y="426" type="curve"/>
      <point x="577" y="408"/>
      <point x="591" y="381"/>
      <point x="591" y="319" type="curve" smooth="yes"/>
      <point x="591" y="68" type="line"/>
      <point x="593" y="61" type="line"/>
      <point x="605" y="24"/>
      <point x="645" y="-13"/>
      <point x="666" y="-15" type="curve"/>
      <point x="847" y="5"/>
      <point x="939" y="148"/>
      <point x="939" y="299" type="curve" smooth="yes"/>
      <point x="939" y="478"/>
      <point x="809" y="668"/>
      <point x="533" y="668" type="curve" smooth="yes"/>
      <point x="265" y="668"/>
      <point x="101" y="488"/>
      <point x="101" y="285" type="curve" smooth="yes"/>
      <point x="101" y="182"/>
      <point x="143" y="73"/>
      <point x="232" y="-22" type="curve"/>
      <point x="293" y="18" type="line"/>
      <point x="230" y="100"/>
      <point x="200" y="192"/>
      <point x="200" y="279" type="curve" smooth="yes"/>
      <point x="200" y="457"/>
      <point x="328" y="608"/>
      <point x="538" y="608" type="curve" smooth="yes"/>
      <point x="755" y="608"/>
      <point x="844" y="448"/>
      <point x="844" y="298" type="curve" smooth="yes"/>
      <point x="844" y="205"/>
      <point x="810" y="113"/>
      <point x="745" y="70" type="curve" smooth="yes"/>
      <point x="719" y="53"/>
      <point x="680" y="38"/>
      <point x="680" y="89" type="curve" smooth="yes"/>
      <point x="680" y="319" type="line" smooth="yes"/>
      <point x="680" y="389"/>
      <point x="677" y="406"/>
      <point x="668" y="423" type="curve" smooth="yes"/>
      <point x="653" y="451"/>
      <point x="604" y="493"/>
      <point x="561" y="493" type="curve" smooth="yes"/>
      <point x="520" y="493"/>
      <point x="398" y="455"/>
      <point x="338" y="421" type="curve"/>
      <point x="340" y="379"/>
      <point x="349" y="345"/>
      <point x="367" y="302" type="curve"/>
      <point x="420" y="306" type="line"/>
    </contour>
    <contour>
      <point x="346" y="183"/>
      <point x="326" y="142"/>
      <point x="326" y="104" type="curve" smooth="yes"/>
      <point x="326" y="46"/>
      <point x="373" y="-26"/>
      <point x="483" y="-14" type="curve"/>
      <point x="605" y="60" type="line"/>
      <point x="605" y="102" type="line"/>
      <point x="574" y="87"/>
      <point x="504" y="56"/>
      <point x="446" y="58" type="curve"/>
      <point x="428" y="69"/>
      <point x="420" y="86"/>
      <point x="420" y="104" type="curve" smooth="yes"/>
      <point x="420" y="168"/>
      <point x="522" y="171"/>
      <point x="596" y="164" type="curve"/>
      <point x="612" y="163" type="line"/>
      <point x="606" y="217" type="line"/>
      <point x="396" y="211" type="line"/>
    </contour>
  </outline>
</glyph>
<glyph name="D" format="1">
  <advance width="655"/>
  <unicode hex="0044"/>
  <outline>
    <contour>
      <point x="243" y="658"/>
      <point x="144" y="655"/>
      <point x="45" y="650" type="curve"/>
      <point x="191" y="583" type="line"/>
      <point x="392" y="599" type="line"/>
      <point x="471" y="558"/>
      <point x="531" y="450"/>
      <point x="531" y="329" type="curve" smooth="yes"/>
      <point x="531" y="197"/>
      <point x="459" y="66"/>
      <point x="301" y="66" type="curve" smooth="yes"/>
      <point x="264" y="66"/>
      <point x="222" y="73"/>
      <point x="176" y="89" type="curve"/>
      <point x="180" y="0" type="line"/>
      <point x="302" y="0" type="line" smooth="yes"/>
      <point x="536" y="0"/>
      <point x="635" y="165"/>
      <point x="635" y="329" type="curve" smooth="yes"/>
      <point x="635" y="493"/>
      <point x="525" y="658"/>
      <point x="342" y="658" type="curve" smooth="yes"/>
    </contour>
    <contour>
      <point x="96" y="57"/>
      <point x="60" y="46"/>
      <point x="30" y="32" type="curve"/>
      <point x="36" y="0" type="line"/>
      <point x="130" y="0" type="line"/>
      <point x="129" y="67" type="line"/>
    </contour>
    <contour>
      <point x="115" y="648" type="line"/>
      <point x="115" y="0" type="line"/>
      <point x="208" y="0" type="line"/>
      <point x="208" y="648" type="line"/>
    </contour>
    <contour>
      <point x="45" y="650" type="line"/>
      <point x="44" y="602" type="line"/>
      <point x="140" y="596" type="line"/>
      <point x="138" y="650" type="line"/>
    </contour>
    <contour>
      <point x="335" y="325" type="move" name="center"/>
    </contour>
    <contour>
      <point x="302" y="0" type="move" name="bottom"/>
    </contour>
    <contour>
      <point x="302" y="650" type="move" name="top"/>
    </contour>
  </outline>
</glyph>
<glyph name="E" format="1">
  <advance width="563"/>
  <unicode hex="0045"/>
  <outline>
    <contour>
      <point x="115" y="650" type="line"/>
      <point x="115" y="0" type="line"/>
      <point x="208" y="0" type="line"/>
      <point x="208" y="650" type="line"/>
    </contour>
    <contour>
      <point x="96" y="57"/>
      <point x="60" y="46"/>
      <point x="30" y="32" type="curve"/>
      <point x="36" y="0" type="line"/>
      <point x="130" y="0" type="line"/>
      <point x="129" y="67" type="line"/>
    </contour>
    <contour>
      <point x="184" y="64" type="line"/>
      <point x="109" y="0" type="line"/>
      <point x="502" y="0" type="line"/>
      <point x="485" y="77" type="line"/>
    </contour>
    <contour>
      <point x="197" y="353" type="line"/>
      <point x="197" y="294" type="line"/>
      <point x="437" y="284" type="line"/>
      <point x="437" y="371" type="line"/>
    </contour>
    <contour>
      <point x="109" y="650" type="line"/>
      <point x="184" y="594" type="line"/>
      <point x="485" y="573" type="line"/>
      <point x="502" y="650" type="line"/>
    </contour>
    <contour>
      <point x="45" y="650" type="line"/>
      <point x="44" y="602" type="line"/>
      <point x="140" y="596" type="line"/>
      <point x="138" y="650" type="line"/>
    </contour>
    <contour>
      <point x="427" y="40" type="line"/>
      <point x="502" y="0" type="line"/>
      <point x="510" y="43"/>
      <point x="516" y="126"/>
      <point x="514" y="179" type="curve"/>
      <point x="461" y="183" type="line"/>
    </contour>
    <contour>
      <point x="492" y="485" type="line"/>
      <point x="503" y="546"/>
      <point x="505" y="617"/>
      <point x="502" y="650" type="curve"/>
      <point x="422" y="605" type="line"/>
      <point x="438" y="485" type="line"/>
    </contour>
    <contour>
      <point x="502" y="1" type="move" name="ogonek"/>
    </contour>
    <contour>
      <point x="290" y="0" type="move" name="bottom"/>
    </contour>
    <contour>
      <point x="290" y="650" type="move" name="top"/>
    </contour>
  </outline>
</glyph>
<glyph name="G" format="1">
  <advance width="670"/>
  <unicode hex="0047"/>
  <outline>
    <contour>
      <point x="126" y="670"/>
      <point x="15" y="491"/>
      <point x="15" y="311" type="curve" smooth="yes"/>
      <point x="15" y="138"/>
      <point x="130" y="-33"/>
      <point x="369" y="-20" type="curve"/>
      <point x="564" y="71" type="line"/>
      <point x="520" y="96" type="line"/>
      <point x="478" y="75"/>
      <point x="407" y="54"/>
      <point x="342" y="54" type="curve" smooth="yes"/>
      <point x="193" y="54"/>
      <point x="117" y="184"/>
      <point x="117" y="319" type="curve" smooth="yes"/>
      <point x="117" y="433"/>
      <point x="154" y="547"/>
      <point x="245" y="597" type="curve"/>
      <point x="413" y="619"/>
      <point x="531" y="516"/>
      <point x="531" y="516" type="curve"/>
      <point x="559" y="609" type="line"/>
      <point x="528" y="633"/>
      <point x="457" y="670"/>
      <point x="359" y="670" type="curve" smooth="yes"/>
    </contour>
    <contour>
      <point x="361" y="266" type="line"/>
      <point x="404" y="246"/>
      <point x="457" y="231"/>
      <point x="494" y="221" type="curve"/>
      <point x="479" y="301" type="line"/>
      <point x="367" y="301" type="line"/>
    </contour>
    <contour>
      <point x="471" y="59" type="line"/>
      <point x="564" y="71" type="line"/>
      <point x="564" y="301" type="line"/>
      <point x="471" y="301" type="line"/>
    </contour>
    <contour>
      <point x="457" y="301" type="line"/>
      <point x="488" y="233" type="line"/>
      <point x="640" y="252" type="line"/>
      <point x="639" y="301" type="line"/>
    </contour>
    <contour>
      <point x="542" y="464" type="line"/>
      <point x="559" y="523"/>
      <point x="562" y="576"/>
      <point x="559" y="609" type="curve"/>
      <point x="474" y="564" type="line"/>
      <point x="483" y="464" type="line"/>
    </contour>
    <contour>
      <point x="339" y="650" type="move" name="top"/>
    </contour>
    <contour>
      <point x="339" y="0" type="move" name="bottom"/>
    </contour>
  </outline>
</glyph>
<glyph name="H" format="1">
  <advance width="751"/>
  <unicode hex="0048"/>
  <outline>
    <contour>
      <point x="176" y="587" type="line"/>
      <point x="179" y="650" type="line"/>
      <point x="39" y="650" type="line"/>
      <point x="38" y="603" type="line"/>
    </contour>
    <contour>
      <point x="115" y="650" type="line"/>
      <point x="115" y="0" type="line"/>
      <point x="208" y="0" type="line"/>
      <point x="208" y="650" type="line"/>
    </contour>
    <contour>
      <point x="193" y="650" type="line"/>
      <point x="194" y="583" type="line"/>
      <point x="227" y="593"/>
      <point x="263" y="604"/>
      <point x="293" y="618" type="curve"/>
      <point x="287" y="650" type="line"/>
    </contour>
    <contour>
      <point x="455" y="650" type="line"/>
      <point x="454" y="603" type="line"/>
      <point x="592" y="587" type="line"/>
      <point x="595" y="650" type="line"/>
    </contour>
    <contour>
      <point x="531" y="650" type="line"/>
      <point x="531" y="0" type="line"/>
      <point x="624" y="0" type="line"/>
      <point x="624" y="650" type="line"/>
    </contour>
    <contour>
      <point x="609" y="650" type="line"/>
      <point x="610" y="583" type="line"/>
      <point x="643" y="593"/>
      <point x="679" y="604"/>
      <point x="709" y="618" type="curve"/>
      <point x="703" y="650" type="line"/>
    </contour>
    <contour>
      <point x="191" y="357" type="line"/>
      <point x="191" y="287" type="line"/>
      <point x="575" y="287" type="line"/>
      <point x="575" y="357" type="line"/>
    </contour>
    <contour>
      <point x="96" y="57"/>
      <point x="60" y="46"/>
      <point x="30" y="32" type="curve"/>
      <point x="36" y="0" type="line"/>
      <point x="130" y="0" type="line"/>
      <point x="129" y="67" type="line"/>
    </contour>
    <contour>
      <point x="164" y="0" type="line"/>
      <point x="304" y="0" type="line"/>
      <point x="305" y="47" type="line"/>
      <point x="167" y="63" type="line"/>
    </contour>
    <contour>
      <point x="512" y="57"/>
      <point x="476" y="46"/>
      <point x="446" y="32" type="curve"/>
      <point x="452" y="0" type="line"/>
      <point x="546" y="0" type="line"/>
      <point x="545" y="67" type="line"/>
    </contour>
    <contour>
      <point x="580" y="0" type="line"/>
      <point x="720" y="0" type="line"/>
      <point x="721" y="47" type="line"/>
      <point x="583" y="63" type="line"/>
    </contour>
    <contour>
      <point x="376" y="325" type="move" name="center"/>
    </contour>
    <contour>
      <point x="376" y="650" type="move" name="top"/>
    </contour>
  </outline>
</glyph>
<glyph name="J" format="1">
  <advance width="347"/>
  <unicode hex="004A"/>
  <outline>
    <contour>
      <point x="43" y="650" type="line"/>
      <point x="42" y="603" type="line"/>
      <point x="180" y="587" type="line"/>
      <point x="183" y="650" type="line"/>
    </contour>
    <contour>
      <point x="139" y="650" type="line"/>
      <point x="139" y="128" type="line" smooth="yes"/>
      <point x="139" y="-16"/>
      <point x="80" y="-78"/>
      <point x="-4" y="-131" type="curve"/>
      <point x="32" y="-182" type="line"/>
      <point x="131" y="-124"/>
      <point x="232" y="-47"/>
      <point x="232" y="81" type="curve" smooth="yes"/>
      <point x="232" y="650" type="line"/>
    </contour>
    <contour>
      <point x="217" y="650" type="line"/>
      <point x="218" y="583" type="line"/>
      <point x="251" y="593"/>
      <point x="287" y="604"/>
      <point x="317" y="618" type="curve"/>
      <point x="311" y="650" type="line"/>
    </contour>
    <contour>
      <point x="184" y="650" type="move" name="top"/>
    </contour>
  </outline>
</glyph>
<glyph name="L" format="1">
  <advance width="548"/>
  <unicode hex="004C"/>
  <outline>
    <contour>
      <point x="39" y="650" type="line"/>
      <point x="38" y="603" type="line"/>
      <point x="176" y="587" type="line"/>
      <point x="179" y="650" type="line"/>
    </contour>
    <contour>
      <point x="193" y="650" type="line"/>
      <point x="194" y="583" type="line"/>
      <point x="227" y="593"/>
      <point x="263" y="604"/>
      <point x="293" y="618" type="curve"/>
      <point x="287" y="650" type="line"/>
    </contour>
    <contour>
      <point x="96" y="57"/>
      <point x="60" y="46"/>
      <point x="30" y="32" type="curve"/>
      <point x="36" y="0" type="line"/>
      <point x="130" y="0" type="line"/>
      <point x="129" y="67" type="line"/>
    </contour>
    <contour>
      <point x="184" y="66" type="line"/>
      <point x="109" y="0" type="line"/>
      <point x="522" y="0" type="line"/>
      <point x="505" y="79" type="line"/>
    </contour>
    <contour>
      <point x="115" y="650" type="line"/>
      <point x="115" y="0" type="line"/>
      <point x="208" y="0" type="line"/>
      <point x="208" y="650" type="line"/>
    </contour>
    <contour>
      <point x="444" y="40" type="line"/>
      <point x="522" y="0" type="line"/>
      <point x="531" y="48"/>
      <point x="535" y="137"/>
      <point x="534" y="199" type="curve"/>
      <point x="478" y="203" type="line"/>
    </contour>
    <contour>
      <point x="160" y="650" type="move" name="top"/>
    </contour>
    <contour>
      <point x="272" y="0" type="move" name="bottom"/>
    </contour>
    <contour>
      <point x="428" y="650" type="move" name="topright"/>
    </contour>
  </outline>
</glyph>
<glyph name="M" format="1">
  <advance width="901"/>
  <unicode hex="004D"/>
  <outline>
    <contour>
      <point x="60" y="650" type="line"/>
      <point x="59" y="603" type="line"/>
      <point x="197" y="587" type="line"/>
      <point x="200" y="650" type="line"/>
    </contour>
    <contour>
      <point x="140" y="650" type="line"/>
      <point x="117" y="0" type="line"/>
      <point x="196" y="0" type="line"/>
      <point x="206" y="420" type="line"/>
      <point x="184" y="602" type="line"/>
      <point x="261" y="650" type="line"/>
    </contour>
    <contour>
      <point x="96" y="57"/>
      <point x="60" y="46"/>
      <point x="30" y="32" type="curve"/>
      <point x="36" y="0" type="line"/>
      <point x="130" y="0" type="line"/>
      <point x="129" y="67" type="line"/>
    </contour>
    <contour>
      <point x="140" y="0" type="line"/>
      <point x="280" y="0" type="line"/>
      <point x="281" y="47" type="line" smooth="yes"/>
      <point x="143" y="63" type="line"/>
    </contour>
    <contour>
      <point x="177" y="605" type="line"/>
      <point x="398" y="-7" type="line"/>
      <point x="485" y="16" type="line"/>
      <point x="468" y="73" type="line"/>
      <point x="261" y="650" type="line"/>
    </contour>
    <contour>
      <point x="430" y="36" type="line"/>
      <point x="485" y="16" type="line"/>
      <point x="700" y="613" type="line"/>
      <point x="648" y="650" type="line"/>
    </contour>
    <contour>
      <point x="648" y="650" type="line"/>
      <point x="692" y="609" type="line"/>
      <point x="676" y="420" type="line"/>
      <point x="683" y="0" type="line"/>
      <point x="773" y="0" type="line"/>
      <point x="762" y="650" type="line"/>
    </contour>
    <contour>
      <point x="737" y="650" type="line"/>
      <point x="738" y="583" type="line"/>
      <point x="771" y="593"/>
      <point x="807" y="604"/>
      <point x="837" y="618" type="curve"/>
      <point x="831" y="650" type="line"/>
    </contour>
    <contour>
      <point x="662" y="57"/>
      <point x="626" y="46"/>
      <point x="596" y="32" type="curve"/>
      <point x="602" y="0" type="line"/>
      <point x="696" y="0" type="line"/>
      <point x="695" y="67" type="line"/>
    </contour>
    <contour>
      <point x="730" y="0" type="line"/>
      <point x="870" y="0" type="line"/>
      <point x="871" y="47" type="line"/>
      <point x="733" y="63" type="line"/>
    </contour>
  </outline>
</glyph>
<glyph name="N" format="1">
  <advance width="745"/>
  <unicode hex="004E"/>
  <outline>
    <contour>
      <point x="138" y="0" type="line"/>
      <point x="278" y="0" type="line"/>
      <point x="279" y="47" type="line"/>
      <point x="141" y="63" type="line"/>
    </contour>
    <contour>
      <point x="96" y="57"/>
      <point x="60" y="46"/>
      <point x="30" y="32" type="curve"/>
      <point x="36" y="0" type="line"/>
      <point x="130" y="0" type="line"/>
      <point x="129" y="67" type="line"/>
    </contour>
    <contour>
      <point x="115" y="650" type="line"/>
      <point x="115" y="0" type="line"/>
      <point x="190" y="0" type="line"/>
      <point x="190" y="418" type="line"/>
      <point x="166" y="600" type="line"/>
      <point x="229" y="650" type="line"/>
    </contour>
    <contour>
      <point x="51" y="650" type="line"/>
      <point x="50" y="603" type="line"/>
      <point x="188" y="587" type="line"/>
      <point x="191" y="650" type="line"/>
    </contour>
    <contour>
      <point x="161" y="650" type="line"/>
      <point x="158" y="579" type="line"/>
      <point x="527" y="-11" type="line"/>
      <point x="594" y="24" type="line"/>
      <point x="587" y="73" type="line"/>
      <point x="229" y="650" type="line"/>
    </contour>
    <contour>
      <point x="458" y="650" type="line"/>
      <point x="457" y="603" type="line"/>
      <point x="595" y="587" type="line"/>
      <point x="598" y="650" type="line"/>
    </contour>
    <contour>
      <point x="554" y="650" type="line"/>
      <point x="554" y="232" type="line"/>
      <point x="579" y="50" type="line"/>
      <point x="527" y="-11" type="line"/>
      <point x="630" y="0" type="line"/>
      <point x="630" y="650" type="line"/>
    </contour>
    <contour>
      <point x="615" y="650" type="line"/>
      <point x="616" y="583" type="line"/>
      <point x="649" y="593"/>
      <point x="685" y="604"/>
      <point x="715" y="618" type="curve"/>
      <point x="709" y="650" type="line"/>
    </contour>
    <contour>
      <point x="353" y="650" type="move" name="top"/>
    </contour>
    <contour>
      <point x="383" y="0" type="move" name="bottom"/>
    </contour>
  </outline>
</glyph>
<glyph name="O" format="1">
  <advance width="652"/>
  <unicode hex="004F"/>
  <outline>
    <contour>
      <point x="149" y="670"/>
      <point x="20" y="530"/>
      <point x="20" y="321" type="curve" smooth="yes"/>
      <point x="20" y="92"/>
      <point x="175" y="-20"/>
      <point x="329" y="-20" type="curve" smooth="yes"/>
      <point x="480" y="-20"/>
      <point x="632" y="87"/>
      <point x="632" y="317" type="curve" smooth="yes"/>
      <point x="632" y="544"/>
      <point x="485" y="670"/>
      <point x="321" y="670" type="curve" smooth="yes"/>
    </contour>
    <contour>
      <point x="248" y="596"/>
      <point x="280" y="601"/>
      <point x="309" y="601" type="curve" smooth="yes"/>
      <point x="460" y="601"/>
      <point x="529" y="458"/>
      <point x="529" y="312" type="curve" smooth="yes"/>
      <point x="529" y="197"/>
      <point x="486" y="101"/>
      <point x="424" y="61" type="curve"/>
      <point x="396" y="54"/>
      <point x="371" y="51"/>
      <point x="347" y="51" type="curve" smooth="yes"/>
      <point x="188" y="51"/>
      <point x="122" y="193"/>
      <point x="122" y="335" type="curve" smooth="yes"/>
      <point x="122" y="440"/>
      <point x="158" y="542"/>
      <point x="213" y="584" type="curve"/>
    </contour>
    <contour>
      <point x="324" y="650" type="move" name="top"/>
    </contour>
  </outline>
</glyph>
<glyph name="Q" format="1">
  <advance width="691"/>
  <unicode hex="0051"/>
  <outline>
    <contour>
      <point x="368" y="-3" type="line"/>
      <point x="712" y="-162" type="line"/>
      <point x="751" y="-64" type="line"/>
      <point x="403" y="34" type="line"/>
    </contour>
    <component base="O"/>
  </outline>
</glyph>
<glyph name="R" format="1">
  <advance width="638"/>
  <unicode hex="0052"/>
  <outline>
    <contour>
      <point x="45" y="650" type="line"/>
      <point x="196" y="583" type="line"/>
      <point x="381" y="599" type="line"/>
      <point x="435" y="573"/>
      <point x="459" y="523"/>
      <point x="459" y="465" type="curve" smooth="yes"/>
      <point x="459" y="401"/>
      <point x="430" y="318"/>
      <point x="293" y="318" type="curve" smooth="yes"/>
      <point x="263" y="318"/>
      <point x="221" y="322"/>
      <point x="178" y="331" type="curve"/>
      <point x="175" y="259" type="line"/>
      <point x="333" y="260" type="line" smooth="yes"/>
      <point x="486" y="262"/>
      <point x="561" y="370"/>
      <point x="561" y="465" type="curve" smooth="yes"/>
      <point x="561" y="562"/>
      <point x="483" y="658"/>
      <point x="324" y="658" type="curve"/>
    </contour>
    <contour>
      <point x="96" y="57"/>
      <point x="60" y="46"/>
      <point x="30" y="32" type="curve"/>
      <point x="36" y="0" type="line"/>
      <point x="130" y="0" type="line"/>
      <point x="129" y="67" type="line"/>
    </contour>
    <contour>
      <point x="174" y="0" type="line"/>
      <point x="314" y="0" type="line"/>
      <point x="315" y="47" type="line"/>
      <point x="177" y="63" type="line"/>
    </contour>
    <contour>
      <point x="115" y="650" type="line"/>
      <point x="115" y="0" type="line"/>
      <point x="208" y="0" type="line"/>
      <point x="208" y="650" type="line"/>
    </contour>
    <contour>
      <point x="45" y="650" type="line"/>
      <point x="44" y="602" type="line"/>
      <point x="140" y="596" type="line"/>
      <point x="138" y="650" type="line"/>
    </contour>
    <contour>
      <point x="305" y="299" type="line"/>
      <point x="470" y="0" type="line"/>
      <point x="588" y="0" type="line"/>
      <point x="398" y="308" type="line"/>
    </contour>
    <contour>
      <point x="482" y="0" type="line"/>
      <point x="622" y="0" type="line"/>
      <point x="623" y="47" type="line"/>
      <point x="485" y="60" type="line"/>
    </contour>
    <contour>
      <point x="279" y="650" type="move" name="top"/>
    </contour>
    <contour>
      <point x="302" y="0" type="move" name="bottom"/>
    </contour>
  </outline>
</glyph>
<glyph name="Y" format="1">
  <advance width="597"/>
  <unicode hex="0059"/>
  <outline>
    <contour>
      <point x="33" y="650" type="line"/>
      <point x="262" y="226" type="line"/>
      <point x="331" y="282" type="line"/>
      <point x="318" y="308" type="line"/>
      <point x="302" y="307" type="line"/>
      <point x="276" y="388" type="line"/>
      <point x="137" y="650" type="line"/>
    </contour>
    <contour>
      <point x="1" y="650" type="line"/>
      <point x="0" y="603" type="line"/>
      <point x="138" y="587" type="line"/>
      <point x="141" y="650" type="line"/>
    </contour>
    <contour>
      <point x="114" y="650" type="line"/>
      <point x="135" y="583" type="line"/>
      <point x="168" y="593"/>
      <point x="204" y="604"/>
      <point x="234" y="618" type="curve"/>
      <point x="228" y="650" type="line"/>
    </contour>
    <contour>
      <point x="477" y="650" type="line"/>
      <point x="288" y="269" type="line"/>
      <point x="336" y="240" type="line"/>
      <point x="558" y="650" type="line"/>
    </contour>
    <contour>
      <point x="371" y="650" type="line"/>
      <point x="370" y="603" type="line"/>
      <point x="508" y="587" type="line"/>
      <point x="511" y="650" type="line"/>
    </contour>
    <contour>
      <point x="477" y="650" type="line"/>
      <point x="498" y="583" type="line"/>
      <point x="531" y="593"/>
      <point x="567" y="604"/>
      <point x="597" y="618" type="curve"/>
      <point x="591" y="650" type="line"/>
    </contour>
    <contour>
      <point x="248" y="0" type="line"/>
      <point x="341" y="0" type="line"/>
      <point x="341" y="277" type="line"/>
      <point x="248" y="277" type="line"/>
    </contour>
    <contour>
      <point x="236" y="57"/>
      <point x="200" y="46"/>
      <point x="170" y="32" type="curve"/>
      <point x="176" y="0" type="line"/>
      <point x="270" y="0" type="line"/>
      <point x="269" y="67" type="line"/>
    </contour>
    <contour>
      <point x="282" y="0" type="line"/>
      <point x="422" y="0" type="line"/>
      <point x="423" y="47" type="line"/>
      <point x="285" y="63" type="line"/>
    </contour>
    <contour>
      <point x="304" y="650" type="move" name="top"/>
    </contour>
  </outline>
</glyph>
<glyph name="Z" format="1">
  <advance width="574"/>
  <unicode hex="005A"/>
  <outline>
    <contour>
      <point x="79" y="576" type="line"/>
      <point x="466" y="590" type="line"/>
      <point x="509" y="650" type="line"/>
      <point x="62" y="650" type="line"/>
    </contour>
    <contour>
      <point x="461" y="607" type="line"/>
      <point x="418" y="595" type="line"/>
      <point x="35" y="45" type="line"/>
      <point x="56" y="0" type="line"/>
      <point x="101" y="31" type="line"/>
      <point x="138" y="47" type="line"/>
      <point x="530" y="604" type="line"/>
      <point x="509" y="650" type="line"/>
    </contour>
    <contour>
      <point x="111" y="74" type="line"/>
      <point x="56" y="0" type="line"/>
      <point x="513" y="0" type="line"/>
      <point x="508" y="76" type="line"/>
    </contour>
    <contour>
      <point x="142" y="605" type="line"/>
      <point x="62" y="650" type="line"/>
      <point x="59" y="617"/>
      <point x="61" y="529"/>
      <point x="72" y="468" type="curve"/>
      <point x="126" y="468" type="line"/>
    </contour>
    <contour>
      <point x="438" y="35" type="line"/>
      <point x="513" y="0" type="line"/>
      <point x="525" y="64"/>
      <point x="534" y="124"/>
      <point x="539" y="185" type="curve"/>
      <point x="481" y="193" type="line"/>
    </contour>
  </outline>
</glyph>
<glyph name="bracketleft" format="1">
  <advance width="346"/>
  <unicode hex="005B"/>
  <outline>
    <contour>
      <point x="99" y="712" type="line"/>
      <point x="99" y="-122" type="line"/>
      <point x="306" y="-122" type="line"/>
      <point x="312" y="-66" type="line"/>
      <point x="182" y="-44" type="line"/>
      <point x="182" y="634" type="line"/>
      <point x="312" y="656" type="line"/>
      <point x="306" y="712" type="line"/>
    </contour>
  </outline>
</glyph>
<glyph name="c" format="1">
  <advance width="415"/>
  <unicode hex="0063"/>
  <outline>
    <contour>
      <point x="377" y="82" type="line"/>
      <point x="341" y="66"/>
      <point x="302" y="59"/>
      <point x="273" y="59" type="curve" smooth="yes"/>
      <point x="170" y="59"/>
      <point x="113" y="142"/>
      <point x="113" y="254" type="curve" smooth="yes"/>
      <point x="113" y="320"/>
      <point x="133" y="376"/>
      <point x="175" y="425" type="curve"/>
      <point x="234" y="421"/>
      <point x="296" y="391"/>
      <point x="347" y="351" type="curve"/>
      <point x="400" y="422" type="line"/>
      <point x="356" y="465"/>
      <point x="309" y="488"/>
      <point x="248" y="488" type="curve" smooth="yes"/>
      <point x="117" y="488"/>
      <point x="20" y="384"/>
      <point x="20" y="234" type="curve" smooth="yes"/>
      <point x="20" y="97"/>
      <point x="101" y="-17"/>
      <point x="258" y="-15" type="curve"/>
      <point x="394" y="40" type="line"/>
    </contour>
    <contour>
      <point x="236" y="468" type="move" name="top"/>
    </contour>
    <contour>
      <point x="236" y="0" type="move" name="bottom"/>
    </contour>
  </outline>
</glyph>
<glyph name="e" format="1">
  <advance width="451"/>
  <unicode hex="0065"/>
  <outline>
    <contour>
      <point x="406" y="94" type="line"/>
      <point x="361" y="74"/>
      <point x="318" y="61"/>
      <point x="278" y="61" type="curve" smooth="yes"/>
      <point x="186" y="61"/>
      <point x="114" y="129"/>
      <point x="114" y="247" type="curve" smooth="yes"/>
      <point x="114" y="314"/>
      <point x="137" y="394"/>
      <point x="199" y="427" type="curve"/>
      <point x="287" y="433"/>
      <point x="353" y="366"/>
      <point x="343" y="278" type="curve"/>
      <point x="428" y="313" type="line"/>
      <point x="430" y="414"/>
      <point x="353" y="488"/>
      <point x="249" y="488" type="curve" smooth="yes"/>
      <point x="112" y="488"/>
      <point x="20" y="360"/>
      <point x="20" y="226" type="curve" smooth="yes"/>
      <point x="20" y="101"/>
      <point x="101" y="-15"/>
      <point x="265" y="-15" type="curve"/>
      <point x="421" y="51" type="line"/>
    </contour>
    <contour>
      <point x="106" y="262" type="line"/>
      <point x="371" y="257" type="line"/>
      <point x="428" y="313" type="line"/>
      <point x="417" y="328" type="line"/>
      <point x="106" y="314" type="line"/>
    </contour>
    <contour>
      <point x="421" y="51" type="move" name="ogonek"/>
    </contour>
    <contour>
      <point x="242" y="0" type="move" name="bottom"/>
    </contour>
    <contour>
      <point x="242" y="468" type="move" name="top"/>
    </contour>
  </outline>
</glyph>
<glyph name="f" format="1">
  <advance width="326"/>
  <unicode hex="0066"/>
  <outline>
    <contour>
      <point x="361" y="702" type="line"/>
      <point x="328" y="736"/>
      <point x="287" y="751"/>
      <point x="248" y="751" type="curve" smooth="yes"/>
      <point x="164" y="751"/>
      <point x="83" y="681"/>
      <point x="83" y="563" type="curve" smooth="yes"/>
      <point x="83" y="0" type="line"/>
      <point x="172" y="0" type="line"/>
      <point x="172" y="435" type="line"/>
      <point x="178" y="458" type="line"/>
      <point x="154" y="663" type="line"/>
      <point x="202" y="682"/>
      <point x="259" y="667"/>
      <point x="305" y="622" type="curve"/>
    </contour>
    <contour>
      <point x="107" y="394" type="line"/>
      <point x="150" y="444" type="line"/>
      <point x="128" y="468" type="line"/>
      <point x="93" y="465"/>
      <point x="55" y="458"/>
      <point x="15" y="440" type="curve"/>
      <point x="21" y="391" type="line"/>
    </contour>
    <contour>
      <point x="99" y="0" type="line"/>
      <point x="113" y="67" type="line"/>
      <point x="88" y="60"/>
      <point x="39" y="45"/>
      <point x="15" y="33" type="curve"/>
      <point x="20" y="0" type="line"/>
    </contour>
    <contour>
      <point x="257" y="0" type="line"/>
      <point x="263" y="48" type="line"/>
      <point x="240" y="58"/>
      <point x="199" y="64"/>
      <point x="165" y="67" type="curve"/>
      <point x="164" y="0" type="line"/>
    </contour>
    <contour>
      <point x="128" y="391" type="line"/>
      <point x="238" y="391" type="line"/>
      <point x="285" y="440" type="line"/>
      <point x="282" y="468" type="line"/>
      <point x="128" y="468" type="line"/>
    </contour>
  </outline>
</glyph>
<glyph name="g" format="1">
  <advance width="546"/>
  <unicode hex="0067"/>
  <outline>
    <contour>
      <point x="435" y="528"/>
      <point x="373" y="473"/>
      <point x="370" y="386" type="curve"/>
      <point x="394" y="396" type="line"/>
      <point x="431" y="424"/>
      <point x="475" y="438"/>
      <point x="526" y="438" type="curve"/>
      <point x="507" y="542" type="line"/>
    </contour>
    <contour>
      <point x="353" y="154"/>
      <point x="462" y="210"/>
      <point x="462" y="323" type="curve" smooth="yes"/>
      <point x="462" y="434"/>
      <point x="358" y="496"/>
      <point x="255" y="496" type="curve" smooth="yes"/>
      <point x="155" y="496"/>
      <point x="47" y="437"/>
      <point x="47" y="325" type="curve" smooth="yes"/>
      <point x="47" y="211"/>
      <point x="157" y="154"/>
      <point x="255" y="154" type="curve" smooth="yes"/>
    </contour>
    <contour>
      <point x="282" y="479"/>
      <point x="370" y="402"/>
      <point x="370" y="316" type="curve" smooth="yes"/>
      <point x="370" y="285"/>
      <point x="359" y="248"/>
      <point x="322" y="218" type="curve"/>
      <point x="208" y="178"/>
      <point x="139" y="238"/>
      <point x="139" y="331" type="curve" smooth="yes"/>
      <point x="139" y="361"/>
      <point x="146" y="392"/>
      <point x="172" y="423" type="curve"/>
    </contour>
    <contour>
      <point x="187" y="52" type="line"/>
      <point x="34" y="-89" type="line"/>
      <point x="23" y="-182"/>
      <point x="116" y="-231"/>
      <point x="220" y="-231" type="curve" smooth="yes"/>
      <point x="369" y="-231"/>
      <point x="533" y="-131"/>
      <point x="498" y="28" type="curve"/>
      <point x="410" y="62"/>
      <point x="247" y="94"/>
      <point x="150" y="96" type="curve"/>
      <point x="174" y="123"/>
      <point x="217" y="158"/>
      <point x="255" y="183" type="curve"/>
      <point x="207" y="199" type="line"/>
      <point x="163" y="179"/>
      <point x="95" y="119"/>
      <point x="56" y="72" type="curve"/>
      <point x="74" y="25" type="line"/>
      <point x="221" y="22"/>
      <point x="384" y="-9"/>
      <point x="444" y="-45" type="curve"/>
      <point x="406" y="-115"/>
      <point x="307" y="-150"/>
      <point x="226" y="-150" type="curve" smooth="yes"/>
      <point x="162" y="-150"/>
      <point x="115" y="-129"/>
      <point x="115" y="-95" type="curve" smooth="yes"/>
      <point x="115" y="-51"/>
      <point x="196" y="9"/>
      <point x="270" y="49" type="curve"/>
    </contour>
    <contour>
      <point x="254" y="468" type="move" name="top"/>
    </contour>
  </outline>
</glyph>
<glyph name="h" format="1">
  <advance width="588"/>
  <unicode hex="0068"/>
  <outline>
    <contour>
      <point x="120" y="664" type="line"/>
      <point x="164" y="710" type="line"/>
      <point x="151" y="735" type="line"/>
      <point x="109" y="734"/>
      <point x="55" y="722"/>
      <point x="15" y="704" type="curve"/>
      <point x="27" y="657" type="line"/>
    </contour>
    <contour>
      <point x="102" y="0" type="line"/>
      <point x="191" y="0" type="line"/>
      <point x="191" y="700" type="line"/>
      <point x="151" y="735" type="line"/>
      <point x="102" y="698" type="line"/>
    </contour>
    <contour>
      <point x="112" y="0" type="line"/>
      <point x="126" y="67" type="line"/>
      <point x="101" y="60"/>
      <point x="52" y="45"/>
      <point x="28" y="33" type="curve"/>
      <point x="33" y="0" type="line"/>
    </contour>
    <contour>
      <point x="250" y="0" type="line"/>
      <point x="256" y="48" type="line"/>
      <point x="233" y="58"/>
      <point x="192" y="64"/>
      <point x="158" y="67" type="curve"/>
      <point x="157" y="0" type="line"/>
    </contour>
    <contour>
      <point x="434" y="0" type="line"/>
      <point x="448" y="67" type="line"/>
      <point x="423" y="60"/>
      <point x="374" y="45"/>
      <point x="350" y="33" type="curve"/>
      <point x="355" y="0" type="line"/>
    </contour>
    <contour>
      <point x="562" y="0" type="line"/>
      <point x="568" y="48" type="line"/>
      <point x="545" y="58"/>
      <point x="504" y="64"/>
      <point x="470" y="67" type="curve"/>
      <point x="469" y="0" type="line"/>
    </contour>
    <contour>
      <point x="407" y="0" type="line"/>
      <point x="496" y="0" type="line"/>
      <point x="496" y="300" type="line" smooth="yes"/>
      <point x="496" y="370"/>
      <point x="492" y="398"/>
      <point x="482" y="417" type="curve" smooth="yes"/>
      <point x="467" y="445"/>
      <point x="429" y="477"/>
      <point x="391" y="484" type="curve"/>
      <point x="355" y="484"/>
      <point x="262" y="435"/>
      <point x="168" y="370" type="curve"/>
      <point x="186" y="328" type="line"/>
      <point x="234" y="365"/>
      <point x="303" y="404"/>
      <point x="343" y="404" type="curve" smooth="yes"/>
      <point x="377" y="404"/>
      <point x="407" y="377"/>
      <point x="407" y="296" type="curve" smooth="yes"/>
    </contour>
    <contour>
      <point x="294" y="234" type="move" name="center"/>
    </contour>
    <contour>
      <point x="111" y="715" type="move" name="top"/>
    </contour>
  </outline>
</glyph>
<glyph name="i" format="1">
  <advance width="283"/>
  <unicode hex="0069"/>
  <outline>
    <contour>
      <point x="174" y="589"/>
      <point x="200" y="622"/>
      <point x="210" y="649" type="curve"/>
      <point x="195" y="669"/>
      <point x="163" y="698"/>
      <point x="135" y="709" type="curve"/>
      <point x="113" y="695"/>
      <point x="88" y="663"/>
      <point x="74" y="633" type="curve"/>
      <point x="90" y="610"/>
      <point x="126" y="583"/>
      <point x="151" y="573" type="curve"/>
    </contour>
    <contour>
      <point x="120" y="413" type="line"/>
      <point x="164" y="459" type="line"/>
      <point x="151" y="484" type="line"/>
      <point x="109" y="483"/>
      <point x="55" y="471"/>
      <point x="15" y="453" type="curve"/>
      <point x="27" y="406" type="line"/>
    </contour>
    <contour>
      <point x="102" y="0" type="line"/>
      <point x="191" y="0" type="line"/>
      <point x="191" y="449" type="line"/>
      <point x="151" y="484" type="line"/>
      <point x="102" y="447" type="line"/>
    </contour>
    <contour>
      <point x="257" y="0" type="line"/>
      <point x="263" y="48" type="line"/>
      <point x="240" y="58"/>
      <point x="199" y="64"/>
      <point x="165" y="67" type="curve"/>
      <point x="164" y="0" type="line"/>
    </contour>
    <contour>
      <point x="110" y="0" type="line"/>
      <point x="124" y="67" type="line"/>
      <point x="99" y="60"/>
      <point x="50" y="45"/>
      <point x="26" y="33" type="curve"/>
      <point x="31" y="0" type="line"/>
    </contour>
    <contour>
      <point x="230" y="0" type="move" name="ogonek"/>
    </contour>
  </outline>
</glyph>
<glyph name="n" format="1">
  <advance width="590"/>
  <unicode hex="006E"/>
  <outline>
    <contour>
      <point x="120" y="413" type="line"/>
      <point x="164" y="459" type="line"/>
      <point x="151" y="484" type="line"/>
      <point x="109" y="483"/>
      <point x="55" y="471"/>
      <point x="15" y="453" type="curve"/>
      <point x="27" y="406" type="line"/>
    </contour>
    <contour>
      <point x="102" y="0" type="line"/>
      <point x="191" y="0" type="line"/>
      <point x="191" y="449" type="line"/>
      <point x="151" y="484" type="line"/>
      <point x="102" y="447" type="line"/>
    </contour>
    <contour>
      <point x="115" y="0" type="line"/>
      <point x="129" y="67" type="line"/>
      <point x="104" y="60"/>
      <point x="55" y="45"/>
      <point x="31" y="33" type="curve"/>
      <point x="36" y="0" type="line"/>
    </contour>
    <contour>
      <point x="250" y="0" type="line"/>
      <point x="256" y="48" type="line"/>
      <point x="233" y="58"/>
      <point x="192" y="64"/>
      <point x="158" y="67" type="curve"/>
      <point x="157" y="0" type="line"/>
    </contour>
    <contour>
      <point x="438" y="0" type="line"/>
      <point x="452" y="67" type="line"/>
      <point x="427" y="60"/>
      <point x="378" y="45"/>
      <point x="354" y="33" type="curve"/>
      <point x="359" y="0" type="line"/>
    </contour>
    <contour>
      <point x="564" y="0" type="line"/>
      <point x="570" y="48" type="line"/>
      <point x="547" y="58"/>
      <point x="502" y="64"/>
      <point x="468" y="67" type="curve"/>
      <point x="467" y="0" type="line"/>
    </contour>
    <contour>
      <point x="411" y="0" type="line"/>
      <point x="500" y="0" type="line"/>
      <point x="500" y="300" type="line" smooth="yes"/>
      <point x="500" y="370"/>
      <point x="496" y="398"/>
      <point x="486" y="417" type="curve" smooth="yes"/>
      <point x="471" y="445"/>
      <point x="433" y="477"/>
      <point x="395" y="484" type="curve"/>
      <point x="359" y="484"/>
      <point x="266" y="435"/>
      <point x="172" y="370" type="curve"/>
      <point x="190" y="328" type="line"/>
      <point x="238" y="365"/>
      <point x="307" y="404"/>
      <point x="347" y="404" type="curve" smooth="yes"/>
      <point x="381" y="404"/>
      <point x="411" y="377"/>
      <point x="411" y="296" type="curve" smooth="yes"/>
    </contour>
    <contour>
      <point x="291" y="468" type="move" name="top"/>
    </contour>
    <contour>
      <point x="311" y="0" type="move" name="bottom"/>
    </contour>
  </outline>
</glyph>
<glyph name="o" format="1">
  <advance width="491"/>
  <unicode hex="006F"/>
  <outline>
    <contour>
      <point x="20" y="79"/>
      <point x="122" y="-20"/>
      <point x="248" y="-20" type="curve" smooth="yes"/>
      <point x="365" y="-20"/>
      <point x="466" y="64"/>
      <point x="466" y="230" type="curve" smooth="yes"/>
      <point x="466" y="393"/>
      <point x="369" y="488"/>
      <point x="246" y="488" type="curve" smooth="yes"/>
      <point x="125" y="488"/>
      <point x="20" y="396"/>
      <point x="20" y="236" type="curve" smooth="yes"/>
    </contour>
    <contour>
      <point x="289" y="47"/>
      <point x="273" y="45"/>
      <point x="259" y="45" type="curve" smooth="yes"/>
      <point x="158" y="45"/>
      <point x="115" y="142"/>
      <point x="115" y="247" type="curve" smooth="yes"/>
      <point x="115" y="302"/>
      <point x="127" y="362"/>
      <point x="162" y="404" type="curve"/>
      <point x="179" y="416"/>
      <point x="207" y="426"/>
      <point x="238" y="426" type="curve" smooth="yes"/>
      <point x="334" y="426"/>
      <point x="372" y="328"/>
      <point x="372" y="219" type="curve" smooth="yes"/>
      <point x="372" y="166"/>
      <point x="363" y="89"/>
      <point x="307" y="52" type="curve"/>
    </contour>
    <contour>
      <point x="242" y="468" type="move" name="top"/>
    </contour>
  </outline>
</glyph>
<glyph name="p" format="1">
  <advance width="550"/>
  <unicode hex="0070"/>
  <outline>
    <contour>
      <point x="101" y="-204" type="line"/>
      <point x="190" y="-204" type="line"/>
      <point x="190" y="449" type="line"/>
      <point x="151" y="484" type="line"/>
      <point x="101" y="447" type="line"/>
    </contour>
    <contour>
      <point x="119" y="-204" type="line"/>
      <point x="133" y="-137" type="line"/>
      <point x="108" y="-144"/>
      <point x="59" y="-159"/>
      <point x="35" y="-171" type="curve"/>
      <point x="40" y="-204" type="line"/>
    </contour>
    <contour>
      <point x="266" y="-204" type="line"/>
      <point x="272" y="-156" type="line"/>
      <point x="249" y="-146"/>
      <point x="208" y="-140"/>
      <point x="174" y="-137" type="curve"/>
      <point x="173" y="-204" type="line"/>
    </contour>
    <contour>
      <point x="157" y="333" type="line"/>
      <point x="208" y="369"/>
      <point x="260" y="403"/>
      <point x="308" y="403" type="curve" smooth="yes"/>
      <point x="382" y="403"/>
      <point x="431" y="320"/>
      <point x="431" y="230" type="curve" smooth="yes"/>
      <point x="431" y="158"/>
      <point x="400" y="83"/>
      <point x="346" y="50" type="curve"/>
      <point x="255" y="36"/>
      <point x="190" y="73"/>
      <point x="165" y="102" type="curve"/>
      <point x="120" y="13" type="line"/>
      <point x="172" y="-8"/>
      <point x="220" y="-19"/>
      <point x="267" y="-19" type="curve" smooth="yes"/>
      <point x="418" y="-19"/>
      <point x="525" y="96"/>
      <point x="525" y="250" type="curve" smooth="yes"/>
      <point x="525" y="390"/>
      <point x="436" y="509"/>
      <point x="303" y="481" type="curve"/>
      <point x="148" y="380" type="line"/>
    </contour>
    <contour>
      <point x="120" y="413" type="line"/>
      <point x="164" y="459" type="line"/>
      <point x="151" y="484" type="line"/>
      <point x="109" y="483"/>
      <point x="55" y="471"/>
      <point x="15" y="453" type="curve"/>
      <point x="27" y="406" type="line"/>
    </contour>
  </outline>
</glyph>
<glyph name="q" format="1">
  <advance width="528"/>
  <unicode hex="0071"/>
  <outline>
    <contour>
      <point x="491" y="420" type="line"/>
      <point x="474" y="468" type="line"/>
      <point x="364" y="450" type="line"/>
      <point x="352" y="415" type="line"/>
      <point x="352" y="-204" type="line"/>
      <point x="441" y="-204" type="line"/>
      <point x="441" y="388" type="line"/>
    </contour>
    <contour>
      <point x="356" y="-204" type="line"/>
      <point x="356" y="-137" type="line"/>
      <point x="331" y="-144"/>
      <point x="282" y="-159"/>
      <point x="258" y="-171" type="curve"/>
      <point x="263" y="-204" type="line"/>
    </contour>
    <contour>
      <point x="492" y="-204" type="line"/>
      <point x="498" y="-156" type="line"/>
      <point x="475" y="-146"/>
      <point x="434" y="-140"/>
      <point x="400" y="-137" type="curve"/>
      <point x="399" y="-204" type="line"/>
    </contour>
    <contour>
      <point x="408" y="138" type="line"/>
      <point x="346" y="89"/>
      <point x="293" y="67"/>
      <point x="251" y="67" type="curve" smooth="yes"/>
      <point x="168" y="67"/>
      <point x="115" y="144"/>
      <point x="115" y="244" type="curve" smooth="yes"/>
      <point x="115" y="312"/>
      <point x="140" y="379"/>
      <point x="186" y="420" type="curve"/>
      <point x="272" y="439"/>
      <point x="356" y="395"/>
      <point x="389" y="344" type="curve"/>
      <point x="432" y="417" type="line"/>
      <point x="410" y="455"/>
      <point x="350" y="490"/>
      <point x="273" y="490" type="curve" smooth="yes"/>
      <point x="141" y="490"/>
      <point x="20" y="388"/>
      <point x="20" y="233" type="curve" smooth="yes"/>
      <point x="20" y="96"/>
      <point x="115" y="-17"/>
      <point x="250" y="-15" type="curve"/>
      <point x="405" y="89" type="line"/>
    </contour>
  </outline>
</glyph>
<glyph name="s" format="1">
  <advance width="419"/>
  <unicode hex="0073"/>
  <outline>
    <contour>
      <point x="25" y="32" type="line"/>
      <point x="90" y="-4"/>
      <point x="149" y="-20"/>
      <point x="202" y="-20" type="curve" smooth="yes"/>
      <point x="303" y="-20"/>
      <point x="374" y="39"/>
      <point x="374" y="125" type="curve" smooth="yes"/>
      <point x="374" y="286"/>
      <point x="123" y="263"/>
      <point x="123" y="370" type="curve" smooth="yes"/>
      <point x="123" y="388"/>
      <point x="130" y="411"/>
      <point x="155" y="427" type="curve"/>
      <point x="208" y="432"/>
      <point x="281" y="416"/>
      <point x="326" y="378" type="curve"/>
      <point x="357" y="458" type="line"/>
      <point x="320" y="477"/>
      <point x="275" y="488"/>
      <point x="229" y="488" type="curve" smooth="yes"/>
      <point x="131" y="488"/>
      <point x="39" y="439"/>
      <point x="39" y="345" type="curve" smooth="yes"/>
      <point x="39" y="190"/>
      <point x="287" y="217"/>
      <point x="287" y="100" type="curve" smooth="yes"/>
      <point x="287" y="76"/>
      <point x="277" y="57"/>
      <point x="260" y="42" type="curve"/>
      <point x="185" y="52"/>
      <point x="112" y="86"/>
      <point x="62" y="120" type="curve"/>
    </contour>
    <contour>
      <point x="340" y="329" type="line"/>
      <point x="355" y="370"/>
      <point x="359" y="415"/>
      <point x="357" y="458" type="curve"/>
      <point x="275" y="452" type="line"/>
      <point x="286" y="329" type="line"/>
    </contour>
  </outline>
</glyph>
<glyph name="u" format="1">
  <advance width="568"/>
  <unicode hex="0075"/>
  <outline>
    <contour>
      <point x="105" y="413" type="line"/>
      <point x="149" y="459" type="line"/>
      <point x="136" y="484" type="line"/>
      <point x="94" y="483"/>
      <point x="40" y="471"/>
      <point x="0" y="453" type="curve"/>
      <point x="12" y="406" type="line"/>
    </contour>
    <contour>
      <point x="401" y="126" type="line"/>
      <point x="350" y="93"/>
      <point x="290" y="62"/>
      <point x="242" y="62" type="curve" smooth="yes"/>
      <point x="197" y="62"/>
      <point x="176" y="90"/>
      <point x="176" y="160" type="curve" smooth="yes"/>
      <point x="176" y="449" type="line"/>
      <point x="136" y="484" type="line"/>
      <point x="87" y="447" type="line"/>
      <point x="87" y="166" type="line" smooth="yes"/>
      <point x="87" y="97"/>
      <point x="91" y="70"/>
      <point x="104" y="50" type="curve" smooth="yes"/>
      <point x="120" y="25"/>
      <point x="154" y="-6"/>
      <point x="192" y="-15" type="curve"/>
      <point x="238" y="-15"/>
      <point x="345" y="25"/>
      <point x="419" y="83" type="curve"/>
    </contour>
    <contour>
      <point x="400" y="413" type="line"/>
      <point x="444" y="459" type="line"/>
      <point x="431" y="484" type="line"/>
      <point x="389" y="483"/>
      <point x="335" y="471"/>
      <point x="295" y="453" type="curve"/>
      <point x="307" y="406" type="line"/>
    </contour>
    <contour>
      <point x="529" y="71"/>
      <point x="511" y="66"/>
      <point x="497" y="66" type="curve" smooth="yes"/>
      <point x="482" y="66"/>
      <point x="471" y="71"/>
      <point x="471" y="86" type="curve"/>
      <point x="471" y="449" type="line"/>
      <point x="431" y="484" type="line"/>
      <point x="382" y="447" type="line"/>
      <point x="382" y="82" type="line"/>
      <point x="382" y="68" type="line"/>
      <point x="391" y="29"/>
      <point x="435" y="-13"/>
      <point x="457" y="-15" type="curve"/>
      <point x="558" y="31" type="line"/>
      <point x="543" y="75" type="line"/>
    </contour>
    <contour>
      <point x="507" y="12" type="move" name="ogonek"/>
    </contour>
    <contour>
      <point x="256" y="468" type="move" name="top"/>
    </contour>
  </outline>
</glyph>
<glyph name="braceright" format="1">
  <advance width="425"/>
  <unicode hex="007D"/>
  <outline>
    <contour>
      <point x="210" y="-135"/>
      <point x="277" y="-60"/>
      <point x="277" y="10" type="curve" smooth="yes"/>
      <point x="277" y="142" type="line" smooth="yes"/>
      <point x="277" y="223"/>
      <point x="282" y="262"/>
      <point x="352" y="268" type="curve"/>
      <point x="346" y="327" type="line"/>
      <point x="284" y="333"/>
      <point x="277" y="374"/>
      <point x="277" y="443" type="curve" smooth="yes"/>
      <point x="277" y="561" type="line" smooth="yes"/>
      <point x="277" y="640"/>
      <point x="224" y="715"/>
      <point x="95" y="729" type="curve"/>
      <point x="89" y="656" type="line"/>
      <point x="182" y="656" type="line"/>
      <point x="182" y="449" type="line" smooth="yes"/>
      <point x="182" y="398"/>
      <point x="195" y="352"/>
      <point x="232" y="304" type="curve"/>
      <point x="232" y="295" type="line"/>
      <point x="195" y="246"/>
      <point x="182" y="201"/>
      <point x="182" y="149" type="curve" smooth="yes"/>
      <point x="182" y="-60" type="line"/>
      <point x="92" y="-72" type="line"/>
      <point x="102" y="-145" type="line"/>
    </contour>
  </outline>
</glyph>
<glyph name="cent" format="1">
  <advance width="415"/>
  <unicode hex="00A2"/>
  <outline>
    <contour>
      <point x="210" y="454" type="line"/>
      <point x="272" y="454" type="line"/>
      <point x="272" y="605" type="line"/>
      <point x="210" y="605" type="line"/>
    </contour>
    <contour>
      <point x="210" y="-115" type="line"/>
      <point x="272" y="-115" type="line"/>
      <point x="272" y="36" type="line"/>
      <point x="210" y="36" type="line"/>
    </contour>
    <component base="c" yOffset="29" yScale="0.916"/>
  </outline>
</glyph>
<glyph name="section" format="1">
  <advance width="518"/>
  <unicode hex="00A7"/>
  <outline>
    <contour>
      <point x="456" y="531"/>
      <point x="458" y="606"/>
      <point x="455" y="639" type="curve"/>
      <point x="375" y="594" type="line"/>
      <point x="391" y="472" type="line"/>
      <point x="445" y="470" type="line"/>
    </contour>
    <contour>
      <point x="383" y="102" type="line"/>
      <point x="446" y="144"/>
      <point x="478" y="181"/>
      <point x="478" y="236" type="curve" smooth="yes"/>
      <point x="478" y="338"/>
      <point x="367" y="378"/>
      <point x="296" y="404" type="curve" smooth="yes"/>
      <point x="206" y="437"/>
      <point x="151" y="455"/>
      <point x="151" y="510" type="curve" smooth="yes"/>
      <point x="151" y="539"/>
      <point x="166" y="572"/>
      <point x="190" y="594" type="curve"/>
      <point x="287" y="619"/>
      <point x="367" y="593"/>
      <point x="415" y="543" type="curve"/>
      <point x="455" y="639" type="line"/>
      <point x="415" y="652"/>
      <point x="354" y="670"/>
      <point x="290" y="670" type="curve" smooth="yes"/>
      <point x="172" y="670"/>
      <point x="66" y="607"/>
      <point x="66" y="504" type="curve" smooth="yes"/>
      <point x="66" y="416"/>
      <point x="142" y="373"/>
      <point x="240" y="337" type="curve" smooth="yes"/>
      <point x="323" y="307"/>
      <point x="397" y="289"/>
      <point x="397" y="218" type="curve" smooth="yes"/>
      <point x="397" y="187"/>
      <point x="382" y="170"/>
      <point x="350" y="141" type="curve"/>
    </contour>
    <contour>
      <point x="146" y="414" type="line"/>
      <point x="104" y="386"/>
      <point x="57" y="340"/>
      <point x="57" y="274" type="curve" smooth="yes"/>
      <point x="57" y="187"/>
      <point x="140" y="146"/>
      <point x="223" y="115" type="curve" smooth="yes"/>
      <point x="309" y="83"/>
      <point x="390" y="67"/>
      <point x="390" y="2" type="curve" smooth="yes"/>
      <point x="390" y="-18"/>
      <point x="382" y="-40"/>
      <point x="363" y="-61" type="curve"/>
      <point x="295" y="-82"/>
      <point x="185" y="-52"/>
      <point x="107" y="-3" type="curve"/>
      <point x="70" y="-88" type="line"/>
      <point x="128" y="-130"/>
      <point x="216" y="-147"/>
      <point x="270" y="-147" type="curve" smooth="yes"/>
      <point x="376" y="-147"/>
      <point x="468" y="-81"/>
      <point x="468" y="16" type="curve" smooth="yes"/>
      <point x="468" y="98"/>
      <point x="404" y="139"/>
      <point x="276" y="185" type="curve" smooth="yes"/>
      <point x="186" y="217"/>
      <point x="133" y="237"/>
      <point x="133" y="290" type="curve" smooth="yes"/>
      <point x="133" y="320"/>
      <point x="150" y="348"/>
      <point x="178" y="370" type="curve"/>
    </contour>
  </outline>
</glyph>
<glyph name="ordfeminine" format="1">
  <advance width="404"/>
  <unicode hex="00AA"/>
  <outline>
    <contour>
      <point x="61" y="418"/>
      <point x="52" y="392"/>
      <point x="52" y="370" type="curve" smooth="yes"/>
      <point x="52" y="326"/>
      <point x="88" y="287"/>
      <point x="160" y="290" type="curve"/>
      <point x="241" y="341" type="line"/>
      <point x="240" y="369" type="line"/>
      <point x="220" y="359"/>
      <point x="168" y="340"/>
      <point x="131" y="340" type="curve"/>
      <point x="123" y="347"/>
      <point x="118" y="355"/>
      <point x="118" y="368" type="curve" smooth="yes"/>
      <point x="118" y="416"/>
      <point x="190" y="412"/>
      <point x="232" y="409" type="curve" smooth="yes"/>
      <point x="244" y="408" type="line"/>
      <point x="247" y="447" type="line"/>
      <point x="92" y="442" type="line"/>
    </contour>
    <contour>
      <point x="62" y="551"/>
      <point x="68" y="517"/>
      <point x="77" y="493" type="curve"/>
      <point x="119" y="498" type="line"/>
      <point x="123" y="570" type="line"/>
      <point x="139" y="575"/>
      <point x="164" y="578"/>
      <point x="197" y="579" type="curve"/>
      <point x="220" y="567"/>
      <point x="230" y="543"/>
      <point x="230" y="508" type="curve" smooth="yes"/>
      <point x="230" y="354" type="line"/>
      <point x="232" y="346" type="line"/>
      <point x="239" y="318"/>
      <point x="269" y="291"/>
      <point x="286" y="290" type="curve"/>
      <point x="357" y="324" type="line"/>
      <point x="348" y="353" type="line"/>
      <point x="338" y="351"/>
      <point x="327" y="348"/>
      <point x="317" y="348" type="curve" smooth="yes"/>
      <point x="307" y="348"/>
      <point x="300" y="352"/>
      <point x="300" y="362" type="curve"/>
      <point x="300" y="499" type="line" smooth="yes"/>
      <point x="300" y="545"/>
      <point x="299" y="554"/>
      <point x="293" y="567" type="curve" smooth="yes"/>
      <point x="281" y="591"/>
      <point x="249" y="626"/>
      <point x="212" y="626" type="curve" smooth="yes"/>
      <point x="182" y="626"/>
      <point x="90" y="603"/>
      <point x="62" y="574" type="curve"/>
    </contour>
    <contour>
      <point x="30" y="255" type="line"/>
      <point x="30" y="204" type="line"/>
      <point x="374" y="204" type="line"/>
      <point x="374" y="255" type="line"/>
    </contour>
  </outline>
</glyph>
<glyph name="guillemetleft" format="1">
  <advance width="506"/>
  <unicode hex="00AB"/>
  <outline>
    <contour>
      <point x="60" y="233" type="line"/>
      <point x="200" y="46" type="line"/>
      <point x="255" y="81" type="line"/>
      <point x="159" y="253" type="line"/>
      <point x="250" y="433" type="line"/>
      <point x="194" y="463" type="line"/>
      <point x="60" y="273" type="line"/>
    </contour>
    <contour>
      <point x="251" y="233" type="line"/>
      <point x="391" y="46" type="line"/>
      <point x="446" y="81" type="line"/>
      <point x="350" y="253" type="line"/>
      <point x="441" y="433" type="line"/>
      <point x="385" y="463" type="line"/>
      <point x="251" y="273" type="line"/>
    </contour>
  </outline>
</glyph>
<glyph name="softhyphen" format="1">
  <advance width="353"/>
  <unicode hex="00AD"/>
  <outline>
    <contour>
      <point x="314" y="249" type="line"/>
      <point x="323" y="269" type="line"/>
      <point x="293" y="319" type="line"/>
      <point x="39" y="319" type="line"/>
      <point x="30" y="299" type="line"/>
      <point x="60" y="249" type="line"/>
    </contour>
  </outline>
</glyph>
<glyph name="micro" format="1">
  <advance width="541"/>
  <unicode hex="00B5"/>
  <outline>
    <contour>
      <point x="502" y="71"/>
      <point x="484" y="66"/>
      <point x="470" y="66" type="curve" smooth="yes"/>
      <point x="455" y="66"/>
      <point x="444" y="71"/>
      <point x="444" y="86" type="curve"/>
      <point x="444" y="488" type="line"/>
      <point x="404" y="488"/>
      <point x="368" y="475"/>
      <point x="355" y="468" type="curve"/>
      <point x="355" y="82" type="line"/>
      <point x="355" y="68" type="line"/>
      <point x="364" y="29"/>
      <point x="408" y="-13"/>
      <point x="430" y="-15" type="curve"/>
      <point x="531" y="31" type="line"/>
      <point x="516" y="75" type="line"/>
    </contour>
    <contour>
      <point x="60" y="-225" type="line"/>
      <point x="103" y="-228"/>
      <point x="136" y="-222"/>
      <point x="159" y="-206" type="curve"/>
      <point x="112" y="33" type="line"/>
      <point x="126" y="7"/>
      <point x="153" y="-15"/>
      <point x="165" y="-15" type="curve"/>
      <point x="201" y="-15"/>
      <point x="308" y="18"/>
      <point x="402" y="83" type="curve"/>
      <point x="384" y="126" type="line"/>
      <point x="341" y="100"/>
      <point x="274" y="63"/>
      <point x="223" y="63" type="curve" smooth="yes"/>
      <point x="181" y="63"/>
      <point x="149" y="87"/>
      <point x="149" y="160" type="curve" smooth="yes"/>
      <point x="149" y="488" type="line"/>
      <point x="109" y="488"/>
      <point x="73" y="475"/>
      <point x="60" y="468" type="curve"/>
    </contour>
    <contour>
      <point x="78" y="23" type="line"/>
      <point x="154" y="23" type="line"/>
      <point x="154" y="67" type="line"/>
      <point x="78" y="67" type="line"/>
    </contour>
  </outline>
</glyph>
<glyph name="onesuperior" format="1">
  <advance width="231"/>
  <unicode hex="00B9"/>
  <outline>
    <contour>
      <point x="107" y="693" type="line"/>
      <point x="119" y="734" type="line"/>
      <point x="111" y="751" type="line"/>
      <point x="0" y="682" type="line"/>
      <point x="15" y="654" type="line"/>
    </contour>
    <contour>
      <point x="142" y="731" type="line"/>
      <point x="111" y="751" type="line"/>
      <point x="99" y="717" type="line"/>
    </contour>
    <contour>
      <point x="79" y="426" type="line"/>
      <point x="142" y="426" type="line"/>
      <point x="142" y="731" type="line"/>
      <point x="79" y="724" type="line"/>
    </contour>
    <contour>
      <point x="90" y="426" type="line"/>
      <point x="94" y="469" type="line"/>
      <point x="68" y="463"/>
      <point x="38" y="453"/>
      <point x="17" y="442" type="curve"/>
      <point x="20" y="426" type="line"/>
    </contour>
    <contour>
      <point x="199" y="426" type="line"/>
      <point x="201" y="451" type="line"/>
      <point x="133" y="462" type="line"/>
      <point x="132" y="426" type="line"/>
    </contour>
  </outline>
</glyph>
<glyph name="guillemetright" format="1">
  <advance width="506"/>
  <unicode hex="00BB"/>
  <outline>
    <contour>
      <point x="446" y="273" type="line"/>
      <point x="312" y="463" type="line"/>
      <point x="256" y="433" type="line"/>
      <point x="347" y="253" type="line"/>
      <point x="251" y="81" type="line"/>
      <point x="306" y="46" type="line"/>
      <point x="446" y="233" type="line"/>
    </contour>
    <contour>
      <point x="255" y="273" type="line"/>
      <point x="121" y="463" type="line"/>
      <point x="65" y="433" type="line"/>
      <point x="156" y="253" type="line"/>
      <point x="60" y="81" type="line"/>
      <point x="115" y="46" type="line"/>
      <point x="255" y="233" type="line"/>
    </contour>
  </outline>
</glyph>
<glyph name="Thorn" format="1">
  <advance width="591"/>
  <unicode hex="00DE"/>
  <outline>
    <contour>
      <point x="39" y="650" type="line"/>
      <point x="38" y="603" type="line"/>
      <point x="176" y="587" type="line"/>
      <point x="179" y="650" type="line"/>
    </contour>
    <contour>
      <point x="206" y="650" type="line"/>
      <point x="207" y="580" type="line"/>
      <point x="207" y="580"/>
      <point x="279" y="601"/>
      <point x="306" y="615" type="curve"/>
      <point x="300" y="650" type="line"/>
    </contour>
    <contour>
      <point x="213" y="0" type="line"/>
      <point x="213" y="650" type="line"/>
      <point x="120" y="650" type="line"/>
      <point x="120" y="0" type="line"/>
    </contour>
    <contour>
      <point x="130" y="0" type="line"/>
      <point x="129" y="70" type="line"/>
      <point x="129" y="70"/>
      <point x="57" y="49"/>
      <point x="30" y="35" type="curve"/>
      <point x="36" y="0" type="line"/>
    </contour>
    <contour>
      <point x="309" y="0" type="line"/>
      <point x="310" y="47" type="line"/>
      <point x="172" y="63" type="line"/>
      <point x="169" y="0" type="line"/>
    </contour>
    <contour>
      <point x="465" y="155"/>
      <point x="549" y="240"/>
      <point x="549" y="335" type="curve" smooth="yes"/>
      <point x="549" y="421"/>
      <point x="479" y="517"/>
      <point x="320" y="517" type="curve" smooth="yes"/>
      <point x="184" y="517" type="line"/>
      <point x="189" y="432" type="line"/>
      <point x="368" y="463" type="line"/>
      <point x="422" y="436"/>
      <point x="448" y="390"/>
      <point x="448" y="339" type="curve" smooth="yes"/>
      <point x="448" y="276"/>
      <point x="407" y="219"/>
      <point x="273" y="219" type="curve" smooth="yes"/>
      <point x="226" y="219"/>
      <point x="199" y="226"/>
      <point x="165" y="229" type="curve"/>
      <point x="162" y="155" type="line"/>
      <point x="300" y="155" type="line" smooth="yes"/>
    </contour>
  </outline>
</glyph>
<glyph name="eth" format="1">
  <advance width="491"/>
  <unicode hex="00F0"/>
  <outline>
    <contour>
      <point x="190" y="722" type="line"/>
      <point x="279" y="619"/>
      <point x="316" y="550"/>
      <point x="356" y="434" type="curve"/>
      <point x="378" y="417" type="line"/>
      <point x="340" y="458"/>
      <point x="307" y="483"/>
      <point x="246" y="483" type="curve" smooth="yes"/>
      <point x="117" y="483"/>
      <point x="20" y="372"/>
      <point x="20" y="230" type="curve" smooth="yes"/>
      <point x="20" y="89"/>
      <point x="116" y="-24"/>
      <point x="245" y="-24" type="curve" smooth="yes"/>
      <point x="369" y="-24"/>
      <point x="465" y="82"/>
      <point x="465" y="261" type="curve" smooth="yes"/>
      <point x="465" y="390"/>
      <point x="415" y="588"/>
      <point x="258" y="761" type="curve"/>
    </contour>
    <contour>
      <point x="167" y="33"/>
      <point x="107" y="135"/>
      <point x="107" y="233" type="curve" smooth="yes"/>
      <point x="107" y="307"/>
      <point x="141" y="387"/>
      <point x="194" y="419" type="curve"/>
      <point x="271" y="420"/>
      <point x="329" y="385"/>
      <point x="394" y="320" type="curve"/>
      <point x="350" y="414" type="line"/>
      <point x="394" y="271"/>
      <point x="380" y="119"/>
      <point x="299" y="48" type="curve"/>
    </contour>
    <contour>
      <point x="449" y="681" type="line"/>
      <point x="418" y="737" type="line"/>
      <point x="143" y="589" type="line"/>
      <point x="155" y="563" type="line"/>
      <point x="196" y="545" type="line"/>
    </contour>
  </outline>
</glyph>
<glyph name="divide" format="1">
  <advance width="602"/>
  <unicode hex="00F7"/>
  <outline>
    <contour>
      <point x="60" y="264" type="line"/>
      <point x="60" y="198" type="line"/>
      <point x="542" y="198" type="line"/>
      <point x="542" y="264" type="line"/>
    </contour>
    <contour>
      <point x="370" y="48"/>
      <point x="367" y="91"/>
      <point x="300" y="117" type="curve"/>
      <point x="300" y="117"/>
      <point x="245" y="94"/>
      <point x="239" y="38" type="curve"/>
      <point x="239" y="38"/>
      <point x="254" y="-10"/>
      <point x="312" y="-21" type="curve"/>
      <point x="361" y="0"/>
      <point x="370" y="48"/>
      <point x="370" y="48" type="curve"/>
    </contour>
    <contour>
      <point x="371" y="412"/>
      <point x="368" y="455"/>
      <point x="301" y="481" type="curve"/>
      <point x="301" y="481"/>
      <point x="246" y="458"/>
      <point x="240" y="402" type="curve"/>
      <point x="240" y="402"/>
      <point x="255" y="354"/>
      <point x="313" y="343" type="curve"/>
      <point x="362" y="365"/>
      <point x="371" y="412"/>
      <point x="371" y="412" type="curve"/>
    </contour>
  </outline>
</glyph>
<glyph name="dcroat" format="1">
  <advance width="545"/>
  <unicode hex="0111"/>
  <outline>
    <contour>
      <point x="545" y="573" type="line"/>
      <point x="539" y="602" type="line"/>
      <point x="266" y="602" type="line"/>
      <point x="223" y="577" type="line"/>
      <point x="229" y="548" type="line"/>
      <point x="502" y="548" type="line"/>
    </contour>
    <component base="d"/>
  </outline>
</glyph>
<glyph name="Imacron" format="1">
  <advance width="361"/>
  <unicode hex="012A"/>
  <outline>
    <contour>
      <point x="112" y="784"/>
      <point x="69" y="779"/>
      <point x="30" y="759" type="curve"/>
      <point x="36" y="715" type="line"/>
      <point x="284" y="715" type="line"/>
      <point x="331" y="749" type="line"/>
      <point x="326" y="784" type="line"/>
      <point x="143" y="784" type="line"/>
    </contour>
    <component base="I" xOffset="13"/>
  </outline>
</glyph>
<glyph name="imacron" format="1">
  <advance width="316"/>
  <unicode hex="012B"/>
  <outline>
    <contour>
      <point x="97" y="651"/>
      <point x="54" y="646"/>
      <point x="15" y="626" type="curve"/>
      <point x="21" y="582" type="line"/>
      <point x="249" y="582" type="line"/>
      <point x="296" y="616" type="line"/>
      <point x="291" y="651" type="line"/>
      <point x="128" y="651" type="line"/>
    </contour>
    <component base="dotlessi" xOffset="26"/>
  </outline>
</glyph>
<glyph name="oe" format="1">
  <advance width="797"/>
  <unicode hex="0153"/>
  <outline>
    <contour>
      <point x="289" y="47"/>
      <point x="273" y="45"/>
      <point x="259" y="45" type="curve" smooth="yes"/>
      <point x="158" y="45"/>
      <point x="115" y="142"/>
      <point x="115" y="247" type="curve" smooth="yes"/>
      <point x="115" y="302"/>
      <point x="127" y="362"/>
      <point x="162" y="404" type="curve"/>
      <point x="179" y="416"/>
      <point x="207" y="426"/>
      <point x="238" y="426" type="curve" smooth="yes"/>
      <point x="334" y="426"/>
      <point x="373" y="328"/>
      <point x="373" y="220" type="curve" smooth="yes"/>
      <point x="373" y="166"/>
      <point x="363" y="89"/>
      <point x="307" y="52" type="curve"/>
    </contour>
    <contour>
      <point x="433" y="376" type="line"/>
      <point x="394" y="448"/>
      <point x="325" y="488"/>
      <point x="246" y="488" type="curve" smooth="yes"/>
      <point x="125" y="488"/>
      <point x="20" y="396"/>
      <point x="20" y="236" type="curve" smooth="yes"/>
      <point x="20" y="79"/>
      <point x="122" y="-20"/>
      <point x="248" y="-20" type="curve" smooth="yes"/>
      <point x="324" y="-20"/>
      <point x="393" y="16"/>
      <point x="433" y="86" type="curve"/>
    </contour>
    <contour>
      <point x="392" y="119" type="line"/>
      <point x="428" y="47"/>
      <point x="491" y="-15"/>
      <point x="611" y="-15" type="curve"/>
      <point x="767" y="51" type="line"/>
      <point x="752" y="94" type="line"/>
      <point x="707" y="74"/>
      <point x="665" y="61"/>
      <point x="623" y="61" type="curve" smooth="yes"/>
      <point x="532" y="61"/>
      <point x="457" y="119"/>
      <point x="457" y="241" type="curve" smooth="yes"/>
      <point x="457" y="313"/>
      <point x="483" y="394"/>
      <point x="545" y="427" type="curve"/>
      <point x="633" y="433"/>
      <point x="699" y="366"/>
      <point x="689" y="278" type="curve"/>
      <point x="774" y="313" type="line"/>
      <point x="776" y="414"/>
      <point x="699" y="488"/>
      <point x="595" y="488" type="curve" smooth="yes"/>
      <point x="502" y="488"/>
      <point x="429" y="428"/>
      <point x="392" y="348" type="curve"/>
    </contour>
    <contour>
      <point x="452" y="262" type="line"/>
      <point x="717" y="257" type="line"/>
      <point x="774" y="313" type="line"/>
      <point x="763" y="328" type="line"/>
      <point x="452" y="314" type="line"/>
    </contour>
    <contour>
      <point x="777" y="51" type="move" name="ogonek"/>
    </contour>
    <contour>
      <point x="598" y="0" type="move" name="bottom"/>
    </contour>
    <contour>
      <point x="598" y="468" type="move" name="top"/>
    </contour>
  </outline>
</glyph>
<glyph name="gravecomb" format="1">
  <advance width="0"/>
  <unicode hex="0300"/>
  <outline>
    <contour>
      <point x="86" y="574" type="line"/>
      <point x="-56" y="734" type="line"/>
      <point x="-129" y="674" type="line"/>
      <point x="-69" y="625"/>
      <point x="-22" y="584"/>
      <point x="34" y="531" type="curve"/>
    </contour>
    <contour>
      <point x="0" y="468" type="move" name="_top"/>
    </contour>
  </outline>
</glyph>
<glyph name="acutecomb" format="1">
  <advance width="0"/>
  <unicode hex="0301"/>
  <outline>
    <contour>
      <point x="25" y="583"/>
      <point x="72" y="624"/>
      <point x="132" y="674" type="curve"/>
      <point x="59" y="734" type="line"/>
      <point x="-83" y="574" type="line"/>
      <point x="-31" y="531" type="line"/>
    </contour>
    <contour>
      <point x="0" y="468" type="move" name="_top"/>
    </contour>
  </outline>
</glyph>
<glyph name="tildecomb" format="1">
  <advance width="0"/>
  <unicode hex="0303"/>
  <outline>
    <contour>
      <point x="-144" y="554" type="line"/>
      <point x="-97" y="607"/>
      <point x="-73" y="626"/>
      <point x="-60" y="626" type="curve" smooth="yes"/>
      <point x="-32" y="626"/>
      <point x="51" y="544"/>
      <point x="90" y="544" type="curve" smooth="yes"/>
      <point x="122" y="544"/>
      <point x="157" y="599"/>
      <point x="197" y="668" type="curve"/>
      <point x="162" y="694" type="line"/>
      <point x="88" y="617" type="line"/>
      <point x="30" y="659"/>
      <point x="-34" y="704"/>
      <point x="-57" y="704" type="curve"/>
      <point x="-94" y="704"/>
      <point x="-130" y="660"/>
      <point x="-180" y="583" type="curve"/>
    </contour>
    <contour>
      <point x="0" y="468" type="move" name="_top"/>
    </contour>
  </outline>
</glyph>
<glyph name="dotaccentcomb" format="1">
  <advance width="0"/>
  <unicode hex="0307"/>
  <outline>
    <contour>
      <point x="56" y="638"/>
      <point x="26" y="666"/>
      <point x="-5" y="677" type="curve"/>
      <point x="-33" y="663"/>
      <point x="-56" y="638"/>
      <point x="-60" y="604" type="curve"/>
      <point x="-48" y="575"/>
      <point x="-26" y="558"/>
      <point x="6" y="551" type="curve"/>
      <point x="33" y="564"/>
      <point x="51" y="585"/>
      <point x="58" y="614" type="curve"/>
    </contour>
    <contour>
      <point x="0" y="468" type="move" name="_top"/>
    </contour>
  </outline>
</glyph>
<glyph name="dieresiscomb" format="1">
  <advance width="0"/>
  <unicode hex="0308"/>
  <outline>
    <contour>
      <point x="-48" y="644"/>
      <point x="-74" y="666"/>
      <point x="-105" y="677" type="curve"/>
      <point x="-133" y="663"/>
      <point x="-157" y="638"/>
      <point x="-160" y="604" type="curve"/>
      <point x="-148" y="576"/>
      <point x="-127" y="559"/>
      <point x="-95" y="551" type="curve"/>
      <point x="-67" y="563"/>
      <point x="-50" y="584"/>
      <point x="-42" y="614" type="curve"/>
    </contour>
    <contour>
      <point x="155" y="644"/>
      <point x="129" y="666"/>
      <point x="98" y="677" type="curve"/>
      <point x="70" y="663"/>
      <point x="46" y="638"/>
      <point x="43" y="604" type="curve"/>
      <point x="55" y="576"/>
      <point x="76" y="559"/>
      <point x="108" y="551" type="curve"/>
      <point x="136" y="563"/>
      <point x="153" y="584"/>
      <point x="161" y="614" type="curve"/>
    </contour>
    <contour>
      <point x="0" y="468" type="move" name="_top"/>
    </contour>
  </outline>
</glyph>
<glyph name="ringcomb" format="1">
  <advance width="0"/>
  <unicode hex="030A"/>
  <outline>
    <contour>
      <point x="-108" y="754"/>
      <point x="-57" y="711"/>
      <point x="4" y="711" type="curve" smooth="yes"/>
      <point x="65" y="711"/>
      <point x="109" y="755"/>
      <point x="109" y="817" type="curve" smooth="yes"/>
      <point x="109" y="881"/>
      <point x="61" y="928"/>
      <point x="0" y="928" type="curve" smooth="yes"/>
      <point x="-62" y="928"/>
      <point x="-108" y="880"/>
      <point x="-108" y="819" type="curve" smooth="yes"/>
    </contour>
    <contour>
      <point x="-57" y="842"/>
      <point x="-32" y="867"/>
      <point x="1" y="867" type="curve" smooth="yes"/>
      <point x="33" y="867"/>
      <point x="58" y="842"/>
      <point x="58" y="808" type="curve" smooth="yes"/>
      <point x="58" y="775"/>
      <point x="35" y="752"/>
      <point x="2" y="752" type="curve" smooth="yes"/>
      <point x="-30" y="752"/>
      <point x="-57" y="775"/>
      <point x="-57" y="809" type="curve" smooth="yes"/>
    </contour>
    <contour>
      <point x="0" y="650" type="move" name="_top"/>
    </contour>
  </outline>
</glyph>
<glyph name="caroncomb" format="1">
  <advance width="0"/>
  <unicode hex="030C"/>
  <outline>
    <contour>
      <point x="-178" y="685" type="line"/>
      <point x="-44" y="541" type="line"/>
      <point x="37" y="543" type="line"/>
      <point x="156" y="701" type="line"/>
      <point x="105" y="743" type="line"/>
      <point x="-1" y="607" type="line"/>
      <point x="-115" y="742" type="line"/>
    </contour>
    <contour>
      <point x="0" y="468" type="move" name="_top"/>
    </contour>
  </outline>
</glyph>
<glyph name="dotbelowcomb" format="1">
  <advance width="0"/>
  <unicode hex="0323"/>
  <outline>
    <contour>
      <point x="56" y="-138"/>
      <point x="26" y="-110"/>
      <point x="-5" y="-99" type="curve"/>
      <point x="-33" y="-113"/>
      <point x="-56" y="-138"/>
      <point x="-60" y="-172" type="curve"/>
      <point x="-48" y="-201"/>
      <point x="-26" y="-218"/>
      <point x="6" y="-225" type="curve"/>
      <point x="33" y="-212"/>
      <point x="51" y="-191"/>
      <point x="58" y="-162" type="curve"/>
    </contour>
    <contour>
      <point x="0" y="0" type="move" name="_bottom"/>
    </contour>
  </outline>
</glyph>
<glyph name="commaaccentcomb" format="1">
  <advance width="0"/>
  <unicode hex="0326"/>
  <outline>
    <contour>
      <point x="-59" y="-124" type="line"/>
      <point x="-20" y="-152"/>
      <point x="-30" y="-189"/>
      <point x="-68" y="-239" type="curve"/>
      <point x="-26" y="-264" type="line"/>
      <point x="19" y="-215"/>
      <point x="83" y="-108"/>
      <point x="1" y="-59" type="curve"/>
      <point x="-61" y="-99" type="line"/>
    </contour>
    <contour>
      <point x="0" y="0" type="move" name="_bottom"/>
    </contour>
  </outline>
</glyph>
<glyph name="cedillacomb" format="1">
  <advance width="0"/>
  <unicode hex="0327"/>
  <outline>
    <contour>
      <point x="37" y="6" type="line"/>
      <point x="-12" y="6" type="line"/>
      <point x="-75" y="-66" type="line"/>
      <point x="-48" y="-105" type="line"/>
      <point x="66" y="-96"/>
      <point x="55" y="-190"/>
      <point x="-79" y="-231" type="curve"/>
      <point x="-66" y="-265" type="line"/>
      <point x="40" y="-243"/>
      <point x="100" y="-208"/>
      <point x="110" y="-157" type="curve" smooth="yes"/>
      <point x="119" y="-113"/>
      <point x="84" y="-59"/>
      <point x="-5" y="-59" type="curve"/>
    </contour>
    <contour>
      <point x="0" y="0" type="move" name="_bottom"/>
    </contour>
  </outline>
</glyph>
<glyph name="dvVisarga" format="1">
  <advance width="214"/>
  <unicode hex="0903"/>
  <outline>
    <contour>
      <point x="128" y="341"/>
      <point x="150" y="369"/>
      <point x="159" y="393" type="curve"/>
      <point x="146" y="410"/>
      <point x="118" y="436"/>
      <point x="94" y="445" type="curve"/>
      <point x="74" y="433"/>
      <point x="53" y="405"/>
      <point x="40" y="379" type="curve"/>
      <point x="54" y="359"/>
      <point x="86" y="335"/>
      <point x="107" y="327" type="curve"/>
    </contour>
    <contour>
      <point x="128" y="91"/>
      <point x="150" y="119"/>
      <point x="159" y="143" type="curve"/>
      <point x="146" y="160"/>
      <point x="118" y="186"/>
      <point x="94" y="195" type="curve"/>
      <point x="74" y="183"/>
      <point x="53" y="155"/>
      <point x="40" y="129" type="curve"/>
      <point x="54" y="109"/>
      <point x="86" y="85"/>
      <point x="107" y="77" type="curve"/>
    </contour>
  </outline>
</glyph>
<glyph name="uni0904" format="1">
  <advance width="742"/>
  <unicode hex="0904"/>
  <outline>
    <component base="uni0905"/>
    <component base="uni0946" xOffset="739"/>
    <contour>
      <point x="700" y="610" type="move" name="bindu"/>
    </contour>
  </outline>
</glyph>
<glyph name="dvAa" format="1">
  <advance width="1005"/>
  <unicode hex="0906"/>
  <outline>
    <component base="dvA"/>
    <component base="dvMatraAa" xOffset="742"/>
    <contour>
      <point x="750" y="630" type="move" name="bindu"/>
    </contour>
    <contour>
      <point x="745" y="630" type="move" name="candrabindu"/>
    </contour>
  </outline>
</glyph>
<glyph name="uni090E" format="1">
  <advance width="555"/>
  <unicode hex="090E"/>
  <outline>
    <component base="uni090F"/>
    <component base="uni0946" xOffset="529"/>
    <contour>
      <point x="500" y="610" type="move" name="bindu"/>
    </contour>
  </outline>
</glyph>
<glyph name="uni0910" format="1">
  <advance width="555"/>
  <unicode hex="0910"/>
  <outline>
    <component base="uni090F"/>
    <component base="uni0947" xOffset="564"/>
    <contour>
      <point x="490" y="610" type="move" name="bindu"/>
    </contour>
  </outline>
</glyph>
<glyph name="dvShortO" format="1">
  <advance width="1005"/>
  <unicode hex="0912"/>
  <outline>
    <component base="dvA"/>
    <component base="dvMatraShortO" xOffset="742"/>
    <contour>
      <point x="965" y="610" type="move" name="bindu"/>
    </contour>
    <contour>
      <point x="880" y="465" type="move" name="top"/>
    </contour>
  </outline>
</glyph>
<glyph name="uni0912" format="1">
  <advance width="1005"/>
  <unicode hex="0912"/>
  <outline>
    <component base="uni0905"/>
    <component base="uni094A" xOffset="742"/>
    <contour>
      <point x="965" y="610" type="move" name="bindu"/>
    </contour>
    <contour>
      <point x="880" y="465" type="move" name="top"/>
    </contour>
  </outline>
</glyph>
<glyph name="dvAu" format="1">
  <advance width="1005"/>
  <unicode hex="0914"/>
  <outline>
    <component base="dvA"/>
    <component base="dvMatraAu" xOffset="742"/>
    <contour>
      <point x="949" y="610" type="move" name="bindu"/>
    </contour>
  </outline>
</glyph>
<glyph name="uni0914" format="1">
  <advance width="1005"/>
  <unicode hex="0914"/>
  <outline>
    <component base="uni0905"/>
    <component base="uni094C" xOffset="742"/>
    <contour>
      <point x="949" y="610" type="move" name="bindu"/>
    </contour>
  </outline>
</glyph>
<glyph name="dvNnna" format="1">
  <advance width="548"/>
  <unicode hex="0929"/>
  <outline>
    <component base="dvNa"/>
    <component base="dvNukta" xOffset="214" yOffset="155"/>
    <contour>
      <point x="398" y="630" type="move" name="candrabindu"/>
    </contour>
    <contour>
      <point x="568" y="630" type="move" name="candrabinduCXT"/>
    </contour>
    <contour>
      <point x="413" y="630" type="move" name="bindu"/>
    </contour>
    <contour>
      <point x="413" y="468" type="move" name="top"/>
    </contour>
    <contour>
      <point x="363" y="5" type="move" name="bottom"/>
    </contour>
  </outline>
</glyph>
<glyph name="dvRra" format="1">
  <advance width="392"/>
  <unicode hex="0931"/>
  <outline>
    <component base="dvRa"/>
    <component base="dvNukta" xOffset="129" yOffset="110"/>
    <contour>
      <point x="232" y="630" type="move" name="candrabindu"/>
    </contour>
    <contour>
      <point x="372" y="630" type="move" name="candrabinduCXT"/>
    </contour>
    <contour>
      <point x="226" y="630" type="move" name="bindu"/>
    </contour>
    <contour>
      <point x="232" y="468" type="move" name="top"/>
    </contour>
    <contour>
      <point x="245" y="-78" type="move" name="bottom"/>
    </contour>
  </outline>
</glyph>
<glyph name="dvLlla" format="1">
  <advance width="718"/>
  <unicode hex="0934"/>
  <outline>
    <component base="dvLla"/>
    <component base="dvNukta" xOffset="366" yOffset="93"/>
    <contour>
      <point x="495" y="630" type="move" name="candrabindu"/>
    </contour>
    <contour>
      <point x="678" y="630" type="move" name="candrabinduCXT"/>
    </contour>
    <contour>
      <point x="503" y="630" type="move" name="bindu"/>
    </contour>
    <contour>
      <point x="513" y="468" type="move" name="top"/>
    </contour>
    <contour>
      <point x="443" y="-125" type="move" name="bottom"/>
    </contour>
  </outline>
</glyph>
<glyph name="uni093B" format="1">
  <advance width="263"/>
  <unicode hex="093B"/>
  <outline>
    <contour>
      <point x="95" y="775" type="line"/>
      <point x="95" y="575" type="line"/>
      <point x="129" y="553" type="line"/>
      <point x="153" y="560" type="line"/>
      <point x="153" y="775" type="line"/>
    </contour>
    <component base="uni093E"/>
  </outline>
</glyph>
<glyph name="uni094A" format="1">
  <advance width="263"/>
  <unicode hex="094A"/>
  <outline>
    <component base="uni093E"/>
    <component base="uni0946" xOffset="273"/>
    <contour>
      <point x="234" y="610" type="move" name="bindu"/>
    </contour>
  </outline>
</glyph>
<glyph name="dvKhha" format="1">
  <advance width="782"/>
  <unicode hex="0959"/>
  <outline>
    <component base="dvKha"/>
    <component base="dvNukta" xOffset="183" yOffset="103"/>
    <contour>
      <point x="492" y="630" type="move" name="candrabindu"/>
    </contour>
    <contour>
      <point x="802" y="630" type="move" name="candrabinduCXT"/>
    </contour>
    <contour>
      <point x="474" y="630" type="move" name="bindu"/>
    </contour>
    <contour>
      <point x="647" y="468" type="move" name="top"/>
    </contour>
    <contour>
      <point x="597" y="-40" type="move" name="bottom"/>
    </contour>
  </outline>
</glyph>
<glyph name="dvZa" format="1">
  <advance width="667"/>
  <unicode hex="095B"/>
  <outline>
    <component base="dvJa"/>
    <component base="dvNukta" xOffset="308" yOffset="102"/>
    <contour>
      <point x="517" y="630" type="move" name="candrabindu"/>
    </contour>
    <contour>
      <point x="687" y="630" type="move" name="candrabinduCXT"/>
    </contour>
    <contour>
      <point x="532" y="630" type="move" name="bindu"/>
    </contour>
    <contour>
      <point x="532" y="468" type="move" name="top"/>
    </contour>
    <contour>
      <point x="458" y="-82" type="move" name="bottom"/>
    </contour>
  </outline>
</glyph>
<glyph name="uni095B" format="1">
  <advance width="667"/>
  <unicode hex="095B"/>
  <outline>
    <component base="uni091C"/>
    <component base="uni093C" xOffset="308" yOffset="102"/>
    <contour>
      <point x="517" y="630" type="move" name="candrabindu"/>
    </contour>
    <contour>
      <point x="687" y="630" type="move" name="candrabinduCXT"/>
    </contour>
    <contour>
      <point x="532" y="630" type="move" name="bindu"/>
    </contour>
    <contour>
      <point x="532" y="468" type="move" name="top"/>
    </contour>
    <contour>
      <point x="458" y="-82" type="move" name="bottom"/>
    </contour>
  </outline>
</glyph>
<glyph name="uni095C" format="1">
  <advance width="593"/>
  <unicode hex="095C"/>
  <outline>
    <component base="uni0921"/>
    <component base="uni093C" xOffset="352" yOffset="18"/>
    <contour>
      <point x="432" y="630" type="move" name="candrabindu"/>
    </contour>
    <contour>
      <point x="583" y="630" type="move" name="candrabinduCXT"/>
    </contour>
    <contour>
      <point x="438" y="630" type="move" name="bindu"/>
    </contour>
    <contour>
      <point x="448" y="468" type="move" name="top"/>
    </contour>
    <contour>
      <point x="344" y="-207" type="move" name="bottom"/>
    </contour>
  </outline>
</glyph>
<glyph name="dvRha" format="1">
  <advance width="558"/>
  <unicode hex="095D"/>
  <outline>
    <component base="dvDdha"/>
    <component base="dvNukta" xOffset="338" yOffset="30"/>
    <contour>
      <point x="397" y="630" type="move" name="candrabindu"/>
    </contour>
    <contour>
      <point x="558" y="630" type="move" name="candrabinduCXT"/>
    </contour>
    <contour>
      <point x="404" y="630" type="move" name="bindu"/>
    </contour>
    <contour>
      <point x="406" y="468" type="move" name="top"/>
    </contour>
    <contour>
      <point x="347" y="-199" type="move" name="bottom"/>
    </contour>
  </outline>
</glyph>
<glyph name="dvFa" format="1">
  <advance width="753"/>
  <unicode hex="095E"/>
  <outline>
    <component base="dvPha"/>
    <component base="dvNukta" xOffset="193" yOffset="156"/>
    <contour>
      <point x="380" y="630" type="move" name="candrabindu"/>
    </contour>
    <contour>
      <point x="663" y="630" type="move" name="candrabinduCXT"/>
    </contour>
    <contour>
      <point x="368" y="630" type="move" name="bindu"/>
    </contour>
    <contour>
      <point x="385" y="468" type="move" name="top"/>
    </contour>
    <contour>
      <point x="330" y="-42" type="move" name="bottom"/>
    </contour>
  </outline>
</glyph>
<glyph name="uni095E" format="1">
  <advance width="753"/>
  <unicode hex="095E"/>
  <outline>
    <component base="uni092B"/>
    <component base="uni093C" xOffset="193" yOffset="156"/>
    <contour>
      <point x="380" y="630" type="move" name="candrabindu"/>
    </contour>
    <contour>
      <point x="663" y="630" type="move" name="candrabinduCXT"/>
    </contour>
    <contour>
      <point x="368" y="630" type="move" name="bindu"/>
    </contour>
    <contour>
      <point x="385" y="468" type="move" name="top"/>
    </contour>
    <contour>
      <point x="330" y="-42" type="move" name="bottom"/>
    </contour>
  </outline>
</glyph>
<glyph name="uni095F" format="1">
  <advance width="587"/>
  <unicode hex="095F"/>
  <outline>
    <component base="uni092F"/>
    <component base="uni093C" xOffset="208" yOffset="142"/>
    <contour>
      <point x="347" y="630" type="move" name="candrabindu"/>
    </contour>
    <contour>
      <point x="607" y="630" type="move" name="candrabinduCXT"/>
    </contour>
    <contour>
      <point x="322" y="630" type="move" name="bindu"/>
    </contour>
    <contour>
      <point x="452" y="468" type="move" name="top"/>
    </contour>
    <contour>
      <point x="390" y="-64" type="move" name="bottom"/>
    </contour>
  </outline>
</glyph>
<glyph name="dvOne" format="1">
  <advance width="434"/>
  <unicode hex="0967"/>
  <outline>
    <contour>
      <point x="199" y="419" type="line"/>
      <point x="100" y="471"/>
      <point x="169" y="592"/>
      <point x="252" y="569" type="curve"/>
      <point x="277" y="547"/>
      <point x="285" y="523"/>
      <point x="285" y="499" type="curve" smooth="yes"/>
      <point x="285" y="455"/>
      <point x="257" y="412"/>
      <point x="210" y="375" type="curve" smooth="yes"/>
      <point x="81" y="273" type="line"/>
      <point x="81" y="225" type="line"/>
      <point x="230" y="114" type="line" smooth="yes"/>
      <point x="263" y="89"/>
      <point x="289" y="72"/>
      <point x="289" y="41" type="curve" smooth="yes"/>
      <point x="289" y="27"/>
      <point x="283" y="14"/>
      <point x="274" y="3" type="curve"/>
      <point x="350" y="-36" type="line"/>
      <point x="366" y="-19"/>
      <point x="377" y="1"/>
      <point x="377" y="23" type="curve" smooth="yes"/>
      <point x="377" y="75"/>
      <point x="315" y="115"/>
      <point x="273" y="147" type="curve" smooth="yes"/>
      <point x="157" y="235" type="line"/>
      <point x="134" y="203" type="line"/>
      <point x="254" y="300" type="line" smooth="yes"/>
      <point x="320" y="354"/>
      <point x="352" y="405"/>
      <point x="352" y="458" type="curve" smooth="yes"/>
      <point x="352" y="539"/>
      <point x="277" y="631"/>
      <point x="186" y="631" type="curve" smooth="yes"/>
      <point x="114" y="631"/>
      <point x="69" y="573"/>
      <point x="69" y="517" type="curve" smooth="yes"/>
      <point x="69" y="479"/>
      <point x="91" y="439"/>
      <point x="175" y="390" type="curve"/>
    </contour>
  </outline>
</glyph>
<glyph name="dvThree" format="1">
  <advance width="522"/>
  <unicode hex="0969"/>
  <outline>
    <contour>
      <point x="152" y="270" type="line"/>
      <point x="304" y="332" type="line"/>
      <point x="213" y="331" type="line"/>
      <point x="334" y="322"/>
      <point x="390" y="270"/>
      <point x="390" y="214" type="curve" smooth="yes"/>
      <point x="390" y="155"/>
      <point x="329" y="106"/>
      <point x="236" y="106" type="curve" smooth="yes"/>
      <point x="210" y="106"/>
      <point x="185" y="110"/>
      <point x="158" y="117" type="curve"/>
      <point x="190" y="43" type="line"/>
      <point x="215" y="39"/>
      <point x="238" y="37"/>
      <point x="260" y="37" type="curve" smooth="yes"/>
      <point x="393" y="37"/>
      <point x="466" y="110"/>
      <point x="466" y="188" type="curve" smooth="yes"/>
      <point x="466" y="259"/>
      <point x="404" y="336"/>
      <point x="279" y="373" type="curve"/>
      <point x="258" y="381" type="line"/>
      <point x="216" y="390"/>
      <point x="158" y="384"/>
      <point x="108" y="351" type="curve"/>
    </contour>
    <contour>
      <point x="379" y="-104" type="line"/>
      <point x="378" y="-87" type="line"/>
      <point x="208" y="82" type="line"/>
      <point x="166" y="67" type="line"/>
      <point x="338" y="-136" type="line"/>
    </contour>
    <contour>
      <point x="76" y="92" type="line"/>
      <point x="93" y="72"/>
      <point x="156" y="38"/>
      <point x="198" y="38" type="curve"/>
      <point x="231" y="68" type="line"/>
      <point x="147" y="192" type="line"/>
      <point x="114" y="184" type="line"/>
    </contour>
    <contour>
      <point x="84" y="485" type="line"/>
      <point x="144" y="538"/>
      <point x="237" y="575"/>
      <point x="297" y="569" type="curve"/>
      <point x="329" y="552"/>
      <point x="340" y="520"/>
      <point x="340" y="494" type="curve" smooth="yes"/>
      <point x="340" y="433"/>
      <point x="280" y="392"/>
      <point x="205" y="377" type="curve"/>
      <point x="283" y="328" type="line"/>
      <point x="350" y="348"/>
      <point x="412" y="398"/>
      <point x="412" y="469" type="curve" smooth="yes"/>
      <point x="412" y="549"/>
      <point x="333" y="631"/>
      <point x="224" y="631" type="curve" smooth="yes"/>
      <point x="152" y="631"/>
      <point x="77" y="595"/>
      <point x="35" y="555" type="curve"/>
    </contour>
  </outline>
</glyph>
<glyph name="dvAbbreviation" format="1">
  <advance width="288"/>
  <unicode hex="0970"/>
  <outline>
    <contour>
      <point x="314" y="378"/>
      <point x="321" y="351"/>
      <point x="321" y="329" type="curve" smooth="yes"/>
      <point x="321" y="261"/>
      <point x="255" y="208"/>
      <point x="178" y="240" type="curve"/>
      <point x="157" y="262"/>
      <point x="151" y="289"/>
      <point x="151" y="310" type="curve" smooth="yes"/>
      <point x="151" y="381"/>
      <point x="217" y="437"/>
      <point x="292" y="401" type="curve"/>
    </contour>
    <contour>
      <point x="324" y="168"/>
      <point x="388" y="218"/>
      <point x="388" y="304" type="curve" smooth="yes"/>
      <point x="388" y="399"/>
      <point x="310" y="475"/>
      <point x="221" y="475" type="curve" smooth="yes"/>
      <point x="147" y="475"/>
      <point x="80" y="422"/>
      <point x="80" y="337" type="curve" smooth="yes"/>
      <point x="80" y="234"/>
      <point x="180" y="168"/>
      <point x="257" y="168" type="curve" smooth="yes"/>
    </contour>
  </outline>
</glyph>
<glyph name="dvAW" format="1">
  <advance width="1005"/>
  <unicode hex="0975"/>
  <outline>
    <component base="dvA"/>
    <component base="dvMatraAW" xOffset="742"/>
    <contour>
      <point x="984" y="610" type="move" name="bindu"/>
    </contour>
  </outline>
</glyph>
<glyph name="dvUUE" format="1">
  <advance width="742"/>
  <unicode hex="0977"/>
  <outline>
    <component base="dvA"/>
    <component base="dvMatraUUE" xOffset="703"/>
    <contour>
      <point x="607" y="630" type="move" name="bindu"/>
    </contour>
    <contour>
      <point x="592" y="630" type="move" name="candrabindu"/>
    </contour>
  </outline>
</glyph>
<glyph name="uni0977" format="1">
  <advance width="742"/>
  <unicode hex="0977"/>
  <outline>
    <component base="uni0905"/>
    <component base="uni0957" xOffset="703"/>
    <contour>
      <point x="607" y="630" type="move" name="bindu"/>
    </contour>
    <contour>
      <point x="592" y="630" type="move" name="candrabindu"/>
    </contour>
  </outline>
</glyph>
<glyph name="dvZha" format="1">
  <advance width="667"/>
  <unicode hex="0979"/>
  <outline>
    <component base="dvJa"/>
    <component base="dvNukta" xOffset="207" yOffset="99"/>
    <component base="dvNukta" xOffset="292" yOffset="-1"/>
    <component base="dvNukta" xOffset="364" yOffset="99"/>
    <contour>
      <point x="517" y="630" type="move" name="candrabindu"/>
    </contour>
    <contour>
      <point x="687" y="630" type="move" name="candrabinduCXT"/>
    </contour>
    <contour>
      <point x="532" y="630" type="move" name="bindu"/>
    </contour>
    <contour>
      <point x="532" y="468" type="move" name="top"/>
    </contour>
    <contour>
      <point x="466" y="-185" type="move" name="bottom"/>
    </contour>
  </outline>
</glyph>
<glyph name="uni0979" format="1">
  <advance width="667"/>
  <unicode hex="0979"/>
  <outline>
    <component base="uni091C"/>
    <component base="uni093C" xOffset="207" yOffset="99"/>
    <component base="uni093C" xOffset="292" yOffset="-1"/>
    <component base="uni093C" xOffset="364" yOffset="99"/>
    <contour>
      <point x="517" y="630" type="move" name="candrabindu"/>
    </contour>
    <contour>
      <point x="687" y="630" type="move" name="candrabinduCXT"/>
    </contour>
    <contour>
      <point x="532" y="630" type="move" name="bindu"/>
    </contour>
    <contour>
      <point x="532" y="468" type="move" name="top"/>
    </contour>
    <contour>
      <point x="466" y="-185" type="move" name="bottom"/>
    </contour>
  </outline>
</glyph>
<glyph name="uni097A" format="1">
  <advance width="587"/>
  <unicode hex="097A"/>
  <outline>
    <contour>
      <point x="434" y="164" type="line"/>
      <point x="468" y="202" type="line"/>
      <point x="239" y="418" type="line"/>
      <point x="201" y="384" type="line"/>
    </contour>
    <component base="uni092F"/>
    <contour>
      <point x="347" y="630" type="move" name="candrabindu"/>
    </contour>
    <contour>
      <point x="607" y="630" type="move" name="candrabinduCXT"/>
    </contour>
    <contour>
      <point x="322" y="630" type="move" name="bindu"/>
    </contour>
    <contour>
      <point x="452" y="468" type="move" name="top"/>
    </contour>
    <contour>
      <point x="402" y="5" type="move" name="bottom"/>
    </contour>
  </outline>
</glyph>
<glyph name="dvGlottalStop" format="1">
  <advance width="531"/>
  <unicode hex="097D"/>
  <outline>
    <contour>
      <point x="198" y="613"/>
      <point x="141" y="589"/>
      <point x="80" y="540" type="curve"/>
      <point x="120" y="473" type="line"/>
      <point x="178" y="523"/>
      <point x="282" y="560"/>
      <point x="333" y="550" type="curve"/>
      <point x="421" y="470"/>
      <point x="390" y="327"/>
      <point x="200" y="291" type="curve"/>
      <point x="220" y="211" type="line"/>
      <point x="371" y="246"/>
      <point x="451" y="321"/>
      <point x="451" y="424" type="curve" smooth="yes"/>
      <point x="451" y="544"/>
      <point x="344" y="613"/>
      <point x="252" y="613" type="curve" smooth="yes"/>
    </contour>
    <contour>
      <point x="200" y="5" type="line"/>
      <point x="251" y="-33" type="line"/>
      <point x="275" y="-26" type="line"/>
      <point x="275" y="249" type="line"/>
      <point x="200" y="291" type="line"/>
    </contour>
  </outline>
</glyph>
<glyph name="dvDdda" format="1">
  <advance width="593"/>
  <unicode hex="097E"/>
  <outline>
    <contour>
      <point x="560" y="-154" type="line"/>
      <point x="569" y="-134" type="line"/>
      <point x="539" y="-84" type="line"/>
      <point x="116" y="-84" type="line"/>
      <point x="107" y="-104" type="line"/>
      <point x="137" y="-154" type="line"/>
    </contour>
    <component base="dvDda"/>
    <contour>
      <point x="432" y="630" type="move" name="candrabindu"/>
    </contour>
    <contour>
      <point x="583" y="630" type="move" name="candrabinduCXT"/>
    </contour>
    <contour>
      <point x="438" y="630" type="move" name="bindu"/>
    </contour>
    <contour>
      <point x="448" y="468" type="move" name="top"/>
    </contour>
    <contour>
      <point x="328" y="-156" type="move" name="bottom"/>
    </contour>
  </outline>
</glyph>
<glyph name="quoteright" format="1">
  <advance width="219"/>
  <unicode hex="2019"/>
  <outline>
    <contour>
      <point x="69" y="492" type="line"/>
      <point x="143" y="533"/>
      <point x="189" y="599"/>
      <point x="189" y="661" type="curve" smooth="yes"/>
      <point x="189" y="698"/>
      <point x="171" y="736"/>
      <point x="117" y="758" type="curve"/>
      <point x="84" y="744"/>
      <point x="59" y="712"/>
      <point x="56" y="678" type="curve"/>
      <point x="108" y="638" type="line"/>
      <point x="105" y="601"/>
      <point x="78" y="557"/>
      <point x="40" y="530" type="curve"/>
    </contour>
  </outline>
</glyph>
<glyph name="dagger" format="1">
  <advance width="531"/>
  <unicode hex="2020"/>
  <outline>
    <contour>
      <point x="207" y="657" type="line"/>
      <point x="223" y="-180" type="line"/>
      <point x="284" y="-180" type="line"/>
      <point x="303" y="685" type="line"/>
      <point x="241" y="689" type="line"/>
    </contour>
    <contour>
      <point x="481" y="439" type="line"/>
      <point x="475" y="468" type="line"/>
      <point x="93" y="468" type="line"/>
      <point x="50" y="425" type="line"/>
      <point x="56" y="396" type="line"/>
      <point x="438" y="396" type="line"/>
    </contour>
  </outline>
</glyph>
<glyph name="daggerdbl" format="1">
  <advance width="540"/>
  <unicode hex="2021"/>
  <outline>
    <contour>
      <point x="216" y="657" type="line"/>
      <point x="232" y="-180" type="line"/>
      <point x="293" y="-180" type="line"/>
      <point x="312" y="685" type="line"/>
      <point x="250" y="689" type="line"/>
    </contour>
    <contour>
      <point x="490" y="439" type="line"/>
      <point x="484" y="468" type="line"/>
      <point x="102" y="468" type="line"/>
      <point x="59" y="425" type="line"/>
      <point x="65" y="396" type="line"/>
      <point x="447" y="396" type="line"/>
    </contour>
    <contour>
      <point x="481" y="162" type="line"/>
      <point x="475" y="191" type="line"/>
      <point x="93" y="191" type="line"/>
      <point x="50" y="148" type="line"/>
      <point x="56" y="119" type="line"/>
      <point x="438" y="119" type="line"/>
    </contour>
  </outline>
</glyph>
<glyph name="bullet" format="1">
  <advance width="411"/>
  <unicode hex="2022"/>
  <outline>
    <contour>
      <point x="304" y="327"/>
      <point x="260" y="370"/>
      <point x="197" y="392" type="curve"/>
      <point x="137" y="363"/>
      <point x="98" y="313"/>
      <point x="85" y="245" type="curve"/>
      <point x="108" y="189"/>
      <point x="154" y="151"/>
      <point x="218" y="136" type="curve"/>
      <point x="277" y="164"/>
      <point x="314" y="207"/>
      <point x="326" y="264" type="curve"/>
    </contour>
  </outline>
</glyph>
<glyph name="fraction" format="1">
  <advance width="122"/>
  <unicode hex="2044"/>
  <outline>
    <contour>
      <point x="-182" y="20" type="line"/>
      <point x="390" y="619" type="line"/>
      <point x="346" y="664" type="line"/>
      <point x="-228" y="64" type="line"/>
    </contour>
  </outline>
</glyph>
<glyph name="foursuperior" format="1">
  <advance width="287"/>
  <unicode hex="2074"/>
  <outline>
    <contour>
      <point x="56" y="518" type="line"/>
      <point x="181" y="708" type="line"/>
      <point x="187" y="689" type="line"/>
      <point x="197" y="740" type="line"/>
      <point x="160" y="751" type="line"/>
      <point x="5" y="529" type="line"/>
      <point x="16" y="499" type="line"/>
      <point x="253" y="499" type="line"/>
      <point x="266" y="519" type="line"/>
      <point x="266" y="545" type="line"/>
      <point x="36" y="543" type="line"/>
    </contour>
    <contour>
      <point x="148" y="426" type="line"/>
      <point x="211" y="426" type="line"/>
      <point x="211" y="740" type="line"/>
      <point x="160" y="751" type="line"/>
      <point x="166" y="705" type="line"/>
      <point x="148" y="631" type="line"/>
    </contour>
    <contour>
      <point x="250" y="426" type="line"/>
      <point x="252" y="451" type="line"/>
      <point x="183" y="461" type="line"/>
      <point x="183" y="426" type="line"/>
    </contour>
    <contour>
      <point x="163" y="426" type="line"/>
      <point x="168" y="468" type="line"/>
      <point x="143" y="461"/>
      <point x="117" y="453"/>
      <point x="95" y="442" type="curve"/>
      <point x="98" y="426" type="line"/>
    </contour>
  </outline>
</glyph>
<glyph name="product" format="1">
  <advance width="780"/>
  <unicode hex="220F"/>
  <outline>
    <contour>
      <point x="92" y="735"/>
      <point x="62" y="721"/>
      <point x="30" y="700" type="curve"/>
      <point x="36" y="671" type="line"/>
      <point x="711" y="671" type="line"/>
      <point x="750" y="700" type="line"/>
      <point x="746" y="735" type="line"/>
      <point x="123" y="735" type="line"/>
    </contour>
    <contour>
      <point x="157" y="680" type="line"/>
      <point x="157" y="-100" type="line"/>
      <point x="250" y="-100" type="line"/>
      <point x="250" y="680" type="line"/>
    </contour>
    <contour>
      <point x="535" y="680" type="line"/>
      <point x="535" y="-100" type="line"/>
      <point x="628" y="-100" type="line"/>
      <point x="628" y="680" type="line"/>
    </contour>
    <contour>
      <point x="138" y="-43"/>
      <point x="102" y="-54"/>
      <point x="72" y="-68" type="curve"/>
      <point x="78" y="-100" type="line"/>
      <point x="172" y="-100" type="line"/>
      <point x="171" y="-33" type="line"/>
    </contour>
    <contour>
      <point x="206" y="-100" type="line"/>
      <point x="346" y="-100" type="line"/>
      <point x="347" y="-53" type="line"/>
      <point x="209" y="-37" type="line"/>
    </contour>
    <contour>
      <point x="516" y="-43"/>
      <point x="480" y="-54"/>
      <point x="450" y="-68" type="curve"/>
      <point x="456" y="-100" type="line"/>
      <point x="550" y="-100" type="line"/>
      <point x="549" y="-33" type="line"/>
    </contour>
    <contour>
      <point x="584" y="-100" type="line"/>
      <point x="724" y="-100" type="line"/>
      <point x="725" y="-53" type="line"/>
      <point x="587" y="-37" type="line"/>
    </contour>
  </outline>
</glyph>
<glyph name="summation" format="1">
  <advance width="579"/>
  <unicode hex="2211"/>
  <outline>
    <contour>
      <point x="528" y="735" type="line"/>
      <point x="31" y="735" type="line"/>
      <point x="30" y="687" type="line"/>
      <point x="170" y="671" type="line"/>
      <point x="511" y="658" type="line"/>
    </contour>
    <contour>
      <point x="518" y="580" type="line"/>
      <point x="529" y="641"/>
      <point x="531" y="702"/>
      <point x="528" y="735" type="curve"/>
      <point x="448" y="690" type="line"/>
      <point x="464" y="582" type="line"/>
    </contour>
    <contour>
      <point x="30" y="687" type="line"/>
      <point x="235" y="265" type="line"/>
      <point x="314" y="304" type="line"/>
      <point x="114" y="718" type="line"/>
    </contour>
    <contour>
      <point x="30" y="-52" type="line"/>
      <point x="95" y="-72" type="line"/>
      <point x="314" y="304" type="line"/>
      <point x="252" y="327" type="line"/>
    </contour>
    <contour>
      <point x="170" y="-36" type="line"/>
      <point x="30" y="-52" type="line"/>
      <point x="31" y="-100" type="line"/>
      <point x="548" y="-100" type="line"/>
      <point x="531" y="-23" type="line"/>
    </contour>
    <contour>
      <point x="468" y="-55" type="line"/>
      <point x="548" y="-100" type="line"/>
      <point x="551" y="-67"/>
      <point x="549" y="-6"/>
      <point x="538" y="55" type="curve"/>
      <point x="484" y="53" type="line"/>
    </contour>
  </outline>
</glyph>
<glyph name="minus" format="1">
  <advance width="602"/>
  <unicode hex="2212"/>
  <outline>
    <contour>
      <point x="60" y="264" type="line"/>
      <point x="60" y="199" type="line"/>
      <point x="542" y="199" type="line"/>
      <point x="542" y="264" type="line"/>
    </contour>
  </outline>
</glyph>
<glyph name="infinity" format="1">
  <advance width="737"/>
  <unicode hex="221E"/>
  <outline>
    <contour>
      <point x="114" y="509"/>
      <point x="31" y="440"/>
      <point x="31" y="339" type="curve" smooth="yes"/>
      <point x="31" y="232"/>
      <point x="123" y="172"/>
      <point x="200" y="172" type="curve" smooth="yes"/>
      <point x="265" y="172"/>
      <point x="332" y="213"/>
      <point x="380" y="309" type="curve"/>
      <point x="342" y="338" type="line"/>
      <point x="311" y="286"/>
      <point x="272" y="253"/>
      <point x="213" y="253" type="curve" smooth="yes"/>
      <point x="148" y="253"/>
      <point x="110" y="294"/>
      <point x="110" y="345" type="curve" smooth="yes"/>
      <point x="110" y="373"/>
      <point x="122" y="402"/>
      <point x="142" y="424" type="curve"/>
      <point x="217" y="460"/>
      <point x="285" y="408"/>
      <point x="350" y="307" type="curve"/>
      <point x="396" y="244"/>
      <point x="448" y="168"/>
      <point x="549" y="168" type="curve" smooth="yes"/>
      <point x="637" y="168"/>
      <point x="716" y="227"/>
      <point x="716" y="331" type="curve" smooth="yes"/>
      <point x="716" y="434"/>
      <point x="639" y="508"/>
      <point x="555" y="508" type="curve" smooth="yes"/>
      <point x="493" y="508"/>
      <point x="419" y="466"/>
      <point x="371" y="380" type="curve"/>
      <point x="409" y="341" type="line"/>
      <point x="446" y="395"/>
      <point x="492" y="432"/>
      <point x="539" y="432" type="curve" smooth="yes"/>
      <point x="597" y="432"/>
      <point x="629" y="377"/>
      <point x="629" y="325" type="curve" smooth="yes"/>
      <point x="629" y="293"/>
      <point x="616" y="262"/>
      <point x="595" y="242" type="curve"/>
      <point x="516" y="220"/>
      <point x="481" y="264"/>
      <point x="394" y="378" type="curve" smooth="yes"/>
      <point x="345" y="442"/>
      <point x="290" y="509"/>
      <point x="202" y="509" type="curve" smooth="yes"/>
    </contour>
  </outline>
</glyph>
<glyph name="dvHeadline" format="1">
  <advance width="263"/>
  <unicode hex="A8FB"/>
  <outline>
    <contour>
      <point x="284" y="538" type="line"/>
      <point x="293" y="558" type="line"/>
      <point x="263" y="608" type="line"/>
      <point x="-21" y="608" type="line"/>
      <point x="-30" y="588" type="line"/>
      <point x="0" y="538" type="line"/>
    </contour>
  </outline>
</glyph>
<glyph name="brevecomb.case" format="1">
  <advance width="0"/>
  <outline>
    <contour>
      <point x="70" y="851" type="line"/>
      <point x="66" y="797"/>
      <point x="36" y="770"/>
      <point x="-2" y="770" type="curve" smooth="yes"/>
      <point x="-45" y="770"/>
      <point x="-69" y="804"/>
      <point x="-76" y="853" type="curve"/>
      <point x="-145" y="840" type="line"/>
      <point x="-130" y="752"/>
      <point x="-68" y="702"/>
      <point x="4" y="702" type="curve" smooth="yes"/>
      <point x="78" y="702"/>
      <point x="139" y="753"/>
      <point x="145" y="843" type="curve"/>
    </contour>
    <contour>
      <point x="-1" y="650" type="move" name="_top"/>
    </contour>
  </outline>
</glyph>
<glyph name="dvB" format="1">
  <advance width="405"/>
  <outline>
    <contour>
      <point x="267" y="449" type="line"/>
      <point x="155" y="479"/>
      <point x="34" y="409"/>
      <point x="34" y="292" type="curve" smooth="yes"/>
      <point x="34" y="170"/>
      <point x="165" y="76"/>
      <point x="288" y="76" type="curve" smooth="yes"/>
      <point x="434" y="76"/>
      <point x="544" y="210"/>
      <point x="430" y="359" type="curve"/>
      <point x="391" y="342" type="line"/>
      <point x="460" y="226"/>
      <point x="362" y="141"/>
      <point x="253" y="141" type="curve" smooth="yes"/>
      <point x="220" y="141"/>
      <point x="175" y="149"/>
      <point x="144" y="171" type="curve"/>
      <point x="72" y="253"/>
      <point x="117" y="383"/>
      <point x="246" y="383" type="curve" smooth="yes"/>
      <point x="307" y="383"/>
      <point x="361" y="354"/>
      <point x="430" y="291" type="curve"/>
      <point x="430" y="359" type="line"/>
    </contour>
    <contour>
      <point x="428" y="538" type="line"/>
      <point x="437" y="558" type="line"/>
      <point x="407" y="608" type="line"/>
      <point x="-21" y="608" type="line"/>
      <point x="-30" y="588" type="line"/>
      <point x="0" y="538" type="line"/>
    </contour>
    <contour>
      <point x="314" y="134" type="line"/>
      <point x="351" y="162" type="line"/>
      <point x="202" y="408" type="line"/>
      <point x="161" y="384" type="line"/>
    </contour>
  </outline>
</glyph>
<glyph name="dvBLYa" format="1">
  <advance width="1456"/>
  <outline>
    <component base="dvB"/>
    <component base="dvL.alt" xOffset="364"/>
    <component base="dvYa" xOffset="869"/>
    <contour>
      <point x="1216" y="630" type="move" name="candrabindu"/>
    </contour>
    <contour>
      <point x="1476" y="630" type="move" name="candrabinduCXT"/>
    </contour>
    <contour>
      <point x="1191" y="630" type="move" name="bindu"/>
    </contour>
    <contour>
      <point x="1321" y="468" type="move" name="top"/>
    </contour>
    <contour>
      <point x="1271" y="5" type="move" name="bottom"/>
    </contour>
  </outline>
</glyph>
<glyph name="dvBhRYa" format="1">
  <advance width="1020"/>
  <outline>
    <contour>
      <point x="242" y="-12" type="line"/>
      <point x="306" y="-64" type="line"/>
      <point x="573" y="171" type="line"/>
      <point x="539" y="235" type="line" smooth="yes"/>
    </contour>
    <component base="uni092D094D"/>
    <component base="uni092F" xOffset="433"/>
    <contour>
      <point x="780" y="630" type="move" name="candrabindu"/>
    </contour>
    <contour>
      <point x="1040" y="630" type="move" name="candrabinduCXT"/>
    </contour>
    <contour>
      <point x="755" y="630" type="move" name="bindu"/>
    </contour>
    <contour>
      <point x="885" y="468" type="move" name="top"/>
    </contour>
    <contour>
      <point x="835" y="5" type="move" name="bottom"/>
    </contour>
  </outline>
</glyph>
<glyph name="dvC" format="1">
  <advance width="443"/>
  <outline>
    <contour>
      <point x="194" y="407" type="line"/>
      <point x="153" y="382"/>
      <point x="126" y="339"/>
      <point x="126" y="288" type="curve" smooth="yes"/>
      <point x="126" y="229"/>
      <point x="163" y="180"/>
      <point x="203" y="149" type="curve" smooth="yes"/>
      <point x="240" y="120"/>
      <point x="293" y="95"/>
      <point x="355" y="95" type="curve" smooth="yes"/>
      <point x="429" y="95"/>
      <point x="516" y="131"/>
      <point x="572" y="238" type="curve"/>
      <point x="510" y="290" type="line"/>
      <point x="446" y="167"/>
      <point x="314" y="138"/>
      <point x="234" y="174" type="curve"/>
      <point x="187" y="224"/>
      <point x="206" y="334"/>
      <point x="273" y="360" type="curve"/>
    </contour>
    <contour>
      <point x="496" y="538" type="line"/>
      <point x="505" y="558" type="line"/>
      <point x="475" y="608" type="line"/>
      <point x="-21" y="608" type="line"/>
      <point x="-30" y="588" type="line"/>
      <point x="0" y="538" type="line"/>
    </contour>
    <contour>
      <point x="156" y="357" type="line"/>
      <point x="180" y="353" type="line"/>
      <point x="397" y="353" type="line"/>
      <point x="406" y="373" type="line"/>
      <point x="376" y="423" type="line"/>
      <point x="17" y="423" type="line"/>
      <point x="8" y="403" type="line"/>
      <point x="36" y="357" type="line"/>
    </contour>
  </outline>
</glyph>
<glyph name="dvCChVa" format="1">
  <advance width="1167"/>
  <outline>
    <component base="dvC"/>
    <component base="dvChVa" xOffset="432"/>
    <contour>
      <point x="837" y="630" type="move" name="candrabindu"/>
    </contour>
    <contour>
      <point x="1107" y="630" type="move" name="candrabinduCXT"/>
    </contour>
    <contour>
      <point x="812" y="630" type="move" name="bindu"/>
    </contour>
    <contour>
      <point x="965" y="468" type="move" name="top"/>
    </contour>
    <contour>
      <point x="858" y="-287" type="move" name="bottom"/>
    </contour>
  </outline>
</glyph>
<glyph name="dvCCha" format="1">
  <advance width="1168"/>
  <outline>
    <component base="uni091A094D"/>
    <component base="uni091B" xOffset="433"/>
    <contour>
      <point x="838" y="630" type="move" name="candrabindu"/>
    </contour>
    <contour>
      <point x="1108" y="630" type="move" name="candrabinduCXT"/>
    </contour>
    <contour>
      <point x="813" y="630" type="move" name="bindu"/>
    </contour>
    <contour>
      <point x="966" y="468" type="move" name="top"/>
    </contour>
    <contour>
      <point x="825" y="-29" type="move" name="bottom"/>
    </contour>
  </outline>
</glyph>
<glyph name="dvChRYa" format="1">
  <advance width="1272"/>
  <outline>
    <component base="dvChYa"/>
    <component base="dvRakar" xOffset="383"/>
    <contour>
      <point x="1032" y="630" type="move" name="candrabindu"/>
    </contour>
    <contour>
      <point x="1292" y="630" type="move" name="candrabinduCXT"/>
    </contour>
    <contour>
      <point x="1007" y="630" type="move" name="bindu"/>
    </contour>
    <contour>
      <point x="1137" y="468" type="move" name="top"/>
    </contour>
    <contour>
      <point x="1087" y="-15" type="move" name="bottom"/>
    </contour>
  </outline>
</glyph>
<glyph name="dvDBRa" format="1">
  <advance width="551"/>
  <outline>
    <contour>
      <point x="249" y="-300" type="line"/>
      <point x="306" y="-334" type="line"/>
      <point x="469" y="-105" type="line"/>
      <point x="419" y="-67" type="line" smooth="yes"/>
    </contour>
    <component base="dvDBa"/>
    <contour>
      <point x="381" y="630" type="move" name="candrabindu"/>
    </contour>
    <contour>
      <point x="551" y="630" type="move" name="candrabinduCXT"/>
    </contour>
    <contour>
      <point x="396" y="630" type="move" name="bindu"/>
    </contour>
    <contour>
      <point x="396" y="468" type="move" name="top"/>
    </contour>
    <contour>
      <point x="441" y="-294" type="move" name="bottom"/>
    </contour>
  </outline>
</glyph>
<glyph name="dvDBhYa" format="1">
  <advance width="1311"/>
  <outline>
    <component base="dvDBha"/>
    <component base="uni092F.post" xOffset="724"/>
    <contour>
      <point x="1071" y="630" type="move" name="candrabindu"/>
    </contour>
    <contour>
      <point x="1331" y="630" type="move" name="candrabinduCXT"/>
    </contour>
    <contour>
      <point x="1046" y="630" type="move" name="bindu"/>
    </contour>
    <contour>
      <point x="1176" y="468" type="move" name="top"/>
    </contour>
    <contour>
      <point x="1126" y="-15" type="move" name="bottom"/>
    </contour>
  </outline>
</glyph>
<glyph name="dvDDhYa" format="1">
  <advance width="1295"/>
  <outline>
    <component base="dvDDha"/>
    <component base="dvYa.post" xOffset="708"/>
    <contour>
      <point x="1055" y="630" type="move" name="candrabindu"/>
    </contour>
    <contour>
      <point x="1315" y="630" type="move" name="candrabinduCXT"/>
    </contour>
    <contour>
      <point x="1030" y="630" type="move" name="bindu"/>
    </contour>
    <contour>
      <point x="1160" y="468" type="move" name="top"/>
    </contour>
    <contour>
      <point x="1110" y="-15" type="move" name="bottom"/>
    </contour>
  </outline>
</glyph>
<glyph name="dvDVYa" format="1">
  <advance width="1101"/>
  <outline>
    <component base="dvDVa"/>
    <component base="dvYa.post" xOffset="514"/>
    <contour>
      <point x="861" y="630" type="move" name="candrabindu"/>
    </contour>
    <contour>
      <point x="1121" y="630" type="move" name="candrabinduCXT"/>
    </contour>
    <contour>
      <point x="836" y="630" type="move" name="bindu"/>
    </contour>
    <contour>
      <point x="966" y="468" type="move" name="top"/>
    </contour>
    <contour>
      <point x="916" y="-15" type="move" name="bottom"/>
    </contour>
  </outline>
</glyph>
<glyph name="dvDdhRYa" format="1">
  <advance width="1135"/>
  <outline>
    <component base="dvDdhYa"/>
    <component base="uni094D0930" xOffset="333" yOffset="10"/>
    <contour>
      <point x="895" y="630" type="move" name="candrabindu"/>
    </contour>
    <contour>
      <point x="1155" y="630" type="move" name="candrabinduCXT"/>
    </contour>
    <contour>
      <point x="870" y="630" type="move" name="bindu"/>
    </contour>
    <contour>
      <point x="1000" y="468" type="move" name="top"/>
    </contour>
    <contour>
      <point x="950" y="-15" type="move" name="bottom"/>
    </contour>
  </outline>
</glyph>
<glyph name="dvDdhYa" format="1">
  <advance width="1135"/>
  <outline>
    <component base="dvDdha"/>
    <component base="dvYa.post" xOffset="548"/>
    <contour>
      <point x="896" y="630" type="move" name="candrabindu"/>
    </contour>
    <contour>
      <point x="1155" y="630" type="move" name="candrabinduCXT"/>
    </contour>
    <contour>
      <point x="871" y="630" type="move" name="bindu"/>
    </contour>
    <contour>
      <point x="1000" y="468" type="move" name="top"/>
    </contour>
    <contour>
      <point x="950" y="-15" type="move" name="bottom"/>
    </contour>
  </outline>
</glyph>
<glyph name="dvDhVa" format="1">
  <advance width="1007"/>
  <outline>
    <component base="dvDh"/>
    <component base="dvVa" xOffset="442"/>
    <contour>
      <point x="857" y="630" type="move" name="candrabindu"/>
    </contour>
    <contour>
      <point x="1027" y="630" type="move" name="candrabinduCXT"/>
    </contour>
    <contour>
      <point x="872" y="630" type="move" name="bindu"/>
    </contour>
    <contour>
      <point x="872" y="468" type="move" name="top"/>
    </contour>
    <contour>
      <point x="822" y="5" type="move" name="bottom"/>
    </contour>
  </outline>
</glyph>
<glyph name="dvFFa" format="1">
  <advance width="1299"/>
  <outline>
    <component base="uni095E094D"/>
    <component base="uni095E" xOffset="546"/>
    <contour>
      <point x="926" y="630" type="move" name="candrabindu"/>
    </contour>
    <contour>
      <point x="1209" y="630" type="move" name="candrabinduCXT"/>
    </contour>
    <contour>
      <point x="914" y="630" type="move" name="bindu"/>
    </contour>
    <contour>
      <point x="931" y="468" type="move" name="top"/>
    </contour>
    <contour>
      <point x="876" y="-42" type="move" name="bottom"/>
    </contour>
  </outline>
</glyph>
<glyph name="dvFRa" format="1">
  <advance width="783"/>
  <outline>
    <component base="dvPhRa"/>
    <component base="uni093C" xOffset="261" yOffset="101"/>
    <contour>
      <point x="400" y="630" type="move" name="candrabindu"/>
    </contour>
    <contour>
      <point x="683" y="630" type="move" name="candrabinduCXT"/>
    </contour>
    <contour>
      <point x="388" y="630" type="move" name="bindu"/>
    </contour>
    <contour>
      <point x="405" y="468" type="move" name="top"/>
    </contour>
    <contour>
      <point x="371" y="-95" type="move" name="bottom"/>
    </contour>
  </outline>
</glyph>
<glyph name="dvFSa" format="1">
  <advance width="1290"/>
  <outline>
    <component base="dvF"/>
    <component base="dvSa" xOffset="594"/>
    <contour>
      <point x="1015" y="630" type="move" name="candrabindu"/>
    </contour>
    <contour>
      <point x="1310" y="630" type="move" name="candrabinduCXT"/>
    </contour>
    <contour>
      <point x="995" y="630" type="move" name="bindu"/>
    </contour>
    <contour>
      <point x="1155" y="468" type="move" name="top"/>
    </contour>
    <contour>
      <point x="1105" y="5" type="move" name="bottom"/>
    </contour>
  </outline>
</glyph>
<glyph name="dvFTa" format="1">
  <advance width="1110"/>
  <outline>
    <component base="uni095E094D"/>
    <component base="uni0924" xOffset="534"/>
    <contour>
      <point x="960" y="630" type="move" name="candrabindu"/>
    </contour>
    <contour>
      <point x="1130" y="630" type="move" name="candrabinduCXT"/>
    </contour>
    <contour>
      <point x="975" y="630" type="move" name="bindu"/>
    </contour>
    <contour>
      <point x="975" y="468" type="move" name="top"/>
    </contour>
    <contour>
      <point x="925" y="5" type="move" name="bottom"/>
    </contour>
  </outline>
</glyph>
<glyph name="dvFZa" format="1">
  <advance width="1267"/>
  <outline>
    <component base="dvF"/>
    <component base="dvZa" xOffset="600"/>
    <contour>
      <point x="1117" y="630" type="move" name="candrabindu"/>
    </contour>
    <contour>
      <point x="1287" y="630" type="move" name="candrabinduCXT"/>
    </contour>
    <contour>
      <point x="1132" y="630" type="move" name="bindu"/>
    </contour>
    <contour>
      <point x="1132" y="468" type="move" name="top"/>
    </contour>
    <contour>
      <point x="1082" y="-100" type="move" name="bottom"/>
    </contour>
  </outline>
</glyph>
<glyph name="dvHeadline.dvKSsa" format="1">
  <advance width="0"/>
  <outline>
    <contour>
      <point x="93" y="538" type="line"/>
      <point x="102" y="558" type="line"/>
      <point x="72" y="608" type="line"/>
      <point x="-21" y="608" type="line"/>
      <point x="-30" y="588" type="line"/>
      <point x="0" y="538" type="line"/>
    </contour>
  </outline>
</glyph>
<glyph name="dvHeadlineCandrabindu" format="1">
  <advance width="264"/>
  <outline>
    <contour>
      <point x="284" y="538" type="line"/>
      <point x="293" y="558" type="line"/>
      <point x="263" y="608" type="line"/>
      <point x="-21" y="608" type="line"/>
      <point x="-30" y="588" type="line"/>
      <point x="0" y="538" type="line"/>
    </contour>
    <component base="dvCandrabindu" xOffset="299"/>
  </outline>
</glyph>
<glyph name="dvJ.alt" format="1">
  <advance width="454"/>
  <outline>
    <contour>
      <point x="13" y="380" type="line"/>
      <point x="68" y="183"/>
      <point x="154" y="41"/>
      <point x="273" y="41" type="curve" smooth="yes"/>
      <point x="342" y="41"/>
      <point x="408" y="89"/>
      <point x="408" y="171" type="curve" smooth="yes"/>
      <point x="408" y="257"/>
      <point x="334" y="358"/>
      <point x="202" y="376" type="curve"/>
      <point x="193" y="376" type="line"/>
      <point x="193" y="355" type="line"/>
      <point x="284" y="314" type="line"/>
      <point x="365" y="231"/>
      <point x="336" y="127"/>
      <point x="251" y="127" type="curve" smooth="yes"/>
      <point x="165" y="127"/>
      <point x="111" y="235"/>
      <point x="63" y="396" type="curve"/>
    </contour>
    <contour>
      <point x="528" y="538" type="line"/>
      <point x="537" y="558" type="line"/>
      <point x="507" y="608" type="line"/>
      <point x="-21" y="608" type="line"/>
      <point x="-30" y="588" type="line"/>
      <point x="0" y="538" type="line"/>
    </contour>
    <contour>
      <point x="564" y="296" type="line"/>
      <point x="514" y="391"/>
      <point x="475" y="402"/>
      <point x="355" y="402" type="curve" smooth="yes"/>
      <point x="193" y="402" type="line"/>
      <point x="193" y="363" type="line"/>
      <point x="303" y="326" type="line"/>
      <point x="398" y="326" type="line" smooth="yes"/>
      <point x="459" y="326"/>
      <point x="477" y="321"/>
      <point x="512" y="276" type="curve"/>
    </contour>
  </outline>
</glyph>
<glyph name="dvJYa" format="1">
  <advance width="1040"/>
  <outline>
    <component base="dvJ.alt"/>
    <component base="dvYa" xOffset="453"/>
    <contour>
      <point x="800" y="630" type="move" name="candrabindu"/>
    </contour>
    <contour>
      <point x="1060" y="630" type="move" name="candrabinduCXT"/>
    </contour>
    <contour>
      <point x="775" y="630" type="move" name="bindu"/>
    </contour>
    <contour>
      <point x="905" y="468" type="move" name="top"/>
    </contour>
    <contour>
      <point x="855" y="5" type="move" name="bottom"/>
    </contour>
  </outline>
</glyph>
<glyph name="dvJh.NEP" format="1">
  <advance width="683"/>
  <outline>
    <contour>
      <point x="106" y="269" type="line"/>
      <point x="130" y="214"/>
      <point x="196" y="144"/>
      <point x="243" y="115" type="curve"/>
      <point x="291" y="135" type="line"/>
      <point x="291" y="273" type="line"/>
      <point x="224" y="308" type="line"/>
      <point x="133" y="308" type="line"/>
    </contour>
    <contour>
      <point x="470" y="5" type="line"/>
      <point x="529" y="-33" type="line"/>
      <point x="553" y="-26" type="line"/>
      <point x="553" y="500" type="line"/>
      <point x="495" y="551" type="line"/>
      <point x="470" y="562" type="line"/>
    </contour>
    <contour>
      <point x="704" y="538" type="line"/>
      <point x="713" y="558" type="line"/>
      <point x="683" y="608" type="line"/>
      <point x="343" y="608" type="line"/>
      <point x="334" y="588" type="line"/>
      <point x="364" y="538" type="line"/>
    </contour>
    <contour>
      <point x="499" y="308" type="line"/>
      <point x="171" y="308" type="line"/>
      <point x="202" y="232" type="line"/>
      <point x="521" y="232" type="line"/>
    </contour>
    <contour>
      <point x="70" y="631"/>
      <point x="20" y="598"/>
      <point x="20" y="542" type="curve" smooth="yes"/>
      <point x="20" y="507"/>
      <point x="39" y="459"/>
      <point x="124" y="406" type="curve"/>
      <point x="150" y="441" type="line"/>
      <point x="63" y="489"/>
      <point x="93" y="580"/>
      <point x="169" y="573" type="curve"/>
      <point x="200" y="550"/>
      <point x="205" y="519"/>
      <point x="205" y="481" type="curve" smooth="yes"/>
      <point x="205" y="274" type="line"/>
      <point x="286" y="243" type="line"/>
      <point x="286" y="448" type="line"/>
      <point x="283" y="538"/>
      <point x="207" y="631"/>
      <point x="121" y="631" type="curve" smooth="yes"/>
    </contour>
    <contour>
      <point x="793" y="272" type="line"/>
      <point x="769" y="341"/>
      <point x="716" y="377"/>
      <point x="656" y="377" type="curve" smooth="yes"/>
      <point x="604" y="377"/>
      <point x="546" y="350"/>
      <point x="498" y="294" type="curve"/>
      <point x="520" y="206" type="line"/>
      <point x="570" y="268"/>
      <point x="628" y="299"/>
      <point x="675" y="299" type="curve" smooth="yes"/>
      <point x="712" y="299"/>
      <point x="742" y="280"/>
      <point x="758" y="248" type="curve" smooth="yes"/>
    </contour>
  </outline>
</glyph>
<glyph name="dvJh" format="1">
  <advance width="580"/>
  <outline>
    <contour>
      <point x="636" y="538" type="line"/>
      <point x="645" y="558" type="line"/>
      <point x="615" y="608" type="line"/>
      <point x="489" y="608" type="line"/>
      <point x="480" y="588" type="line"/>
      <point x="510" y="538" type="line"/>
    </contour>
    <contour>
      <point x="369" y="279" type="line"/>
      <point x="502" y="197"/>
      <point x="575" y="175"/>
      <point x="647" y="221" type="curve"/>
      <point x="619" y="301" type="line"/>
      <point x="563" y="255"/>
      <point x="473" y="261"/>
      <point x="378" y="303" type="curve"/>
    </contour>
    <component base="dvI"/>
  </outline>
</glyph>
<glyph name="dvKR" format="1">
  <advance width="605"/>
  <outline>
    <contour>
      <point x="342" y="5" type="line"/>
      <point x="401" y="-33" type="line"/>
      <point x="425" y="-26" type="line"/>
      <point x="425" y="500" type="line"/>
      <point x="367" y="551" type="line"/>
      <point x="342" y="562" type="line"/>
    </contour>
    <contour>
      <point x="35" y="0" type="line"/>
      <point x="98" y="-50" type="line"/>
      <point x="418" y="204" type="line"/>
      <point x="373" y="247" type="line" smooth="yes"/>
    </contour>
    <contour>
      <point x="238" y="436" type="line"/>
      <point x="150" y="463"/>
      <point x="45" y="400"/>
      <point x="45" y="297" type="curve" smooth="yes"/>
      <point x="45" y="188"/>
      <point x="161" y="103"/>
      <point x="250" y="103" type="curve" smooth="yes"/>
      <point x="262" y="103"/>
      <point x="274" y="105"/>
      <point x="285" y="107" type="curve"/>
      <point x="387" y="190" type="line"/>
      <point x="362" y="276" type="line"/>
      <point x="321" y="192"/>
      <point x="218" y="143"/>
      <point x="144" y="187" type="curve"/>
      <point x="89" y="267"/>
      <point x="136" y="369"/>
      <point x="237" y="369" type="curve" smooth="yes"/>
      <point x="285" y="369"/>
      <point x="328" y="346"/>
      <point x="371" y="319" type="curve"/>
      <point x="374" y="371" type="line"/>
    </contour>
    <contour>
      <point x="683" y="312" type="line"/>
      <point x="662" y="368"/>
      <point x="606" y="409"/>
      <point x="551" y="409" type="curve" smooth="yes"/>
      <point x="487" y="409"/>
      <point x="426" y="351"/>
      <point x="388" y="294" type="curve"/>
      <point x="410" y="206" type="line"/>
      <point x="476" y="288"/>
      <point x="525" y="335"/>
      <point x="576" y="335" type="curve" smooth="yes"/>
      <point x="613" y="335"/>
      <point x="637" y="310"/>
      <point x="648" y="288" type="curve" smooth="yes"/>
      <point x="651" y="282" type="line"/>
    </contour>
    <contour>
      <point x="636" y="538" type="line"/>
      <point x="645" y="558" type="line"/>
      <point x="615" y="608" type="line"/>
      <point x="-21" y="608" type="line"/>
      <point x="-30" y="588" type="line"/>
      <point x="0" y="538" type="line"/>
    </contour>
  </outline>
</glyph>
<glyph name="dvKSPLa.MAR" format="1">
  <advance width="1991"/>
  <outline>
    <component base="uni0915094D"/>
    <component base="uni0938094D" xOffset="605"/>
    <component base="uni092A094D" xOffset="979"/>
    <component base="uni0932.MAR" xOffset="1303"/>
    <contour>
      <point x="1781" y="630" type="move" name="candrabindu"/>
    </contour>
    <contour>
      <point x="1951" y="630" type="move" name="candrabinduCXT"/>
    </contour>
    <contour>
      <point x="1786" y="630" type="move" name="bindu"/>
    </contour>
    <contour>
      <point x="1796" y="468" type="move" name="top"/>
    </contour>
    <contour>
      <point x="1657" y="-43" type="move" name="bottom"/>
    </contour>
  </outline>
</glyph>
<glyph name="dvKSPLa" format="1">
  <advance width="1972"/>
  <outline>
    <component base="uni0915094D"/>
    <component base="uni0938094D" xOffset="575"/>
    <component base="uni092A094D" xOffset="969"/>
    <component base="uni0932" xOffset="1289"/>
    <contour>
      <point x="1822" y="630" type="move" name="candrabindu"/>
    </contour>
    <contour>
      <point x="1992" y="630" type="move" name="candrabinduCXT"/>
    </contour>
    <contour>
      <point x="1837" y="630" type="move" name="bindu"/>
    </contour>
    <contour>
      <point x="1837" y="468" type="move" name="top"/>
    </contour>
    <contour>
      <point x="1787" y="5" type="move" name="bottom"/>
    </contour>
  </outline>
</glyph>
<glyph name="dvKSPRa" format="1">
  <advance width="1527"/>
  <outline>
    <component base="dvK"/>
    <component base="dvS" xOffset="575"/>
    <component base="dvPRa" xOffset="962"/>
    <contour>
      <point x="1277" y="630" type="move" name="candrabindu"/>
    </contour>
    <contour>
      <point x="1547" y="630" type="move" name="candrabinduCXT"/>
    </contour>
    <contour>
      <point x="1262" y="630" type="move" name="bindu"/>
    </contour>
    <contour>
      <point x="1392" y="468" type="move" name="top"/>
    </contour>
    <contour>
      <point x="1342" y="-15" type="move" name="bottom"/>
    </contour>
  </outline>
</glyph>
<glyph name="dvKSsVa" format="1">
  <advance width="1076"/>
  <outline>
    <component base="dvKSs"/>
    <component base="dvVa" xOffset="511"/>
    <contour>
      <point x="926" y="630" type="move" name="candrabindu"/>
    </contour>
    <contour>
      <point x="1096" y="630" type="move" name="candrabinduCXT"/>
    </contour>
    <contour>
      <point x="941" y="630" type="move" name="bindu"/>
    </contour>
    <contour>
      <point x="941" y="468" type="move" name="top"/>
    </contour>
    <contour>
      <point x="891" y="5" type="move" name="bottom"/>
    </contour>
  </outline>
</glyph>
<glyph name="dvKTYa" format="1">
  <advance width="1494"/>
  <outline>
    <component base="uni0915094D"/>
    <component base="uni0924094D" xOffset="565"/>
    <component base="uni092F" xOffset="907"/>
    <contour>
      <point x="1254" y="630" type="move" name="candrabindu"/>
    </contour>
    <contour>
      <point x="1514" y="630" type="move" name="candrabinduCXT"/>
    </contour>
    <contour>
      <point x="1229" y="630" type="move" name="bindu"/>
    </contour>
    <contour>
      <point x="1359" y="468" type="move" name="top"/>
    </contour>
    <contour>
      <point x="1309" y="5" type="move" name="bottom"/>
    </contour>
  </outline>
</glyph>
<glyph name="dvKYa" format="1">
  <advance width="1171"/>
  <outline>
    <component base="dvK"/>
    <component base="dvYa" xOffset="584"/>
    <contour>
      <point x="931" y="630" type="move" name="candrabindu"/>
    </contour>
    <contour>
      <point x="1191" y="630" type="move" name="candrabinduCXT"/>
    </contour>
    <contour>
      <point x="906" y="630" type="move" name="bindu"/>
    </contour>
    <contour>
      <point x="1036" y="468" type="move" name="top"/>
    </contour>
    <contour>
      <point x="986" y="5" type="move" name="bottom"/>
    </contour>
  </outline>
</glyph>
<glyph name="dvKh" format="1">
  <advance width="607"/>
  <outline>
    <contour>
      <point x="663" y="538" type="line"/>
      <point x="672" y="558" type="line"/>
      <point x="642" y="608" type="line"/>
      <point x="216" y="608" type="line"/>
      <point x="207" y="588" type="line"/>
      <point x="239" y="538" type="line"/>
    </contour>
    <contour>
      <point x="419" y="538" type="line"/>
      <point x="428" y="558" type="line"/>
      <point x="398" y="608" type="line"/>
      <point x="-21" y="608" type="line"/>
      <point x="-30" y="588" type="line"/>
      <point x="0" y="538" type="line"/>
    </contour>
    <contour>
      <point x="287" y="502" type="line"/>
      <point x="240" y="543" type="line"/>
      <point x="205" y="554" type="line"/>
      <point x="206" y="398" type="line" smooth="yes"/>
      <point x="207" y="310"/>
      <point x="163" y="279"/>
      <point x="87" y="269" type="curve"/>
      <point x="157" y="166" type="line"/>
      <point x="225" y="248" type="line" smooth="yes"/>
      <point x="260" y="291"/>
      <point x="287" y="322"/>
      <point x="287" y="379" type="curve" smooth="yes"/>
    </contour>
    <contour>
      <point x="528" y="77" type="line"/>
      <point x="496" y="65"/>
      <point x="453" y="56"/>
      <point x="407" y="56" type="curve" smooth="yes"/>
      <point x="309" y="56"/>
      <point x="198" y="98"/>
      <point x="153" y="242" type="curve"/>
      <point x="223" y="331" type="line"/>
      <point x="81" y="331" type="line"/>
      <point x="59" y="281" type="line"/>
      <point x="126" y="96"/>
      <point x="280" y="-20"/>
      <point x="436" y="-20" type="curve"/>
      <point x="475" y="-20"/>
      <point x="513" y="-14"/>
      <point x="547" y="0" type="curve"/>
    </contour>
    <contour>
      <point x="673" y="345"/>
      <point x="616" y="457"/>
      <point x="479" y="457" type="curve" smooth="yes"/>
      <point x="411" y="457"/>
      <point x="333" y="410"/>
      <point x="333" y="310" type="curve" smooth="yes"/>
      <point x="333" y="245"/>
      <point x="402" y="139"/>
      <point x="537" y="139" type="curve" smooth="yes"/>
      <point x="592" y="139"/>
      <point x="673" y="181"/>
      <point x="673" y="277" type="curve" smooth="yes"/>
    </contour>
    <contour>
      <point x="361" y="278"/>
      <point x="411" y="397"/>
      <point x="506" y="397" type="curve" smooth="yes"/>
      <point x="547" y="397"/>
      <point x="602" y="372"/>
      <point x="613" y="330" type="curve"/>
      <point x="630" y="233"/>
      <point x="520" y="162"/>
      <point x="431" y="214" type="curve"/>
    </contour>
  </outline>
</glyph>
<glyph name="dvKhhMa" format="1">
  <advance width="1206"/>
  <outline>
    <component base="uni0959094D"/>
    <component base="uni092E" xOffset="582"/>
    <contour>
      <point x="946" y="630" type="move" name="candrabindu"/>
    </contour>
    <contour>
      <point x="1226" y="630" type="move" name="candrabinduCXT"/>
    </contour>
    <contour>
      <point x="931" y="630" type="move" name="bindu"/>
    </contour>
    <contour>
      <point x="1071" y="468" type="move" name="top"/>
    </contour>
    <contour>
      <point x="1021" y="5" type="move" name="bottom"/>
    </contour>
  </outline>
</glyph>
<glyph name="dvKhhRa" format="1">
  <advance width="782"/>
  <outline>
    <component base="uni093C" xOffset="203" yOffset="123"/>
    <component base="dvKhRa"/>
    <contour>
      <point x="492" y="630" type="move" name="candrabindu"/>
    </contour>
    <contour>
      <point x="802" y="630" type="move" name="candrabinduCXT"/>
    </contour>
    <contour>
      <point x="474" y="630" type="move" name="bindu"/>
    </contour>
    <contour>
      <point x="647" y="468" type="move" name="top"/>
    </contour>
    <contour>
      <point x="594" y="-95" type="move" name="bottom"/>
    </contour>
  </outline>
</glyph>
<glyph name="dvKhhSa" format="1">
  <advance width="1293"/>
  <outline>
    <component base="dvKhh"/>
    <component base="dvSa" xOffset="597"/>
    <contour>
      <point x="1143" y="630" type="move" name="candrabindu"/>
    </contour>
    <contour>
      <point x="1313" y="630" type="move" name="candrabinduCXT"/>
    </contour>
    <contour>
      <point x="1158" y="630" type="move" name="bindu"/>
    </contour>
    <contour>
      <point x="1158" y="468" type="move" name="top"/>
    </contour>
    <contour>
      <point x="1108" y="5" type="move" name="bottom"/>
    </contour>
  </outline>
</glyph>
<glyph name="dvKhhTa" format="1">
  <advance width="1183"/>
  <outline>
    <component base="uni0959094D"/>
    <component base="uni0924" xOffset="607"/>
    <contour>
      <point x="1033" y="630" type="move" name="candrabindu"/>
    </contour>
    <contour>
      <point x="1203" y="630" type="move" name="candrabinduCXT"/>
    </contour>
    <contour>
      <point x="1048" y="630" type="move" name="bindu"/>
    </contour>
    <contour>
      <point x="1048" y="468" type="move" name="top"/>
    </contour>
    <contour>
      <point x="998" y="5" type="move" name="bottom"/>
    </contour>
  </outline>
</glyph>
<glyph name="dvKhhVa" format="1">
  <advance width="1192"/>
  <outline>
    <component base="dvKhh"/>
    <component base="dvVa" xOffset="627"/>
    <contour>
      <point x="1042" y="630" type="move" name="candrabindu"/>
    </contour>
    <contour>
      <point x="1212" y="630" type="move" name="candrabinduCXT"/>
    </contour>
    <contour>
      <point x="1057" y="630" type="move" name="bindu"/>
    </contour>
    <contour>
      <point x="1057" y="468" type="move" name="top"/>
    </contour>
    <contour>
      <point x="1007" y="5" type="move" name="bottom"/>
    </contour>
  </outline>
</glyph>
<glyph name="dvKhhYa" format="1">
  <advance width="1199"/>
  <outline>
    <component base="uni0959094D"/>
    <component base="uni092F" xOffset="612"/>
    <contour>
      <point x="959" y="630" type="move" name="candrabindu"/>
    </contour>
    <contour>
      <point x="1219" y="630" type="move" name="candrabinduCXT"/>
    </contour>
    <contour>
      <point x="934" y="630" type="move" name="bindu"/>
    </contour>
    <contour>
      <point x="1064" y="468" type="move" name="top"/>
    </contour>
    <contour>
      <point x="1014" y="5" type="move" name="bottom"/>
    </contour>
  </outline>
</glyph>
<glyph name="dvL.alt" format="1">
  <advance width="483"/>
  <outline>
    <contour>
      <point x="356" y="154" type="line"/>
      <point x="351" y="281"/>
      <point x="406" y="347"/>
      <point x="464" y="347" type="curve" smooth="yes"/>
      <point x="500" y="347"/>
      <point x="536" y="322"/>
      <point x="565" y="258" type="curve"/>
      <point x="602" y="279" type="line"/>
      <point x="569" y="372"/>
      <point x="501" y="409"/>
      <point x="442" y="409" type="curve" smooth="yes"/>
      <point x="360" y="409"/>
      <point x="269" y="337"/>
      <point x="273" y="195" type="curve"/>
      <point x="332" y="147" type="line"/>
    </contour>
    <contour>
      <point x="361" y="287" type="line"/>
      <point x="252" y="403" type="line"/>
      <point x="231" y="416"/>
      <point x="206" y="423"/>
      <point x="180" y="423" type="curve" smooth="yes"/>
      <point x="109" y="423"/>
      <point x="35" y="367"/>
      <point x="35" y="272" type="curve" smooth="yes"/>
      <point x="35" y="182"/>
      <point x="102" y="79"/>
      <point x="270" y="-39" type="curve"/>
      <point x="304" y="5" type="line"/>
      <point x="197" y="79"/>
      <point x="121" y="150"/>
      <point x="121" y="237" type="curve" smooth="yes"/>
      <point x="121" y="297"/>
      <point x="157" y="337"/>
      <point x="211" y="337" type="curve" smooth="yes"/>
      <point x="244" y="337"/>
      <point x="283" y="322"/>
      <point x="316" y="283" type="curve"/>
      <point x="347" y="247" type="line"/>
    </contour>
    <contour>
      <point x="518" y="538" type="line"/>
      <point x="527" y="558" type="line"/>
      <point x="497" y="608" type="line"/>
      <point x="-21" y="608" type="line"/>
      <point x="-30" y="588" type="line"/>
      <point x="0" y="538" type="line"/>
    </contour>
  </outline>
</glyph>
<glyph name="dvLKYa" format="1">
  <advance width="1603"/>
  <outline>
    <component base="dvL"/>
    <component base="dvKYa" xOffset="432"/>
    <contour>
      <point x="1363" y="630" type="move" name="candrabindu"/>
    </contour>
    <contour>
      <point x="1623" y="630" type="move" name="candrabinduCXT"/>
    </contour>
    <contour>
      <point x="1338" y="630" type="move" name="bindu"/>
    </contour>
    <contour>
      <point x="1468" y="468" type="move" name="top"/>
    </contour>
    <contour>
      <point x="1418" y="5" type="move" name="bottom"/>
    </contour>
  </outline>
</glyph>
<glyph name="dvLLYa" format="1">
  <advance width="1546"/>
  <outline>
    <component base="uni0932094D"/>
    <component base="uni0932094D.alt" xOffset="453"/>
    <component base="uni092F" xOffset="959"/>
    <contour>
      <point x="1306" y="630" type="move" name="candrabindu"/>
    </contour>
    <contour>
      <point x="1566" y="630" type="move" name="candrabinduCXT"/>
    </contour>
    <contour>
      <point x="1281" y="630" type="move" name="bindu"/>
    </contour>
    <contour>
      <point x="1411" y="468" type="move" name="top"/>
    </contour>
    <contour>
      <point x="1361" y="5" type="move" name="bottom"/>
    </contour>
  </outline>
</glyph>
<glyph name="dvLThYa" format="1">
  <advance width="1427"/>
  <outline>
    <component base="uni0932094D.alt"/>
    <component base="uni0925094D" xOffset="478"/>
    <component base="uni092F" xOffset="840"/>
    <contour>
      <point x="1187" y="630" type="move" name="candrabindu"/>
    </contour>
    <contour>
      <point x="1447" y="630" type="move" name="candrabinduCXT"/>
    </contour>
    <contour>
      <point x="1162" y="630" type="move" name="bindu"/>
    </contour>
    <contour>
      <point x="1292" y="468" type="move" name="top"/>
    </contour>
    <contour>
      <point x="1242" y="5" type="move" name="bottom"/>
    </contour>
  </outline>
</glyph>
<glyph name="dvLl" format="1">
  <advance width="718"/>
  <outline>
    <contour>
      <point x="394" y="283" type="line"/>
      <point x="271" y="414" type="line"/>
      <point x="253" y="425"/>
      <point x="225" y="433"/>
      <point x="197" y="433" type="curve" smooth="yes"/>
      <point x="110" y="433"/>
      <point x="38" y="354"/>
      <point x="38" y="242" type="curve" smooth="yes"/>
      <point x="38" y="117"/>
      <point x="126" y="6"/>
      <point x="223" y="6" type="curve" smooth="yes"/>
      <point x="395" y="6"/>
      <point x="427" y="359"/>
      <point x="522" y="383" type="curve"/>
      <point x="585" y="371"/>
      <point x="615" y="291"/>
      <point x="615" y="227" type="curve" smooth="yes"/>
      <point x="615" y="155"/>
      <point x="577" y="80"/>
      <point x="496" y="80" type="curve" smooth="yes"/>
      <point x="439" y="80"/>
      <point x="405" y="117"/>
      <point x="361" y="185" type="curve"/>
      <point x="329" y="147" type="line"/>
      <point x="441" y="25" type="line"/>
      <point x="464" y="13"/>
      <point x="485" y="5"/>
      <point x="515" y="5" type="curve" smooth="yes"/>
      <point x="607" y="5"/>
      <point x="684" y="80"/>
      <point x="684" y="200" type="curve" smooth="yes"/>
      <point x="684" y="316"/>
      <point x="613" y="435"/>
      <point x="514" y="435" type="curve" smooth="yes"/>
      <point x="339" y="435"/>
      <point x="331" y="59"/>
      <point x="200" y="59" type="curve"/>
      <point x="152" y="77"/>
      <point x="113" y="135"/>
      <point x="113" y="209" type="curve" smooth="yes"/>
      <point x="113" y="290"/>
      <point x="159" y="357"/>
      <point x="220" y="357" type="curve" smooth="yes"/>
      <point x="268" y="357"/>
      <point x="314" y="315"/>
      <point x="365" y="244" type="curve"/>
    </contour>
    <contour>
      <point x="739" y="538" type="line"/>
      <point x="748" y="558" type="line"/>
      <point x="718" y="608" type="line"/>
      <point x="-21" y="608" type="line"/>
      <point x="-30" y="588" type="line"/>
      <point x="0" y="538" type="line"/>
    </contour>
  </outline>
</glyph>
<glyph name="dvM" format="1">
  <advance width="382"/>
  <outline>
    <contour>
      <point x="37" y="252" type="line"/>
      <point x="61" y="197"/>
      <point x="127" y="127"/>
      <point x="174" y="98" type="curve"/>
      <point x="222" y="118" type="line"/>
      <point x="222" y="256" type="line"/>
      <point x="155" y="291" type="line"/>
      <point x="64" y="291" type="line"/>
    </contour>
    <contour>
      <point x="405" y="538" type="line"/>
      <point x="414" y="558" type="line"/>
      <point x="384" y="608" type="line"/>
      <point x="-21" y="608" type="line"/>
      <point x="-30" y="588" type="line"/>
      <point x="0" y="538" type="line"/>
    </contour>
    <contour>
      <point x="139" y="262" type="line"/>
      <point x="217" y="231" type="line"/>
      <point x="210" y="500" type="line"/>
      <point x="152" y="551" type="line"/>
      <point x="126" y="562" type="line"/>
    </contour>
    <contour>
      <point x="450" y="291" type="line"/>
      <point x="122" y="291" type="line"/>
      <point x="153" y="215" type="line"/>
      <point x="472" y="215" type="line"/>
    </contour>
  </outline>
</glyph>
<glyph name="dvMBh" format="1">
  <advance width="740"/>
  <outline>
    <contour>
      <point x="37" y="259" type="line"/>
      <point x="61" y="204"/>
      <point x="127" y="134"/>
      <point x="174" y="105" type="curve"/>
      <point x="222" y="125" type="line"/>
      <point x="222" y="263" type="line"/>
      <point x="155" y="298" type="line"/>
      <point x="64" y="298" type="line"/>
    </contour>
    <contour>
      <point x="339" y="538" type="line"/>
      <point x="348" y="558" type="line"/>
      <point x="318" y="608" type="line"/>
      <point x="-21" y="608" type="line"/>
      <point x="-30" y="588" type="line"/>
      <point x="0" y="538" type="line"/>
    </contour>
    <contour>
      <point x="139" y="262" type="line"/>
      <point x="217" y="231" type="line"/>
      <point x="210" y="500" type="line"/>
      <point x="152" y="551" type="line"/>
      <point x="126" y="562" type="line"/>
    </contour>
    <contour>
      <point x="450" y="298" type="line"/>
      <point x="122" y="298" type="line"/>
      <point x="153" y="222" type="line"/>
      <point x="472" y="222" type="line"/>
    </contour>
    <component base="dvBh" xOffset="317"/>
  </outline>
</glyph>
<glyph name="dvN.alt" format="1">
  <advance width="271"/>
  <outline>
    <contour>
      <point x="289" y="538" type="line"/>
      <point x="298" y="558" type="line"/>
      <point x="268" y="608" type="line"/>
      <point x="-21" y="608" type="line"/>
      <point x="-30" y="588" type="line"/>
      <point x="0" y="538" type="line"/>
    </contour>
    <contour>
      <point x="12" y="284" type="line"/>
      <point x="35" y="225"/>
      <point x="79" y="165"/>
      <point x="118" y="128" type="curve"/>
      <point x="166" y="147" type="line"/>
      <point x="166" y="286" type="line"/>
      <point x="99" y="331" type="line"/>
      <point x="53" y="331" type="line"/>
    </contour>
    <contour>
      <point x="401" y="275" type="line"/>
      <point x="375" y="331" type="line"/>
      <point x="66" y="331" type="line"/>
      <point x="97" y="255" type="line"/>
      <point x="387" y="255" type="line"/>
    </contour>
  </outline>
</glyph>
<glyph name="dvNJYa" format="1">
  <advance width="1335"/>
  <outline>
    <component base="uni0928094D"/>
    <component base="dvJYa" xOffset="295"/>
    <contour>
      <point x="1095" y="630" type="move" name="candrabindu"/>
    </contour>
    <contour>
      <point x="1355" y="630" type="move" name="candrabinduCXT"/>
    </contour>
    <contour>
      <point x="1070" y="630" type="move" name="bindu"/>
    </contour>
    <contour>
      <point x="1200" y="468" type="move" name="top"/>
    </contour>
    <contour>
      <point x="1150" y="5" type="move" name="bottom"/>
    </contour>
  </outline>
</glyph>
<glyph name="dvNTRa" format="1">
  <advance width="859"/>
  <outline>
    <contour>
      <point x="329" y="538" type="line"/>
      <point x="338" y="558" type="line"/>
      <point x="308" y="608" type="line"/>
      <point x="-21" y="608" type="line"/>
      <point x="-30" y="588" type="line"/>
      <point x="0" y="538" type="line"/>
    </contour>
    <contour>
      <point x="12" y="360" type="line"/>
      <point x="35" y="301"/>
      <point x="79" y="241"/>
      <point x="118" y="204" type="curve"/>
      <point x="166" y="223" type="line"/>
      <point x="166" y="362" type="line"/>
      <point x="99" y="407" type="line"/>
      <point x="53" y="407" type="line"/>
    </contour>
    <contour>
      <point x="390" y="351" type="line"/>
      <point x="364" y="407" type="line"/>
      <point x="66" y="407" type="line"/>
      <point x="97" y="331" type="line"/>
      <point x="376" y="331" type="line"/>
    </contour>
    <component base="dvTRa" xOffset="295"/>
    <contour>
      <point x="709" y="630" type="move" name="candrabindu"/>
    </contour>
    <contour>
      <point x="879" y="630" type="move" name="candrabinduCXT"/>
    </contour>
    <contour>
      <point x="724" y="630" type="move" name="bindu"/>
    </contour>
    <contour>
      <point x="724" y="468" type="move" name="top"/>
    </contour>
    <contour>
      <point x="674" y="5" type="move" name="bottom"/>
    </contour>
  </outline>
</glyph>
<glyph name="dvNTSa" format="1">
  <advance width="1265"/>
  <outline>
    <component base="uni0928094D"/>
    <component base="uni0924094D.alt1" xOffset="231"/>
    <component base="uni0938" xOffset="569"/>
    <contour>
      <point x="990" y="630" type="move" name="candrabindu"/>
    </contour>
    <contour>
      <point x="1285" y="630" type="move" name="candrabinduCXT"/>
    </contour>
    <contour>
      <point x="970" y="630" type="move" name="bindu"/>
    </contour>
    <contour>
      <point x="1130" y="468" type="move" name="top"/>
    </contour>
    <contour>
      <point x="1080" y="5" type="move" name="bottom"/>
    </contour>
  </outline>
</glyph>
<glyph name="dvNTYa" format="1">
  <advance width="1188"/>
  <outline>
    <component base="dvN"/>
    <component base="dvTYa" xOffset="262"/>
    <contour>
      <point x="948" y="630" type="move" name="candrabindu"/>
    </contour>
    <contour>
      <point x="1208" y="630" type="move" name="candrabinduCXT"/>
    </contour>
    <contour>
      <point x="923" y="630" type="move" name="bindu"/>
    </contour>
    <contour>
      <point x="1053" y="468" type="move" name="top"/>
    </contour>
    <contour>
      <point x="1003" y="5" type="move" name="bottom"/>
    </contour>
  </outline>
</glyph>
<glyph name="dvNThVa" format="1">
  <advance width="1199"/>
  <outline>
    <component base="uni0928094D"/>
    <component base="uni0925094D" xOffset="267"/>
    <component base="uni0935" xOffset="634"/>
    <contour>
      <point x="1049" y="630" type="move" name="candrabindu"/>
    </contour>
    <contour>
      <point x="1219" y="630" type="move" name="candrabinduCXT"/>
    </contour>
    <contour>
      <point x="1064" y="630" type="move" name="bindu"/>
    </contour>
    <contour>
      <point x="1064" y="468" type="move" name="top"/>
    </contour>
    <contour>
      <point x="1014" y="5" type="move" name="bottom"/>
    </contour>
  </outline>
</glyph>
<glyph name="dvNThYa" format="1">
  <advance width="1233"/>
  <outline>
    <component base="uni0928094D"/>
    <component base="uni0925094D" xOffset="267"/>
    <component base="uni092F" xOffset="646"/>
    <contour>
      <point x="993" y="630" type="move" name="candrabindu"/>
    </contour>
    <contour>
      <point x="1253" y="630" type="move" name="candrabinduCXT"/>
    </contour>
    <contour>
      <point x="968" y="630" type="move" name="bindu"/>
    </contour>
    <contour>
      <point x="1098" y="468" type="move" name="top"/>
    </contour>
    <contour>
      <point x="1048" y="5" type="move" name="bottom"/>
    </contour>
  </outline>
</glyph>
<glyph name="dvNine.ss05" format="1">
  <advance width="569"/>
  <outline>
    <contour>
      <point x="198" y="338" type="line"/>
      <point x="152" y="302"/>
      <point x="132" y="253"/>
      <point x="132" y="205" type="curve" smooth="yes"/>
      <point x="132" y="122"/>
      <point x="194" y="43"/>
      <point x="286" y="43" type="curve" smooth="yes"/>
      <point x="325" y="43"/>
      <point x="360" y="57"/>
      <point x="452" y="92" type="curve"/>
      <point x="473" y="57"/>
      <point x="455" y="4"/>
      <point x="395" y="-52" type="curve"/>
      <point x="468" y="-95" type="line"/>
      <point x="586" y="11"/>
      <point x="509" y="153"/>
      <point x="413" y="153" type="curve" smooth="yes"/>
      <point x="370" y="153"/>
      <point x="307" y="125"/>
      <point x="234" y="99" type="curve"/>
      <point x="175" y="159"/>
      <point x="213" y="283"/>
      <point x="281" y="304" type="curve"/>
    </contour>
    <contour>
      <point x="477" y="300" type="line"/>
      <point x="486" y="320" type="line"/>
      <point x="456" y="370" type="line"/>
      <point x="210" y="370" type="line"/>
      <point x="198" y="365" type="line"/>
      <point x="43" y="365" type="line"/>
      <point x="34" y="345" type="line"/>
      <point x="62" y="300" type="line"/>
    </contour>
    <contour>
      <point x="211" y="383"/>
      <point x="194" y="436"/>
      <point x="194" y="467" type="curve" smooth="yes"/>
      <point x="194" y="520"/>
      <point x="244" y="551"/>
      <point x="315" y="551" type="curve" smooth="yes"/>
      <point x="365" y="551"/>
      <point x="411" y="535"/>
      <point x="455" y="510" type="curve"/>
      <point x="455" y="586" type="line"/>
      <point x="408" y="616"/>
      <point x="349" y="628"/>
      <point x="300" y="628" type="curve" smooth="yes"/>
      <point x="189" y="628"/>
      <point x="122" y="564"/>
      <point x="122" y="497" type="curve" smooth="yes"/>
      <point x="122" y="436"/>
      <point x="176" y="356"/>
      <point x="255" y="329" type="curve"/>
      <point x="283" y="351" type="line"/>
    </contour>
  </outline>
</glyph>
<glyph name="dvNy" format="1">
  <advance width="600"/>
  <outline>
    <contour>
      <point x="438" y="266" type="line"/>
      <point x="535" y="214"/>
      <point x="596" y="204"/>
      <point x="657" y="243" type="curve"/>
      <point x="629" y="323" type="line"/>
      <point x="585" y="287"/>
      <point x="521" y="283"/>
      <point x="450" y="303" type="curve"/>
    </contour>
    <contour>
      <point x="226" y="310" type="line"/>
      <point x="338" y="403" type="line"/>
      <point x="290" y="394" type="line"/>
      <point x="361" y="397"/>
      <point x="410" y="344"/>
      <point x="410" y="284" type="curve" smooth="yes"/>
      <point x="410" y="225"/>
      <point x="362" y="170"/>
      <point x="282" y="170" type="curve" smooth="yes"/>
      <point x="185" y="170"/>
      <point x="114" y="251"/>
      <point x="42" y="363" type="curve"/>
      <point x="2" y="333" type="line"/>
      <point x="102" y="167"/>
      <point x="215" y="90"/>
      <point x="316" y="90" type="curve" smooth="yes"/>
      <point x="403" y="90"/>
      <point x="489" y="146"/>
      <point x="489" y="251" type="curve" smooth="yes"/>
      <point x="489" y="358"/>
      <point x="399" y="443"/>
      <point x="301" y="443" type="curve" smooth="yes"/>
      <point x="256" y="443"/>
      <point x="208" y="425"/>
      <point x="167" y="386" type="curve"/>
    </contour>
    <contour>
      <point x="646" y="538" type="line"/>
      <point x="655" y="558" type="line"/>
      <point x="625" y="608" type="line"/>
      <point x="-21" y="608" type="line"/>
      <point x="-30" y="588" type="line"/>
      <point x="0" y="538" type="line"/>
    </contour>
  </outline>
</glyph>
<glyph name="dvPR" format="1">
  <advance width="341"/>
  <outline>
    <contour>
      <point x="42" y="6" type="line"/>
      <point x="105" y="-44" type="line"/>
      <point x="449" y="232" type="line"/>
      <point x="380" y="253" type="line" smooth="yes"/>
    </contour>
    <contour>
      <point x="436" y="538" type="line"/>
      <point x="445" y="558" type="line"/>
      <point x="415" y="608" type="line"/>
      <point x="-31" y="608" type="line"/>
      <point x="-40" y="588" type="line"/>
      <point x="-10" y="538" type="line"/>
    </contour>
    <contour>
      <point x="402" y="292" type="line"/>
      <point x="378" y="267"/>
      <point x="358" y="251"/>
      <point x="336" y="237" type="curve" smooth="yes"/>
      <point x="309" y="219"/>
      <point x="278" y="208"/>
      <point x="249" y="208" type="curve" smooth="yes"/>
      <point x="208" y="208"/>
      <point x="171" y="229"/>
      <point x="151" y="267" type="curve"/>
      <point x="151" y="500" type="line"/>
      <point x="93" y="551" type="line"/>
      <point x="68" y="562" type="line"/>
      <point x="68" y="362" type="line" smooth="yes"/>
      <point x="68" y="290"/>
      <point x="115" y="219"/>
      <point x="167" y="181" type="curve" smooth="yes"/>
      <point x="205" y="153"/>
      <point x="242" y="145"/>
      <point x="283" y="145" type="curve" smooth="yes"/>
      <point x="298" y="145"/>
      <point x="308" y="146"/>
      <point x="319" y="149" type="curve"/>
      <point x="423" y="230" type="line"/>
      <point x="449" y="232" type="line"/>
    </contour>
  </outline>
</glyph>
<glyph name="dvPSha" format="1">
  <advance width="980"/>
  <outline>
    <contour>
      <point x="436" y="538" type="line"/>
      <point x="445" y="558" type="line"/>
      <point x="415" y="608" type="line"/>
      <point x="-21" y="608" type="line"/>
      <point x="-30" y="588" type="line"/>
      <point x="0" y="538" type="line"/>
    </contour>
    <contour>
      <point x="341" y="217" type="line"/>
      <point x="319" y="200"/>
      <point x="289" y="191"/>
      <point x="259" y="191" type="curve" smooth="yes"/>
      <point x="216" y="191"/>
      <point x="173" y="209"/>
      <point x="151" y="250" type="curve"/>
      <point x="151" y="500" type="line"/>
      <point x="93" y="551" type="line"/>
      <point x="68" y="562" type="line"/>
      <point x="68" y="345" type="line" smooth="yes"/>
      <point x="68" y="226"/>
      <point x="188" y="118"/>
      <point x="287" y="118" type="curve" smooth="yes"/>
      <point x="316" y="118"/>
      <point x="350" y="127"/>
      <point x="382" y="148" type="curve"/>
    </contour>
    <component base="uni0936" xOffset="238"/>
    <contour>
      <point x="703" y="630" type="move" name="candrabindu"/>
    </contour>
    <contour>
      <point x="1000" y="630" type="move" name="candrabinduCXT"/>
    </contour>
    <contour>
      <point x="715" y="630" type="move" name="bindu"/>
    </contour>
    <contour>
      <point x="845" y="468" type="move" name="top"/>
    </contour>
    <contour>
      <point x="795" y="-42" type="move" name="bottom"/>
    </contour>
  </outline>
</glyph>
<glyph name="dvPh" format="1">
  <advance width="600"/>
  <outline>
    <contour>
      <point x="624" y="538" type="line"/>
      <point x="633" y="558" type="line"/>
      <point x="603" y="608" type="line"/>
      <point x="-21" y="608" type="line"/>
      <point x="-30" y="588" type="line"/>
      <point x="0" y="538" type="line"/>
    </contour>
    <contour>
      <point x="58" y="382" type="line" smooth="yes"/>
      <point x="58" y="264"/>
      <point x="169" y="146"/>
      <point x="270" y="146" type="curve" smooth="yes"/>
      <point x="310" y="146"/>
      <point x="375" y="165"/>
      <point x="423" y="260" type="curve"/>
      <point x="371" y="321" type="line"/>
      <point x="339" y="251"/>
      <point x="286" y="227"/>
      <point x="240" y="227" type="curve" smooth="yes"/>
      <point x="196" y="227"/>
      <point x="159" y="249"/>
      <point x="141" y="287" type="curve"/>
      <point x="141" y="500" type="line"/>
      <point x="83" y="551" type="line"/>
      <point x="58" y="562" type="line"/>
    </contour>
    <contour>
      <point x="342" y="5" type="line"/>
      <point x="401" y="-33" type="line"/>
      <point x="425" y="-26" type="line"/>
      <point x="425" y="500" type="line"/>
      <point x="367" y="551" type="line"/>
      <point x="342" y="562" type="line"/>
    </contour>
    <contour>
      <point x="683" y="312" type="line"/>
      <point x="662" y="368"/>
      <point x="606" y="409"/>
      <point x="551" y="409" type="curve" smooth="yes"/>
      <point x="487" y="409"/>
      <point x="426" y="351"/>
      <point x="388" y="294" type="curve"/>
      <point x="410" y="206" type="line"/>
      <point x="476" y="288"/>
      <point x="525" y="335"/>
      <point x="576" y="335" type="curve" smooth="yes"/>
      <point x="613" y="335"/>
      <point x="637" y="310"/>
      <point x="648" y="288" type="curve" smooth="yes"/>
      <point x="651" y="282" type="line"/>
    </contour>
  </outline>
</glyph>
<glyph name="dvQBa" format="1">
  <advance width="1139"/>
  <outline>
    <component base="uni0915094D"/>
    <component base="uni093C" xOffset="174" yOffset="129"/>
    <component base="uni092C" xOffset="564"/>
    <contour>
      <point x="989" y="630" type="move" name="candrabindu"/>
    </contour>
    <contour>
      <point x="1159" y="630" type="move" name="candrabinduCXT"/>
    </contour>
    <contour>
      <point x="1004" y="630" type="move" name="bindu"/>
    </contour>
    <contour>
      <point x="1004" y="468" type="move" name="top"/>
    </contour>
    <contour>
      <point x="954" y="5" type="move" name="bottom"/>
    </contour>
  </outline>
</glyph>
<glyph name="dvQMa" format="1">
  <advance width="1124"/>
  <outline>
    <component base="dvK.alt"/>
    <component base="dvMa" xOffset="500"/>
    <component base="dvNukta" xOffset="174" yOffset="129"/>
    <contour>
      <point x="894" y="630" type="move" name="candrabindu"/>
    </contour>
    <contour>
      <point x="1174" y="630" type="move" name="candrabinduCXT"/>
    </contour>
    <contour>
      <point x="879" y="630" type="move" name="bindu"/>
    </contour>
    <contour>
      <point x="1019" y="468" type="move" name="top"/>
    </contour>
    <contour>
      <point x="969" y="5" type="move" name="bottom"/>
    </contour>
  </outline>
</glyph>
<glyph name="dvQQa" format="1">
  <advance width="1296"/>
  <outline>
    <component base="uni0915094D"/>
    <component base="uni093C" xOffset="174" yOffset="129"/>
    <component base="uni0958" xOffset="571"/>
    <contour>
      <point x="951" y="630" type="move" name="candrabindu"/>
    </contour>
    <contour>
      <point x="1216" y="630" type="move" name="candrabinduCXT"/>
    </contour>
    <contour>
      <point x="941" y="630" type="move" name="bindu"/>
    </contour>
    <contour>
      <point x="951" y="468" type="move" name="top"/>
    </contour>
    <contour>
      <point x="881" y="-39" type="move" name="bottom"/>
    </contour>
  </outline>
</glyph>
<glyph name="dvQTa" format="1">
  <advance width="1131"/>
  <outline>
    <component base="dvK"/>
    <component base="dvTa" xOffset="555"/>
    <component base="dvNukta" xOffset="174" yOffset="129"/>
    <contour>
      <point x="981" y="630" type="move" name="candrabindu"/>
    </contour>
    <contour>
      <point x="1151" y="630" type="move" name="candrabinduCXT"/>
    </contour>
    <contour>
      <point x="996" y="630" type="move" name="bindu"/>
    </contour>
    <contour>
      <point x="996" y="468" type="move" name="top"/>
    </contour>
    <contour>
      <point x="946" y="5" type="move" name="bottom"/>
    </contour>
  </outline>
</glyph>
<glyph name="dvSTYa" format="1">
  <advance width="1318"/>
  <outline>
    <component base="dvS"/>
    <component base="dvTYa" xOffset="392"/>
    <contour>
      <point x="1078" y="630" type="move" name="candrabindu"/>
    </contour>
    <contour>
      <point x="1338" y="630" type="move" name="candrabinduCXT"/>
    </contour>
    <contour>
      <point x="1053" y="630" type="move" name="bindu"/>
    </contour>
    <contour>
      <point x="1183" y="468" type="move" name="top"/>
    </contour>
    <contour>
      <point x="1133" y="5" type="move" name="bottom"/>
    </contour>
  </outline>
</glyph>
<glyph name="dvSThYa" format="1">
  <advance width="1339"/>
  <outline>
    <component base="uni0938094D"/>
    <component base="uni0925094D" xOffset="386"/>
    <component base="uni092F" xOffset="752"/>
    <contour>
      <point x="1099" y="630" type="move" name="candrabindu"/>
    </contour>
    <contour>
      <point x="1359" y="630" type="move" name="candrabinduCXT"/>
    </contour>
    <contour>
      <point x="1074" y="630" type="move" name="bindu"/>
    </contour>
    <contour>
      <point x="1204" y="468" type="move" name="top"/>
    </contour>
    <contour>
      <point x="1154" y="5" type="move" name="bottom"/>
    </contour>
  </outline>
</glyph>
<glyph name="dvSs" format="1">
  <advance width="350"/>
  <outline>
    <contour>
      <point x="386" y="538" type="line"/>
      <point x="395" y="558" type="line"/>
      <point x="365" y="608" type="line"/>
      <point x="-21" y="608" type="line"/>
      <point x="-30" y="588" type="line"/>
      <point x="0" y="538" type="line"/>
    </contour>
    <contour>
      <point x="93" y="572" type="line"/>
      <point x="374" y="219" type="line"/>
      <point x="438" y="221" type="line"/>
      <point x="141" y="590" type="line"/>
    </contour>
    <contour>
      <point x="383" y="281" type="line"/>
      <point x="350" y="236"/>
      <point x="298" y="211"/>
      <point x="250" y="211" type="curve" smooth="yes"/>
      <point x="208" y="211"/>
      <point x="171" y="229"/>
      <point x="151" y="267" type="curve"/>
      <point x="151" y="540" type="line"/>
      <point x="93" y="560" type="line"/>
      <point x="68" y="562" type="line"/>
      <point x="68" y="362" type="line" smooth="yes"/>
      <point x="68" y="243"/>
      <point x="188" y="135"/>
      <point x="287" y="135" type="curve" smooth="yes"/>
      <point x="334" y="135"/>
      <point x="396" y="159"/>
      <point x="438" y="221" type="curve"/>
    </contour>
  </outline>
</glyph>
<glyph name="dvSsKRa" format="1">
  <advance width="1058"/>
  <outline>
    <component base="dvSs"/>
    <component base="dvKRa" xOffset="313"/>
    <contour>
      <point x="693" y="630" type="move" name="candrabindu"/>
    </contour>
    <contour>
      <point x="958" y="630" type="move" name="candrabinduCXT"/>
    </contour>
    <contour>
      <point x="683" y="630" type="move" name="bindu"/>
    </contour>
    <contour>
      <point x="693" y="468" type="move" name="top"/>
    </contour>
    <contour>
      <point x="643" y="-35" type="move" name="bottom"/>
    </contour>
  </outline>
</glyph>
<glyph name="dvSsMYa" format="1">
  <advance width="1234"/>
  <outline>
    <component base="dvSs"/>
    <component base="dvM" xOffset="315"/>
    <component base="dvYa" xOffset="647"/>
    <contour>
      <point x="994" y="630" type="move" name="candrabindu"/>
    </contour>
    <contour>
      <point x="1254" y="630" type="move" name="candrabinduCXT"/>
    </contour>
    <contour>
      <point x="969" y="630" type="move" name="bindu"/>
    </contour>
    <contour>
      <point x="1099" y="468" type="move" name="top"/>
    </contour>
    <contour>
      <point x="1049" y="5" type="move" name="bottom"/>
    </contour>
  </outline>
</glyph>
<glyph name="dvSsR" format="1">
  <advance width="344"/>
  <outline>
    <contour>
      <point x="42" y="6" type="line"/>
      <point x="105" y="-44" type="line"/>
      <point x="412" y="200" type="line"/>
      <point x="380" y="253" type="line" smooth="yes"/>
    </contour>
    <contour>
      <point x="386" y="276" type="line"/>
      <point x="369" y="260"/>
      <point x="353" y="248"/>
      <point x="336" y="237" type="curve" smooth="yes"/>
      <point x="309" y="219"/>
      <point x="278" y="208"/>
      <point x="249" y="208" type="curve" smooth="yes"/>
      <point x="208" y="208"/>
      <point x="171" y="229"/>
      <point x="151" y="267" type="curve"/>
      <point x="151" y="550" type="line"/>
      <point x="93" y="551" type="line"/>
      <point x="68" y="562" type="line"/>
      <point x="68" y="362" type="line" smooth="yes"/>
      <point x="68" y="290"/>
      <point x="115" y="219"/>
      <point x="167" y="181" type="curve" smooth="yes"/>
      <point x="205" y="153"/>
      <point x="242" y="145"/>
      <point x="283" y="145" type="curve" smooth="yes"/>
      <point x="298" y="145"/>
      <point x="308" y="146"/>
      <point x="319" y="149" type="curve"/>
      <point x="405" y="216" type="line"/>
    </contour>
    <contour>
      <point x="386" y="538" type="line"/>
      <point x="395" y="558" type="line"/>
      <point x="365" y="608" type="line"/>
      <point x="-21" y="608" type="line"/>
      <point x="-30" y="588" type="line"/>
      <point x="0" y="538" type="line"/>
    </contour>
    <contour>
      <point x="93" y="572" type="line"/>
      <point x="374" y="219" type="line"/>
      <point x="412" y="200" type="line"/>
      <point x="410" y="256" type="line"/>
      <point x="141" y="590" type="line"/>
    </contour>
  </outline>
</glyph>
<glyph name="dvSsTthYa" format="1">
  <advance width="1153"/>
  <outline>
    <component base="dvSsTtha"/>
    <component base="dvYa.post" xOffset="566"/>
    <contour>
      <point x="913" y="630" type="move" name="candrabindu"/>
    </contour>
    <contour>
      <point x="1173" y="630" type="move" name="candrabinduCXT"/>
    </contour>
    <contour>
      <point x="888" y="630" type="move" name="bindu"/>
    </contour>
    <contour>
      <point x="1018" y="468" type="move" name="top"/>
    </contour>
    <contour>
      <point x="968" y="-15" type="move" name="bottom"/>
    </contour>
  </outline>
</glyph>
<glyph name="dvT.alt1" format="1">
  <advance width="333"/>
  <outline>
    <contour>
      <point x="483" y="270" type="line"/>
      <point x="428" y="331"/>
      <point x="352" y="379"/>
      <point x="255" y="379" type="curve" smooth="yes"/>
      <point x="142" y="379"/>
      <point x="61" y="313"/>
      <point x="61" y="212" type="curve" smooth="yes"/>
      <point x="61" y="125"/>
      <point x="122" y="50"/>
      <point x="227" y="-50" type="curve"/>
      <point x="264" y="-15" type="line"/>
      <point x="161" y="86"/>
      <point x="138" y="137"/>
      <point x="138" y="182" type="curve" smooth="yes"/>
      <point x="138" y="249"/>
      <point x="189" y="296"/>
      <point x="271" y="296" type="curve" smooth="yes"/>
      <point x="343" y="296"/>
      <point x="390" y="260"/>
      <point x="435" y="215" type="curve"/>
    </contour>
    <contour>
      <point x="442" y="538" type="line"/>
      <point x="451" y="558" type="line"/>
      <point x="421" y="608" type="line"/>
      <point x="-21" y="608" type="line"/>
      <point x="-30" y="588" type="line"/>
      <point x="0" y="538" type="line"/>
    </contour>
  </outline>
</glyph>
<glyph name="dvT" format="1">
  <advance width="331"/>
  <outline>
    <contour>
      <point x="440" y="347" type="line"/>
      <point x="377" y="389"/>
      <point x="322" y="409"/>
      <point x="253" y="409" type="curve" smooth="yes"/>
      <point x="113" y="409"/>
      <point x="48" y="326"/>
      <point x="48" y="244" type="curve" smooth="yes"/>
      <point x="48" y="160"/>
      <point x="117" y="67"/>
      <point x="227" y="-38" type="curve"/>
      <point x="264" y="-3" type="line"/>
      <point x="157" y="102"/>
      <point x="130" y="163"/>
      <point x="130" y="212" type="curve" smooth="yes"/>
      <point x="130" y="288"/>
      <point x="198" y="327"/>
      <point x="268" y="327" type="curve" smooth="yes"/>
      <point x="311" y="327"/>
      <point x="363" y="312"/>
      <point x="410" y="275" type="curve"/>
    </contour>
    <contour>
      <point x="372" y="538" type="line"/>
      <point x="381" y="558" type="line"/>
      <point x="351" y="608" type="line"/>
      <point x="-21" y="608" type="line"/>
      <point x="-30" y="588" type="line"/>
      <point x="0" y="538" type="line"/>
    </contour>
  </outline>
</glyph>
<glyph name="dvTKSsa" format="1">
  <advance width="1044"/>
  <outline>
    <component base="uni0924094D.alt1"/>
    <component base="dvKSsa" xOffset="344"/>
    <contour>
      <point x="894" y="630" type="move" name="candrabindu"/>
    </contour>
    <contour>
      <point x="1064" y="630" type="move" name="candrabinduCXT"/>
    </contour>
    <contour>
      <point x="909" y="630" type="move" name="bindu"/>
    </contour>
    <contour>
      <point x="909" y="468" type="move" name="top"/>
    </contour>
    <contour>
      <point x="752" y="-154" type="move" name="bottom"/>
    </contour>
  </outline>
</glyph>
<glyph name="dvTKYa" format="1">
  <advance width="1509"/>
  <outline>
    <component base="uni0924094D"/>
    <component base="dvKYa" xOffset="318"/>
    <contour>
      <point x="1269" y="630" type="move" name="candrabindu"/>
    </contour>
    <contour>
      <point x="1529" y="630" type="move" name="candrabinduCXT"/>
    </contour>
    <contour>
      <point x="1244" y="630" type="move" name="bindu"/>
    </contour>
    <contour>
      <point x="1374" y="468" type="move" name="top"/>
    </contour>
    <contour>
      <point x="1324" y="5" type="move" name="bottom"/>
    </contour>
  </outline>
</glyph>
<glyph name="dvTR" format="1">
  <advance width="322"/>
  <outline>
    <contour>
      <point x="102" y="106" type="line"/>
      <point x="162" y="53" type="line"/>
      <point x="422" y="242" type="line"/>
      <point x="365" y="290" type="line"/>
    </contour>
    <contour>
      <point x="81" y="311" type="line"/>
      <point x="127" y="350"/>
      <point x="172" y="374"/>
      <point x="207" y="374" type="curve" smooth="yes"/>
      <point x="239" y="374"/>
      <point x="265" y="355"/>
      <point x="295" y="328" type="curve" smooth="yes"/>
      <point x="391" y="244" type="line"/>
      <point x="422" y="242" type="line"/>
      <point x="422" y="277" type="line"/>
      <point x="310" y="381" type="line" smooth="yes"/>
      <point x="269" y="419"/>
      <point x="225" y="451"/>
      <point x="171" y="451" type="curve" smooth="yes"/>
      <point x="126" y="451"/>
      <point x="73" y="429"/>
      <point x="25" y="382" type="curve"/>
    </contour>
    <contour>
      <point x="445" y="538" type="line"/>
      <point x="454" y="558" type="line"/>
      <point x="424" y="608" type="line"/>
      <point x="-21" y="608" type="line"/>
      <point x="-30" y="588" type="line"/>
      <point x="0" y="538" type="line"/>
    </contour>
  </outline>
</glyph>
<glyph name="dvTR.ss03" format="1">
  <advance width="381"/>
  <outline>
    <contour>
      <point x="415" y="352" type="line" smooth="yes"/>
      <point x="207" y="137" type="line"/>
      <point x="267" y="88" type="line"/>
      <point x="495" y="333" type="line"/>
    </contour>
    <contour>
      <point x="495" y="333" type="line"/>
      <point x="495" y="408" type="line"/>
      <point x="239" y="408" type="line" smooth="yes"/>
      <point x="98" y="408"/>
      <point x="43" y="336"/>
      <point x="43" y="258" type="curve" smooth="yes"/>
      <point x="43" y="167"/>
      <point x="118" y="66"/>
      <point x="227" y="-38" type="curve"/>
      <point x="264" y="-3" type="line"/>
      <point x="157" y="102"/>
      <point x="130" y="172"/>
      <point x="130" y="223" type="curve" smooth="yes"/>
      <point x="130" y="289"/>
      <point x="175" y="327"/>
      <point x="280" y="327" type="curve" smooth="yes"/>
      <point x="401" y="327" type="line"/>
    </contour>
    <contour>
      <point x="442" y="538" type="line"/>
      <point x="451" y="558" type="line"/>
      <point x="421" y="608" type="line"/>
      <point x="-21" y="608" type="line"/>
      <point x="-30" y="588" type="line"/>
      <point x="0" y="538" type="line"/>
    </contour>
  </outline>
</glyph>
